/* XPM */
static char * player_6_xpm[] = {
"128 64 56 1",
" 	c #95CB74",
".	c #94CB74",
"+	c #94CB73",
"@	c #95CC74",
"#	c #96CC74",
"$	c #9ACE78",
"%	c #A3D37F",
"&	c #A7D582",
"*	c #93C974",
"=	c #8EC674",
"-	c #8BC475",
";	c #B8E090",
">	c #C3E799",
",	c #80BC75",
"'	c #77B675",
")	c #95CB73",
"!	c #D1F0A4",
"~	c #69AD76",
"{	c #8BC474",
"]	c #9CCE7F",
"^	c #B6DE90",
"/	c #76B675",
"(	c #86BF79",
"_	c #000000",
":	c #A0D17F",
"<	c #B3DB90",
"[	c #BDE199",
"}	c #93C978",
"|	c #90C480",
"1	c #8EC284",
"2	c #384040",
"3	c #486060",
"4	c #68AD75",
"5	c #F8B020",
"6	c #B87020",
"7	c #784040",
"8	c #282838",
"9	c #D8A078",
"0	c #9890B0",
"a	c #93CA73",
"b	c #E8E8F8",
"c	c #ADD889",
"d	c #B7DE93",
"e	c #BCE199",
"f	c #9ECC89",
"g	c #8DC183",
"h	c #F8D0B8",
"i	c #66AC75",
"j	c #AED691",
"k	c #8DC280",
"l	c #8CC379",
"m	c #B8B0D0",
"n	c #C03838",
"o	c #F06848",
"p	c #50875A",
"q	c #9088A8",
"                                                                                                                                ",
"                .++.                                                            .++.                                            ",
"@@@@@@@@@@@@################@@@@################@@@@@@@         @@@@@@@@@@@@################@@@@################@@@@@@@         ",
"               $%&&%$                              *=--=*                      $%&&%$                              *=--=*       ",
"             . %;>>;% .                            =,'',=                    . %;>>;% .                            =,'',=       ",
"             ) &>!!>& +     .++.                   -'~~'-                    ) &>!!>& +     .++.                   -'~~'-       ",
"             + &>!!>& +                            -'~~'-                    + &>!!>& +                            -'~~'-       ",
"           *={-]^>>;% .    $%&&%$                  =,'',=                  *={-]^>>;% .    $%&&%$                  =,'',=       ",
"           =,/'(]&&%$    . %;>>;% .                *=--=*                  =,/'(]&&%$    . %;>>;% .                *=--=*       ",
"           -'~~'-        ) &>!!>& +     .++.                               -'~~'-        ) &>!!>& +     .++.                    ",
"           -'~~/{+).     + &>!!>& +                                        -'~~/{+).     + &>!!>& +                             ",
"           =,'',=      *={-]^>>;% .    $%&&%$                              =,'',=      *={-]^>>;% .    $%&&%$                   ",
"           *=--=*      =,/'(]&&%$    . %;>>;% .                            *=--=*      =,/'(]&&%$    . %;>>;% .                 ",
"    .++.               -'~~'-        + &>!!>& +                     .++.               -'~~'-        + &>!!>& +                 ",
"                       -'~~/{+).     + &>!!>& +           __________                   -'~~/{+).     + &>!!>& +                 ",
"   $%&&%$              =,'',=          :<[[<:             __________%&&%$              =,'',=          :<[[<:                   ",
" . %;>>;% .            *=--=*          }|11|}         ____2233333333____% .            *=--=*          }|11|}                   ",
" + &>!!>& +                            -'~~'-         ____2233333333____& +                            -'~~'-           .++.    ",
" + &>!!>& +                            {/44/{       __225555555555555555__+                            {/44/{                   ",
"   :<[[<:                              =,'',=       __225555555555555555__                             =,'',=          $%&&%$   ",
"   }|11|}                              *=--=*   ____6655555555555555555555__                           *=--=*        . %;>>;% . ",
"   -'~~'-                                       ____6655555555555555555555__                                         + &>!!>& + ",
"   {/44/{                                     __33__665555555555555555555577                                         + &>!!>& + ",
"   =,'',=                  *=--=*             __33__665555555555555555555577               *=--=*                      :<[[<:   ",
"   *=--=*                  =,'',=           __3333226666553333333333555566662222           =,'',=                      }|11|}   ",
"            .++.           -'~~'-           __3333226666553333333333555566662222           -'~~'-           .++.       -'~~'-   ",
"                           -'~~'-           __333322666622223333333322666622333322         -'~~'-                      {/44/{   ",
"           $%&&%$          =,'',=          $__333322666622223333333322666622333322         =,'',=          $%&&%$      =,'',=   ",
"         . %;>>;% .        *=--=*        . %__333322662222222222222222226622333322.        *=--=*        . %;>>;% .    *=--=*   ",
"         + &>!!>& +                      + &__333322662222222222222222226622333322+                      + &>!!>& +         .++.",
"         + &>!!>& +                      + &__883333__22222222222222222266662233& +                      + &>!!>& +             ",
"           :<[[<:                          :__883333__22222222222222222266662233:                          :<[[<:          $%&&%",
"           }|11|}                          }|1__223333____2222222222222266__3322}                          }|11|}        . %;>>;",
"           -'~~'-           .++.           -'~__223333____2222222222222266__3322-           .++.           -'~~'-        ) &>!!>",
"           {/44/{                          {/44/____8888888888888888887777__224/{                          {/44/{        + &>!!>",
"           =,'',=          $%&&%$          =,'',____8888888888888888887777__22',=          $%&&%$          =,'',=      *={-]^>>;",
"           *=--=*        . %;>>;% .        *=--=* __222222222299229900__9977=--=*        . %;>>;% .        *=--=*      =,/'(]&&%",
"    .++.                .a+&>!!>& + .++.          __222222222299229900__9977            .a+&>!!>& + .++.               -'~~'-   ",
"                         + &>!!>& +               __2222222299999999bb__9977             + &>!!>& +                    -'~~/{+).",
"   $%&&%$              $%&&cd[e<:  $%&&%$         __2222222299999999bb__9977           $%&&cd[e<:  $%&&%$              =,'',=   ",
" . %;>>;% .          . %;>>df1g|}. %;>>;% .         __882222999999hhhhhhhh99         . %;>>df1g|}. %;>>;% .            *=--=*   ",
" + &>!!>& +          + &>!![1~4'-+ &>!!>& +         __882222999999hhhhhhhh99         + &>!![1~4'-+ &>!!>& +                     ",
" + &>!!>& +          + &>!!eg4i/{+ &>!!>& +           __007777999999hhhh99+          + &>!!eg4i/{+ &>!!>& +                     ",
"   :<[[<:              :<[[jk'/,=  :<[[<:             __007777999999hhhh99             :<[[jk'/,=  :<[[<:                       ",
"   }|11|}              }|11kl-{=*  }|11|}             __bbmmmm__7777001|}              }|11kl-{=*  }|11|}                       ",
"   -'~~'-              -'~~'-      -'~~'-           .+__bbmmmm__777700~'-              -'~~'-      -'~~'-           .++.        ",
"   {/44/{              {/44/{ #    {/44/{           __mm22mm__77nn88bb00{              {/44/{ #    {/44/{                       ",
"   =,'',=              =,'',=      =,'',=          $__mm22mm__77nn88bb00=              =,'',=      =,'',=          $%&&%$       ",
"   *=--=*              *=--=*      *=--=*        . %__mmbb33__77oooo__00*              *=--=*      *=--=*        . %;>>;% .     ",
"            .++.                            .++. + &__mmbb33__77oooo__00    .++.                            .++. + &>!!>& +     ",
"                                                 + &__mmbb33__77nnnn__77                                         + &>!!>& +     ",
"           $%&&%$                          $%&&%$  p__mmbb33__77nnnn__77ppp$%&&%$                          $%&&%$  :<[[<:       ",
"         . %;>>;% .                      . %;>>;% .p__qq33____7777hh99__ppp%;>>;% .                      . %;>>;% .}|11|}       ",
"         + &>!!>& +                      + &>!!>&ppp__qq33____7777hh99__ppppp!!>& +                      + &>!!>& +-'~~'-       ",
"         + &>!!>& +                      + &>!!>&ppppp______222277hh9922ppppp!!>& +                      + &>!!>& +{/44/{       ",
"           :<[[<:          *=--=*          :<[[<:ppppp______222277hh9922ppppp[[<:          *=--=*          :<[[<:  =,'',=       ",
"           }|11|}          =,'',=          }|11|}ppppppppp__qqqqmm____ppppppp11|}          =,'',=          }|11|}  *=--=*       ",
"           -'~~'-          -'~~'-          -'~~'-ppppppppp__qqqqmm____ppppppp~~'-          -'~~'-          -'~~'-               ",
"           {/44/{          -'~~'-          {/44/{ppppppppppp________ppppppppp44/{          -'~~'-          {/44/{               ",
"           =,'',=          =,'',=          =,'',=  ppppppppp________ppppppp=,'',=          =,'',=          =,'',=               ",
"           *=--=*          *=--=*          *=--=*  pppppppppppppppppppppppp*=--=*          *=--=*          *=--=*               ",
"             ##                              ##      pppppppppppppppppppp    ##                              ##                 ",
"                                                     pppppppppppppppppppp                                                       ",
"                                                                                                                                "};
