/* XPM */
static char * player_1_xpm[] = {
"64 128 55 1",
" 	c #95CB74",
".	c #94CB74",
"+	c #94CB73",
"@	c #95CC74",
"#	c #96CC74",
"$	c #9ACE78",
"%	c #A3D37F",
"&	c #A7D582",
"*	c #93C974",
"=	c #8EC674",
"-	c #8BC475",
";	c #B8E090",
">	c #C3E799",
",	c #80BC75",
"'	c #77B675",
")	c #95CB73",
"!	c #D1F0A4",
"~	c #69AD76",
"{	c #8BC474",
"]	c #9CCE7F",
"^	c #B6DE90",
"/	c #76B675",
"(	c #86BF79",
"_	c #A0D17F",
":	c #B3DB90",
"<	c #BDE199",
"[	c #93C978",
"}	c #90C480",
"|	c #8EC284",
"1	c #68AD75",
"2	c #93CA73",
"3	c #ADD889",
"4	c #B7DE93",
"5	c #BCE199",
"6	c #9ECC89",
"7	c #8DC183",
"8	c #66AC75",
"9	c #AED691",
"0	c #8DC280",
"a	c #8CC379",
"b	c #384040",
"c	c #B87020",
"d	c #000000",
"e	c #486060",
"f	c #F8B020",
"g	c #91C772",
"h	c #282838",
"i	c #D8A078",
"j	c #784040",
"k	c #C03838",
"l	c #B8B0D0",
"m	c #E8E8F8",
"n	c #9088A8",
"o	c #F8D0B8",
"p	c #50875A",
"                                                                ",
"                .++.                                            ",
"@@@@@@@@@@@@################@@@@################@@@@@@@         ",
"               $%&&%$                              *=--=*       ",
"             . %;>>;% .                            =,'',=       ",
"             ) &>!!>& +     .++.                   -'~~'-       ",
"             + &>!!>& +                            -'~~'-       ",
"           *={-]^>>;% .    $%&&%$                  =,'',=       ",
"           =,/'(]&&%$    . %;>>;% .                *=--=*       ",
"           -'~~'-        ) &>!!>& +     .++.                    ",
"           -'~~/{+).     + &>!!>& +                             ",
"           =,'',=      *={-]^>>;% .    $%&&%$                   ",
"           *=--=*      =,/'(]&&%$    . %;>>;% .                 ",
"    .++.               -'~~'-        + &>!!>& +                 ",
"                       -'~~/{+).     + &>!!>& +                 ",
"   $%&&%$              =,'',=          _:<<:_                   ",
" . %;>>;% .            *=--=*          [}||}[                   ",
" + &>!!>& +                            -'~~'-           .++.    ",
" + &>!!>& +                            {/11/{                   ",
"   _:<<:_                              =,'',=          $%&&%$   ",
"   [}||}[                              *=--=*        . %;>>;% . ",
"   -'~~'-                                            + &>!!>& + ",
"   {/11/{                                            + &>!!>& + ",
"   =,'',=                  *=--=*                      _:<<:_   ",
"   *=--=*                  =,'',=                      [}||}[   ",
"            .++.           -'~~'-           .++.       -'~~'-   ",
"                           -'~~'-                      {/11/{   ",
"           $%&&%$          =,'',=          $%&&%$      =,'',=   ",
"         . %;>>;% .        *=--=*        . %;>>;% .    *=--=*   ",
"         + &>!!>& +                      + &>!!>& +         .++.",
"         + &>!!>& +                      + &>!!>& +             ",
"           _:<<:_                          _:<<:_          $%&&%",
"           [}||}[                          [}||}[        . %;>>;",
"           -'~~'-           .++.           -'~~'-        ) &>!!>",
"           {/11/{                          {/11/{        + &>!!>",
"           =,'',=          $%&&%$          =,'',=      *={-]^>>;",
"           *=--=*        . %;>>;% .        *=--=*      =,/'(]&&%",
"    .++.                .2+&>!!>& + .++.               -'~~'-   ",
"                         + &>!!>& +                    -'~~/{+).",
"   $%&&%$              $%&&34<5:_  $%&&%$              =,'',=   ",
" . %;>>;% .          . %;>>46|7}[. %;>>;% .            *=--=*   ",
" + &>!!>& +          + &>!!<|~1'-+ &>!!>& +                     ",
" + &>!!>& +          + &>!!5718/{+ &>!!>& +                     ",
"   _:<<:_              _:<<90'/,=  _:<<:_                       ",
"   [}||}[              [}||0a-{=*  [}||}[                       ",
"   -'~~'-              -'~~'-      -'~~'-           .++.        ",
"   {/11/{              {/11/{ #    {/11/{                       ",
"   =,'',=              =,'',=      =,'',=          $%&&%$       ",
"   *=--=*              *=--=*      *=--=*        . %;>>;% .     ",
"            .++.                            .++. + &>!!>& +     ",
"                                                 + &>!!>& +     ",
"           $%&&%$                          $%&&%$  _:<<:_       ",
"         . %;>>;% .                      . %;>>;% .[}||}[       ",
"         + &>!!>& +                      + &>!!>& +-'~~'-       ",
"         + &>!!>& +                      + &>!!>& +{/11/{       ",
"           _:<<:_          *=--=*          _:<<:_  =,'',=       ",
"           [}||}[          =,'',=          [}||}[  *=--=*       ",
"           -'~~'-          -'~~'-          -'~~'-               ",
"           {/11/{         bbccccccccccbb   {/11/{               ",
"           =,'',=         bbccccccccccbb   =,'',=               ",
"           *=--=*     ddbbeeffffffffffeebbdd=--=*               ",
"             ##       ddbbeeffffffffffeebbdd ##                 ",
"                    ddbbeeeeffffffffffeeeebbdd                  ",
"           g        ddbbeeeeffffffffffeeeebbdd                  ",
"                    ddeeeeffffffffffffffeeeedd                  ",
"                .++.ddeeeeffffffffffffffeeeedd                  ",
"@@@@@@@@@@@@######ddbbeeeeffffffffffffffeeeebbdd@@@@@@@         ",
"               $%&ddbbeeeeffffffffffffffeeeebbdd   *=--=*       ",
"             . %;>ddbbeeeeffffffffffffffeeeebbdd   =,'',=       ",
"             ) &>!ddbbeeeeffffffffffffffeeeebbdd   -'~~'-       ",
"             + &>!ddbbbbeeffffffffffffffeebbbbdd   -'~~'-       ",
"           *={-]^>ddbbbbeeffffffffffffffeebbbbdd   =,'',=       ",
"           =,/'(]&ddbbbbbbccffffffffffccbbbbbbdd   *=--=*       ",
"           -'~~'- ddbbbbbbccffffffffffccbbbbbbdd                ",
"           -'~~/{+ddhhbbbbccccccccccccccbbbbhhdd                ",
"           =,'',= ddhhbbbbccccccccccccccbbbbhhdd                ",
"           *=--=ddiiddhhbbbbccccccccccbbbbhhddiidd              ",
"    .++.        ddiiddhhbbbbccccccccccbbbbhhddiidd              ",
"                ddiiddeehhhhbbbbbbbbbbhhhheeddiidd              ",
"   $%&&%$       ddiiddeehhhhbbbbbbbbbbhhhheeddiidd              ",
" . %;>>;% .       ddjjddeeeeeeeeeeeeeeeeeeddjjdd                ",
" + &>!!>& +       ddjjddeeeeeeeeeeeeeeeeeeddjjdd        .++.    ",
" + &>!!>& +     ddiiddddbbeeeeeeeeeeeeeebbdddd                  ",
"   _:<<:_       ddiiddddbbeeeeeeeeeeeeeebbdddd         $%&&%$   ",
"   [}||}[       ddiikkjjdddddddddddddddddddd*        . %;>>;% . ",
"   -'~~'-       ddiikkjjdddddddddddddddddddd         + &>!!>& + ",
"   {/11/{         ddkkkkhhbbbbllllllbbbbhh           + &>!!>& + ",
"   =,'',=         ddkkkkhhbbbbllllllbbbbhh             _:<<:_   ",
"   *=--=*           ddkkjjjjjjjjddbbmmnnjjdd           [}||}[   ",
"            .++.    ddkkjjjjjjjjddbbmmnnjjdd.++.       -'~~'-   ",
"                      ddjjjjddbbmmmmlllldddd           {/11/{   ",
"           $%&&%$     ddjjjjddbbmmmmlllldddd%&&%$      =,'',=   ",
"         . %;>>;% .   ddjjddnnlllllllleeddjj;>>;% .    *=--=*   ",
"         + &>!!>& +   ddjjddnnlllllllleeddjj>!!>& +         .++.",
"         + &>!!>& +   eeddddnnlllleeeedddddddd!>& +             ",
"           _:<<:_     eeddddnnlllleeeedddddddd<:_          $%&&%",
"           [}||}[     ddeeeeddeeeeeeddeeeeoooodd[        . %;>>;",
"           -'~~'-     ddeeeeddeeeeeeddeeeeoooodd-        ) &>!!>",
"           {/11/{     ddeeeeddddddjjjjddjjiiiidd{        + &>!!>",
"           =,'',=  pppddeeeeddddddjjjjddjjiiiidd=      *={-]^>>;",
"           *=--=*  pppddbbbbbbddjjddppppppdddd-=*      =,/'(]&&%",
"    .++.         pppppddbbbbbbddjjddppppppdddd         -'~~'-   ",
"                 pppppppddooooddppppppppppppp          -'~~/{+).",
"   $%&&%$        pppppppddooooddppppppppppppp          =,'',=   ",
" . %;>>;% .      pppppppddllllddppppppppppppp          *=--=*   ",
" + &>!!>& +      pppppppddllllddppppppppppppp                   ",
" + &>!!>& +      pppppppppddddppppppppppppppp                   ",
"   _:<<:_          pppppppddddppppppppppppp                     ",
"   [}||}[          pppppppppppppppppppppppp                     ",
"   -'~~'-            pppppppppppppppppppp           .++.        ",
"   {/11/{            pppppppppppppppppppp                       ",
"   =,'',=              =,'',=      =,'',=          $%&&%$       ",
"   *=--=*              *=--=*      *=--=*        . %;>>;% .     ",
"            .++.                            .++. + &>!!>& +     ",
"                                                 + &>!!>& +     ",
"           $%&&%$                          $%&&%$  _:<<:_       ",
"         . %;>>;% .                      . %;>>;% .[}||}[       ",
"         + &>!!>& +                      + &>!!>& +-'~~'-       ",
"         + &>!!>& +                      + &>!!>& +{/11/{       ",
"           _:<<:_          *=--=*          _:<<:_  =,'',=       ",
"           [}||}[          =,'',=          [}||}[  *=--=*       ",
"           -'~~'-          -'~~'-          -'~~'-               ",
"           {/11/{          -'~~'-          {/11/{               ",
"           =,'',=          =,'',=          =,'',=               ",
"           *=--=*          *=--=*          *=--=*               ",
"             ##                              ##                 ",
"                                                                ",
"           g                                                    "};
