/* XPM */
static char * player_2_xpm[] = {
"64 128 56 1",
" 	c #95CB74",
".	c #94CB74",
"+	c #94CB73",
"@	c #95CC74",
"#	c #96CC74",
"$	c #9ACE78",
"%	c #A3D37F",
"&	c #A7D582",
"*	c #93C974",
"=	c #8EC674",
"-	c #8BC475",
";	c #B8E090",
">	c #C3E799",
",	c #80BC75",
"'	c #77B675",
")	c #95CB73",
"!	c #D1F0A4",
"~	c #69AD76",
"{	c #8BC474",
"]	c #9CCE7F",
"^	c #B6DE90",
"/	c #76B675",
"(	c #86BF79",
"_	c #A0D17F",
":	c #B3DB90",
"<	c #BDE199",
"[	c #93C978",
"}	c #90C480",
"|	c #8EC284",
"1	c #68AD75",
"2	c #93CA73",
"3	c #ADD889",
"4	c #B7DE93",
"5	c #BCE199",
"6	c #9ECC89",
"7	c #8DC183",
"8	c #66AC75",
"9	c #AED691",
"0	c #8DC280",
"a	c #8CC379",
"b	c #384040",
"c	c #B87020",
"d	c #000000",
"e	c #486060",
"f	c #F8B020",
"g	c #282838",
"h	c #91C772",
"i	c #D8A078",
"j	c #784040",
"k	c #B8B0D0",
"l	c #F06848",
"m	c #C03838",
"n	c #E8E8F8",
"o	c #9088A8",
"p	c #F8D0B8",
"q	c #50875A",
"                                                                ",
"                .++.                                            ",
"@@@@@@@@@@@@################@@@@################@@@@@@@         ",
"               $%&&%$                              *=--=*       ",
"             . %;>>;% .                            =,'',=       ",
"             ) &>!!>& +     .++.                   -'~~'-       ",
"             + &>!!>& +                            -'~~'-       ",
"           *={-]^>>;% .    $%&&%$                  =,'',=       ",
"           =,/'(]&&%$    . %;>>;% .                *=--=*       ",
"           -'~~'-        ) &>!!>& +     .++.                    ",
"           -'~~/{+).     + &>!!>& +                             ",
"           =,'',=      *={-]^>>;% .    $%&&%$                   ",
"           *=--=*      =,/'(]&&%$    . %;>>;% .                 ",
"    .++.               -'~~'-        + &>!!>& +                 ",
"                       -'~~/{+).     + &>!!>& +                 ",
"   $%&&%$              =,'',=          _:<<:_                   ",
" . %;>>;% .            *=--=*          [}||}[                   ",
" + &>!!>& +                            -'~~'-           .++.    ",
" + &>!!>& +                            {/11/{                   ",
"   _:<<:_                              =,'',=          $%&&%$   ",
"   [}||}[                              *=--=*        . %;>>;% . ",
"   -'~~'-                                            + &>!!>& + ",
"   {/11/{                                            + &>!!>& + ",
"   =,'',=                  *=--=*                      _:<<:_   ",
"   *=--=*                  =,'',=                      [}||}[   ",
"            .++.           -'~~'-           .++.       -'~~'-   ",
"                           -'~~'-                      {/11/{   ",
"           $%&&%$          =,'',=          $%&&%$      =,'',=   ",
"         . %;>>;% .        *=--=*        . %;>>;% .    *=--=*   ",
"         + &>!!>& +                      + &>!!>& +         .++.",
"         + &>!!>& +                      + &>!!>& +             ",
"           _:<<:_                          _:<<:_          $%&&%",
"           [}||}[                          [}||}[        . %;>>;",
"           -'~~'-           .++.           -'~~'-        ) &>!!>",
"           {/11/{                          {/11/{        + &>!!>",
"           =,'',=          $%&&%$          =,'',=      *={-]^>>;",
"           *=--=*        . %;>>;% .        *=--=*      =,/'(]&&%",
"    .++.                .2+&>!!>& + .++.               -'~~'-   ",
"                         + &>!!>& +                    -'~~/{+).",
"   $%&&%$              $%&&34<5:_  $%&&%$              =,'',=   ",
" . %;>>;% .          . %;>>46|7}[. %;>>;% .            *=--=*   ",
" + &>!!>& +          + &>!!<|~1'-+ &>!!>& +                     ",
" + &>!!>& +          + &>!!5718/{+ &>!!>& +                     ",
"   _:<<:_              _:<<90'/,=  _:<<:_                       ",
"   [}||}[              [}||0a-{=*  [}||}[                       ",
"   -'~~'-              -'~~'-      -'~~'-           .++.        ",
"   {/11/{              {/bbccccccccccbb/{                       ",
"   =,'',=              =,bbccccccccccbb,=          $%&&%$       ",
"   *=--=*            ddbbeeffffffffffeebbdd      . %;>>;% .     ",
"            .++.     ddbbeeffffffffffeebbdd .++. + &>!!>& +     ",
"                   ddbbeeeeffffffffffeeeebbdd    + &>!!>& +     ",
"           $%&&%$  ddbbeeeeffffffffffeeeebbdd&&%$  _:<<:_       ",
"         . %;>>;% .ddeeeeffffffffffffffeeeedd>>;% .[}||}[       ",
"         + &>!!>& +ddeeeeffffffffffffffeeeedd!!>& +-'~~'-       ",
"         + &>!!>&ddbbeeeeffffffffffffffeeeebbdd>& +{/11/{       ",
"           _:<<:_ddbbeeeeffffffffffffffeeeebbdd:_  =,'',=       ",
"           [}||}[ddbbeeeeffffffffffffffeeeebbdd}[  *=--=*       ",
"           -'~~'-ddbbeeeeffffffffffffffeeeebbdd'-               ",
"           {/11/{ddbbbbeeffffffffffffffeebbbbdd/{               ",
"           =,'',=ddbbbbeeffffffffffffffeebbbbdd,=               ",
"           *=--=*ddbbbbbbccffffffffffccbbbbbbdd=*               ",
"             ##  ddbbbbbbccffffffffffccbbbbbbdd                 ",
"                 ddggbbbbccccccccccccccbbbbggdd                 ",
"           h     ddggbbbbccccccccccccccbbbbggdd                 ",
"               ddiiddggbbbbccccccccccbbbbggddiidd               ",
"               ddiiddggbbbbccccccccccbbbbggddiidd               ",
"@@@@@@@@@@@@###ddiiddeeggggbbbbbbbbbbggggeeddiidd@@@@@@         ",
"               ddiiddeeggggbbbbbbbbbbggggeeddiidd  *=--=*       ",
"             . %;ddjjddeeeeeeeeeeeeeeeeeeddjjdd    =,'',=       ",
"             ) &>ddjjddeeeeeeeeeeeeeeeeeeddjjdd    -'~~'-       ",
"             + &>!!ddddbbeeeeeeeeeeeeeebbdddd      -'~~'-       ",
"           *={-]^>>ddddbbeeeeeeeeeeeeeebbdddd      =,'',=       ",
"           =,/'(]&&%$dddddddddddddddddddddd        *=--=*       ",
"           -'~~'-    dddddddddddddddddddddd.                    ",
"           -'~~/{+). ddbbddkkkkkkkkkkddbbdd                     ",
"           =,'',=    ddbbddkkkkkkkkkkddbbdd%$                   ",
"           *=--=*  ddllggbbbbkkkkkkbbbbgglldd .                 ",
"    .++.           ddllggbbbbkkkkkkbbbbgglldd +                 ",
"                 ddmmllmmjjjjjjddbbnnoojjllmmdd                 ",
"   $%&&%$        ddmmllmmjjjjjjddbbnnoojjllmmdd                 ",
" . %;>>;% .    jjppjjbbmmjjddbbnnnnkkkkddbbjjppjj               ",
" + &>!!>& +    jjppjjbbmmjjddbbnnnnkkkkddbbjjppjj       .++.    ",
" + &>!!>& +    ddppppddjjddookkkkkkkkeeddddppppdd               ",
"   _:<<:_      ddppppddjjddookkkkkkkkeeddddppppdd      $%&&%$   ",
"   [}||}[        ddddeeddddookkkkeeeeddddeedddd      . %;>>;% . ",
"   -'~~'-        ddddeeddddookkkkeeeeddddeedddd      + &>!!>& + ",
"   {/11/{         qqqddeeeeddeeeeeeddeeeeddqqq       + &>!!>& + ",
"   =,'',=         qqqddeeeeddeeeeeeddeeeeddqqq         _:<<:_   ",
"   *=--=*         qqqddkkkkddddddddddkkkkddqqq         [}||}[   ",
"            .++.  qqqddkkkkddddddddddkkkkddqqq+.       -'~~'-   ",
"                  qqqqqddddqqqqqqqqqqddddqqqqq         {/11/{   ",
"           $%&&%$   qqqddddqqqqqqqqqqddddqqq%&&%$      =,'',=   ",
"         . %;>>;% . qqqqqqqqqqqqqqqqqqqqqqqq;>>;% .    *=--=*   ",
"         + &>!!>& +   qqqqqqqqqqqqqqqqqqqq &>!!>& +         .++.",
"         + &>!!>& +   qqqqqqqqqqqqqqqqqqqq &>!!>& +             ",
"           _:<<:_     qqqqqqqqqqqqqqqqqqqq _:<<:_          $%&&%",
"           [}||}[                          [}||}[        . %;>>;",
"           -'~~'-           .++.           -'~~'-        ) &>!!>",
"           {/11/{                          {/11/{        + &>!!>",
"           =,'',=          $%&&%$          =,'',=      *={-]^>>;",
"           *=--=*        . %;>>;% .        *=--=*      =,/'(]&&%",
"    .++.                .2+&>!!>& + .++.               -'~~'-   ",
"                         + &>!!>& +                    -'~~/{+).",
"   $%&&%$              $%&&34<5:_  $%&&%               =,'',=   ",
" . %;>>;% .          . %;>>46|7}[. %;>>;  .            *=--=*   ",
" + &>!!>& +          + &>!!<|~1'-+ &>!!>  +                     ",
" + &>!!>& +          + &>!!5718/{+ &>!!>& +                     ",
"   _:<<:_              _:<<90'/,=  _:<<:_                       ",
"   [}||}[              [}||0a-{=*  [}||}[                       ",
"   -'~~'-              -'~~'-      -'~~'-           .++.        ",
"   {/11/{              {/11/{ #    {/11/                        ",
"   =,'',=              =,'',=      =,'',=          $%&&%$       ",
"   *=--=*              *=--=*      *=--=*        . %;>>;% .     ",
"            .++.                            .++. + &>!!>& +     ",
"                                                 + &>!!>& +     ",
"           $%&&%$                          $%&&%$  _:<<:_       ",
"         . %;>>;% .                      . %;>>;% .[}||}[       ",
"         + &>!!>& +                      + &>!!>& +-'~~'-       ",
"         + &>!!>& +                      + &>!!>& +{/11/{       ",
"           _:<<:_          *=--=*          _:<<:_  =,'',=       ",
"           [}||}[          =,'',=          [}||}[  *=--=*       ",
"           -'~~'-          -'~~'-          -'~~'-               ",
"           {/11/{          -'~~'-          {/11/{               ",
"           =,'',=          =,'',=          =,'',=               ",
"           *=--=*          *=--=*          *=--=*               ",
"             ##                              ##                 ",
"                                                                ",
"           h                                                    "};
