/* XPM */
static char * player_0_xpm[] = {
"64 64 48 1",
" 	c #95CB74",
".	c #94CB74",
"+	c #94CB73",
"@	c #95CC74",
"#	c #96CC74",
"$	c #9ACE78",
"%	c #A3D37F",
"&	c #A7D582",
"*	c #93C974",
"=	c #8EC674",
"-	c #8BC475",
";	c #B8E090",
">	c #C3E799",
",	c #80BC75",
"'	c #77B675",
")	c #95CB73",
"!	c #D1F0A4",
"~	c #69AD76",
"{	c #8BC474",
"]	c #9CCE7F",
"^	c #B6DE90",
"/	c #76B675",
"(	c #86BF79",
"_	c #384040",
":	c #B87020",
"<	c #A0D17F",
"[	c #B3DB90",
"}	c #BDE199",
"|	c #000000",
"1	c #486060",
"2	c #F8B020",
"3	c #8EC284",
"4	c #90C480",
"5	c #93C978",
"6	c #68AD75",
"7	c #282838",
"8	c #D8A078",
"9	c #784040",
"0	c #B8B0D0",
"a	c #F06848",
"b	c #C03838",
"c	c #E8E8F8",
"d	c #9088A8",
"e	c #F8D0B8",
"f	c #50875A",
"g	c #91C772",
"h	c #8ABF6E",
"i	c #86BB6C",
"                                                                ",
"                .++.                                            ",
"@@@@@@@@@@@@################@@@@################@@@@@@@         ",
"               $%&&%$                              *=--=*       ",
"             . %;>>;% .                            =,'',=       ",
"             ) &>!!>& +     .++.                   -'~~'-       ",
"             + &>!!>& +                            -'~~'-       ",
"           *={-]^>>;% .    $%&&%$                  =,'',=       ",
"           =,/'(]&&%$    . %;>>;% .                *=--=*       ",
"           -'~~'-        ) &>!!>& +     .++.                    ",
"           -'~~/{+).     + &>!!>& +                             ",
"           =,'',=      *={-]^>>;% .    $%&&%$                   ",
"           *=--=*      =,/'(]&&%$    . %;>>;% .                 ",
"    .++.               -'~~'-        + &>!!>& +                 ",
"                       -__::::::::::__ &>!!>& +                 ",
"   $%&&%$              =__::::::::::__ <[}}[<                   ",
" . %;>>;% .         ||__11222222222211__||345                   ",
" + &>!!>& +         ||__11222222222211__||~'-           .++.    ",
" + &>!!>& +       ||__111122222222221111__||{                   ",
"   <[}}[<         ||__111122222222221111__||=          $%&&%$   ",
"   543345         ||1111222222222222221111||*        . %;>>;% . ",
"   -'~~'-         ||1111222222222222221111||         + &>!!>& + ",
"   {/66/{       ||__1111222222222222221111__||       + &>!!>& + ",
"   =,'',=       ||__1111222222222222221111__||         <[}}[<   ",
"   *=--=*       ||__1111222222222222221111__||         543345   ",
"            .++.||__1111222222222222221111__||+.       -'~~'-   ",
"                ||____112222222222222211____||         {/66/{   ",
"           $%&&%||____112222222222222211____||&%$      =,'',=   ",
"         . %;>>;||______::2222222222::______||>;% .    *=--=*   ",
"         + &>!!>||______::2222222222::______||!>& +         .++.",
"         + &>!!>||77____::::::::::::::____77||!>& +             ",
"           <[}}[||77____::::::::::::::____77||}[<          $%&&%",
"           543||88||77____::::::::::____77||88||5        . %;>>;",
"           -'~||88||77____::::::::::____77||88||-        ) &>!!>",
"           {/6||88||117777__________777711||88||{        + &>!!>",
"           =,'||88||117777__________777711||88||=      *={-]^>>;",
"           *=--=||99||111111111111111111||99||-=*      =,/'(]&&%",
"    .++.        ||99||111111111111111111||99||         -'~~'-   ",
"                  ||||__11111111111111__||||           -'~~/{+).",
"   $%&&%$         ||||__11111111111111__||||           =,'',=   ",
" . %;>>;% .         ||||||||||||||||||||||.            *=--=*   ",
" + &>!!>& +         ||||||||||||||||||||||+                     ",
" + &>!!>& +         ||__||0000000000||__||+                     ",
"   <[}}[<           ||__||0000000000||__||                      ",
"   543345         ||aa77____000000____77aa||                    ",
"   -'~~'-         ||aa77____000000____77aa||        .++.        ",
"   {/66/{       ||bbaabb999999||__ccdd99aabb||                  ",
"   =,'',=       ||bbaabb999999||__ccdd99aabb||     $%&&%$       ",
"   *=--=*     99ee99__bb99||__cccc0000||__99ee99 . %;>>;% .     ",
"            .+99ee99__bb99||__cccc0000||__99ee99 + &>!!>& +     ",
"              ||eeee||99||dd0000000011||||eeee|| + &>!!>& +     ",
"           $%&||eeee||99||dd0000000011||||eeee||$  <[}}[<       ",
"         . %;>>;||||11||||dd00001111||||11||||>;% .543345       ",
"         + &>!!>||||11||||dd00001111||||11||||!>& +-'~~'-       ",
"         + &>!!>&fff||1111||111111||1111||fff!!>& +{/66/{       ",
"           <[}}[<fff||1111||111111||1111||fff}}[<  =,'',=       ",
"           543345fff||0000||||||||||0000||fff3345  *=--=*       ",
"           -'~~'-fff||0000||||||||||0000||fff~~'-               ",
"           {/66/{fffff||||ffffffffff||||fffff66/{               ",
"           =,'',=  fff||||ffffffffff||||fff=,'',=               ",
"           *=--=*  ffffffffffffffffffffffff*=--=*               ",
"             ##      ffffffffffffffffffff    ##                 ",
"                     ffffffffffffffffffff                       ",
"           ghiihg    ffffffffffffffffffff  ghiihg               "};
