/* XPM */
static char * player_5_xpm[] = {
"128 64 59 1",
" 	c #95CB74",
".	c #94CB74",
"+	c #94CB73",
"@	c #95CC74",
"#	c #96CC74",
"$	c #9ACE78",
"%	c #A3D37F",
"&	c #A7D582",
"*	c #93C974",
"=	c #8EC674",
"-	c #8BC475",
";	c #B8E090",
">	c #C3E799",
",	c #80BC75",
"'	c #77B675",
")	c #95CB73",
"!	c #D1F0A4",
"~	c #69AD76",
"{	c #8BC474",
"]	c #9CCE7F",
"^	c #B6DE90",
"/	c #76B675",
"(	c #86BF79",
"_	c #000000",
":	c #384040",
"<	c #486060",
"[	c #A0D17F",
"}	c #B3DB90",
"|	c #BDE199",
"1	c #F8B020",
"2	c #93C978",
"3	c #90C480",
"4	c #8EC284",
"5	c #B87020",
"6	c #68AD75",
"7	c #784040",
"8	c #282838",
"9	c #D8A078",
"0	c #9890B0",
"a	c #E8E8F8",
"b	c #93CA73",
"c	c #F8D0B8",
"d	c #ADD889",
"e	c #B7DE93",
"f	c #BCE199",
"g	c #9ECC89",
"h	c #8DC183",
"i	c #66AC75",
"j	c #B8B0D0",
"k	c #AED691",
"l	c #8DC280",
"m	c #8CC379",
"n	c #F06848",
"o	c #C03838",
"p	c #9088A8",
"q	c #50875A",
"r	c #91C772",
"s	c #8ABF6E",
"t	c #86BB6C",
"                                                                                                                                ",
"                .++.                                                            .++.                                            ",
"@@@@@@@@@@@@################@@@@################@@@@@@@         @@@@@@@@@@@@################@@@@################@@@@@@@         ",
"               $%&&%$                              *=--=*                      $%&&%$                              *=--=*       ",
"             . %;>>;% .                            =,'',=                    . %;>>;% .                            =,'',=       ",
"             ) &>!!>& +     .++.                   -'~~'-                    ) &>!!>& +     .++.                   -'~~'-       ",
"             + &>!!>& +                            -'~~'-                    + &>!!>& +                            -'~~'-       ",
"           *={-]^>>;% .    $%&&%$                  =,'',=                  *={-]^>>;% .    $%&&%$                  =,'',=       ",
"           =,/'(]&&%$    . %;>>;% .                *=--=*                  =,/'(]&&%$    . %;>>;% .                *=--=*       ",
"           -'~~'-        ) &>!!>& +     .++.                               -'~~'-        ) &>!!>& +     .++.                    ",
"           -'~~/{+).     + &>!!>& +                                        -'~~/{+).     + &>!!>& +                             ",
"           =,'',=      *={-]^>>;% .    $%&&%$                              =,'',=      *={-]^>>;% .    $%&&%$                   ",
"           *=--=*      =,/'(]&&%$    . %;>__________                       *=--=*      =,/'(]&&%$    . %;>>;% .                 ",
"    .++.               -'~~'-        + &>!__________                .++.               -'~~'-        + &>!!>& +                 ",
"                       -'~~/{+).     +____::<<<<<<<<____                               -'~~/{+).     + &>!!>& +                 ",
"   $%&&%$              =,'',=         ____::<<<<<<<<____           $%&&%$              =,'',=          [}||}[                   ",
" . %;>>;% .            *=--=*       __::1111111111111111__       . %;>>;% .            *=--=*          234432                   ",
" + &>!!>& +                         __::1111111111111111__+.     + &>!!>& +                            -'~~'-           .++.    ",
" + &>!!>& +                     ____5511111111111111111111__     + &>!!>& +                            {/66/{                   ",
"   [}||}[                       ____5511111111111111111111__$      [}||}[                              =,'',=          $%&&%$   ",
"   234432                     __<<__551111111111111111111177% .    234432                              *=--=*        . %;>>;% . ",
"   -'~~'-                     __<<__551111111111111111111177& +    -'~~'-                                            + &>!!>& + ",
"   {/66/{                   __<<<<::555511<<<<<<<<<<11115555::::   {/66/{                                            + &>!!>& + ",
"   =,'',=                  *__<<<<::555511<<<<<<<<<<11115555::::   =,'',=                  *=--=*                      [}||}[   ",
"   *=--=*                  =__<<<<::5555::::<<<<<<<<::5555::<<<<:: *=--=*                  =,'',=                      234432   ",
"            .++.           -__<<<<::5555::::<<<<<<<<::5555::<<<<::          .++.           -'~~'-           .++.       -'~~'-   ",
"                           -__<<<<::55::::::::::::::::::55::<<<<::                         -'~~'-                      {/66/{   ",
"           $%&&%$          =__<<<<::55::::::::::::::::::55::<<<<::         $%&&%$          =,'',=          $%&&%$      =,'',=   ",
"         . %;>>;% .        *__88<<<<__::::::::::::::::::5555::<<         . %;>>;% .        *=--=*        . %;>>;% .    *=--=*   ",
"         + &>!!>& +         __88<<<<__::::::::::::::::::5555::<<         + &>!!>& +                      + &>!!>& +         .++.",
"         + &>!!>& +           __::<<<<____::::::::::::::55__<<::         + &>!!>& +                      + &>!!>& +             ",
"           [}||}[             __::<<<<____::::::::::::::55__<<::           [}||}[                          [}||}[          $%&&%",
"           234432               ____8888888888888888887777__::>;           234432                          234432        . %;>>;",
"           -'~~'-           .++.____8888888888888888887777__::!>           -'~~'-           .++.           -'~~'-        ) &>!!>",
"           {/66/{                 __::::::::::99::9900__9977>!!>           {/66/{                          {/66/{        + &>!!>",
"           =,'',=          $%&&%$ __::::::::::99::9900__9977^>>;           =,'',=          $%&&%$          =,'',=      *={-]^>>;",
"           *=--=*        . %;>>;% __::::::::99999999aa__9977]&&%           *=--=*        . %;>>;% .        *=--=*      =,/'(]&&%",
"    .++.                .b+&>!!>& __::::::::99999999aa__9977-       .++.                .b+&>!!>& + .++.               -'~~'-   ",
"                         + &>!!>& + ____::::999999cccccccc99{+).                         + &>!!>& +                    -'~~/{+).",
"   $%&&%$              $%&&de|f}[  $____::::999999cccccccc99=      $%&&%$              $%&&de|f}[  $%&&%$              =,'',=   ",
" . %;>>;% .          . %;>>eg4h32. %;>__007777999999cccc99-=*    . %;>>;% .          . %;>>eg4h32. %;>>;% .            *=--=*   ",
" + &>!!>& +          + &>!!|4~6'-+ &>!__007777999999cccc99       + &>!!>& +          + &>!!|4~6'-+ &>!!>& +                     ",
" + &>!!>& +          + &>!!fh6i/{+ &>!__aajjjj__777700           + &>!!>& +          + &>!!fh6i/{+ &>!!>& +                     ",
"   [}||}[              [}||kl'/,=  [}|__aajjjj__777700             [}||}[              [}||kl'/,=  [}||}[                       ",
"   234432              2344lm-{=*  2__jj::jj__::<<88aa00           234432              2344lm-{=*  234432                       ",
"   -'~~'-              -'~~'-      -__jj::jj__::<<88aa00           -'~~'-              -'~~'-      -'~~'-           .++.        ",
"   {/66/{              {/66/{ #    {__jjaa::__nnnn__7700           {/66/{              {/66/{ #    {/66/{                       ",
"   =,'',=              =,'',=      =__jjaa::__nnnn__7700$          =,'',=              =,'',=      =,'',=          $%&&%$       ",
"   *=--=*              *=--=*      *__jjaa<<__oooo__oo77% .        *=--=*              *=--=*      *=--=*        . %;>>;% .     ",
"            .++.                    __jjaa<<__oooo__oo77& +                 .++.                            .++. + &>!!>& +     ",
"                                    __pp<<__99cc__77oo77770000                                                   + &>!!>& +     ",
"           $%&&%$                  q__pp<<__99cc__77oo77770000             $%&&%$                          $%&&%$  [}||}[       ",
"         . %;>>;% .                qqq______99cc__<<<<cc77aa__           . %;>>;% .                      . %;>>;% .234432       ",
"         + &>!!>& +              qqqqq______99cc__<<<<cc77aa__           + &>!!>& +                      + &>!!>& +-'~~'-       ",
"         + &>!!>& +              qqqqq__::::________::::00__q            + &>!!>& +                      + &>!!>& +{/66/{       ",
"           [}||}[          *=--=*qqqqq__::::________::::00__q              [}||}[          *=--=*          [}||}[  =,'',=       ",
"           234432          =,'',=qqqqqqq____qqqqqqqqqq____qqq              234432          =,'',=          234432  *=--=*       ",
"           -'~~'-          -'~~'-qqqqqqq____qqqqqqqqqq____qqq              -'~~'-          -'~~'-          -'~~'-               ",
"           {/66/{          -'~~'-qqqqqqqqqqqqqqqqqqqqqqqqqqqq              {/66/{          -'~~'-          {/66/{               ",
"           =,'',=          =,'',=  qqqqqqqqqqqqqqqqqqqqqqqq                =,'',=          =,'',=          =,'',=               ",
"           *=--=*          *=--=*  qqqqqqqqqqqqqqqqqqqqqqqq                *=--=*          *=--=*          *=--=*               ",
"             ##                      qqqqqqqqqqqqqqqqqqqq                    ##                              ##                 ",
"                                     qqqqqqqqqqqqqqqqqqqq                                                                       ",
"                                           rsttsr                                                                               "};
