/* XPM */
static char * player_7_xpm[] = {
"128 64 56 1",
" 	c #95CB74",
".	c #94CB74",
"+	c #94CB73",
"@	c #95CC74",
"#	c #96CC74",
"$	c #9ACE78",
"%	c #A3D37F",
"&	c #A7D582",
"*	c #93C974",
"=	c #8EC674",
"-	c #8BC475",
";	c #B8E090",
">	c #C3E799",
",	c #80BC75",
"'	c #77B675",
")	c #95CB73",
"!	c #D1F0A4",
"~	c #69AD76",
"{	c #8BC474",
"]	c #9CCE7F",
"^	c #B6DE90",
"/	c #76B675",
"(	c #86BF79",
"_	c #000000",
":	c #384040",
"<	c #486060",
"[	c #A0D17F",
"}	c #B3DB90",
"|	c #BDE199",
"1	c #93C978",
"2	c #90C480",
"3	c #8EC284",
"4	c #F8B020",
"5	c #68AD75",
"6	c #B87020",
"7	c #784040",
"8	c #282838",
"9	c #D8A078",
"0	c #9890B0",
"a	c #E8E8F8",
"b	c #93CA73",
"c	c #F8D0B8",
"d	c #ADD889",
"e	c #B7DE93",
"f	c #BCE199",
"g	c #9ECC89",
"h	c #8DC183",
"i	c #66AC75",
"j	c #B8B0D0",
"k	c #AED691",
"l	c #8DC280",
"m	c #8CC379",
"n	c #C03838",
"o	c #F06848",
"p	c #9088A8",
"q	c #50875A",
"                                                                                                                                ",
"                .++.                                                            .++.                                            ",
"@@@@@@@@@@@@################@@@@################@@@@@@@         @@@@@@@@@@@@################@@@@################@@@@@@@         ",
"               $%&&%$                              *=--=*                      $%&&%$                              *=--=*       ",
"             . %;>>;% .                            =,'',=                    . %;>>;% .                            =,'',=       ",
"             ) &>!!>& +     .++.                   -'~~'-                    ) &>!!>& +     .++.                   -'~~'-       ",
"             + &>!!>& +                            -'~~'-                    + &>!!>& +                            -'~~'-       ",
"           *={-]^>>;% .    $%&&%$                  =,'',=                  *={-]^>>;% .    $%&&%$                  =,'',=       ",
"           =,/'(]&&%$    . %;>>;% .                *=--=*                  =,/'(]&&%$    . %;>>;% .                *=--=*       ",
"           -'~~'-        ) &>!!>& +     .++.                               -'~~'-        ) &>!!>& +     .++.                    ",
"           -'~~/{+).     + &>!!>& +                                        -'~~/{+).     + &>!!>& +                             ",
"           =,'',=      *={-]^>>;% .    $%&&%$                              =,'',=      *={-]^>>;% .    $%&&%$                   ",
"           *=--=*      =,/'(]&&%$    . %;>>;% .                           __________   =,/'(]&&%$    . %;>>;% .                 ",
"    .++.               -'~~'-        + &>!!>& +                     .++.  __________   -'~~'-        + &>!!>& +                 ",
"                       -'~~/{+).     + &>!!>& +                       ____::<<<<<<<<____'~~/{+).     + &>!!>& +                 ",
"   $%&&%$              =,'',=          [}||}[                      $%&____::<<<<<<<<____,'',=          [}||}[                   ",
" . %;>>;% .            *=--=*          123321                    . %__::4444444444444444__-=*          123321                   ",
" + &>!!>& +                            -'~~'-           .++.     + &__::4444444444444444__             -'~~'-           .++.    ",
" + &>!!>& +                            {/55/{                   ____6644444444444444444444__           {/55/{                   ",
"   [}||}[                              =,'',=          $%&&%$   ____6644444444444444444444__           =,'',=          $%&&%$   ",
"   123321                              *=--=*        . %;>>;% __<<__664444444444444444444477           *=--=*        . %;>>;% . ",
"   -'~~'-                                            + &>!!>& __<<__664444444444444444444477                         + &>!!>& + ",
"   {/55/{                                            + &>!!>__<<<<::666644<<<<<<<<<<44446666::::                     + &>!!>& + ",
"   =,'',=                  *=--=*                      [}||}__<<<<::666644<<<<<<<<<<44446666::::*                      [}||}[   ",
"   *=--=*                  =,'',=                      12332__<<<<::6666::::<<<<<<<<::6666::<<<<::                     123321   ",
"            .++.           -'~~'-           .++.       -'~~'__<<<<::6666::::<<<<<<<<::6666::<<<<::          .++.       -'~~'-   ",
"                           -'~~'-                      {/55/__<<<<::66::::::::::::::::::66::<<<<::                     {/55/{   ",
"           $%&&%$          =,'',=          $%&&%$      =,'',__<<<<::66::::::::::::::::::66::<<<<::         $%&&%$      =,'',=   ",
"         . %;>>;% .        *=--=*        . %;>>;% .    *=--=__88<<<<__::::::::::::::::::6666::<<*        . %;>>;% .    *=--=*   ",
"         + &>!!>& +                      + &>!!>& +         __88<<<<__::::::::::::::::::6666::<<         + &>!!>& +         .++.",
"         + &>!!>& +                      + &>!!>& +           __::<<<<____::::::::::::::66__<<::         + &>!!>& +             ",
"           [}||}[                          [}||}[          $%&__::<<<<____::::::::::::::66__<<::           [}||}[          $%&&%",
"           123321                          123321        . %;>>;____8888888888888888887777__::             123321        . %;>>;",
"           -'~~'-           .++.           -'~~'-        ) &>!!>____8888888888888888887777__::+.           -'~~'-        ) &>!!>",
"           {/55/{                          {/55/{        + &>!!>  __::::::::::99::9900__9977               {/55/{        + &>!!>",
"           =,'',=          $%&&%$          =,'',=      *={-]^>>;  __::::::::::99::9900__9977%&&%$          =,'',=      *={-]^>>;",
"           *=--=*        . %;>>;% .        *=--=*      =,/'(]&&%  __::::::::99999999aa__9977;>>;% .        *=--=*      =,/'(]&&%",
"    .++.                .b+&>!!>& + .++.               -'~~'-     __::::::::99999999aa__9977>!!>& + .++.               -'~~'-   ",
"                         + &>!!>& +                    -'~~/{+).    ____::::999999cccccccc99>!!>& +                    -'~~/{+).",
"   $%&&%$              $%&&de|f}[  $%&&%$              =,'',=      $____::::999999cccccccc99e|f}[  $%&&%$              =,'',=   ",
" . %;>>;% .          . %;>>eg3h21. %;>>;% .            *=--=*    . %;>__007777999999cccc99>eg3h21. %;>>;% .            *=--=*   ",
" + &>!!>& +          + &>!!|3~5'-+ &>!!>& +                      + &>!__007777999999cccc99!|3~5'-+ &>!!>& +                     ",
" + &>!!>& +          + &>!!fh5i/{+ &>!!>& +                      + &>!__aajjjj__777700 &>!!fh5i/{+ &>!!>& +                     ",
"   [}||}[              [}||kl'/,=  [}||}[                          [}|__aajjjj__777700 [}||kl'/,=  [}||}[                       ",
"   123321              1233lm-{=*  123321                          1__jj__jj__<<<<77aa00233lm-{=*  123321                       ",
"   -'~~'-              -'~~'-      -'~~'-           .++.           -__jj__jj__<<<<77aa00'~~'-      -'~~'-           .++.        ",
"   {/55/{              {/55/{ #    {/55/{                          {__jjaa____nn77oooo00/55/{ #    {/55/{                       ",
"   =,'',=              =,'',=      =,'',=          $%&&%$          =__jjaa____nn77oooo00,'',=      =,'',=          $%&&%$       ",
"   *=--=*              *=--=*      *=--=*        . %;>>;% .        *__jjaa<<__nn77nnnn__=--=*      *=--=*        . %;>>;% .     ",
"            .++.                            .++. + &>!!>& +         __jjaa<<__nn77nnnn__                    .++. + &>!!>& +     ",
"                                                 + &>!!>& +         __pp<<____777777cccc____                     + &>!!>& +     ",
"           $%&&%$                          $%&&%$  [}||}[          q__pp<<____777777cccc____               $%&&%$  [}||}[       ",
"         . %;>>;% .                      . %;>>;% .123321          qqq______::::::7799cc__00__           . %;>>;% .123321       ",
"         + &>!!>& +                      + &>!!>& +-'~~'-        qqqqq______::::::7799cc__00__           + &>!!>& +-'~~'-       ",
"         + &>!!>& +                      + &>!!>& +{/55/{        qqqqq__<<cc99::______<<<<__q            + &>!!>& +{/55/{       ",
"           [}||}[          *=--=*          [}||}[  =,'',=        qqqqq__<<cc99::______<<<<__q--=*          [}||}[  =,'',=       ",
"           123321          =,'',=          123321  *=--=*        qqqqqqq__<<aa__qqqqqq____qqq'',=          123321  *=--=*       ",
"           -'~~'-          -'~~'-          -'~~'-                qqqqqqq__<<aa__qqqqqq____qqq~~'-          -'~~'-               ",
"           {/55/{          -'~~'-          {/55/{                qqqqqqqqq____qqqqqqqqqqqqqqq~~'-          {/55/{               ",
"           =,'',=          =,'',=          =,'',=                  qqqqqqq____qqqqqqqqqqqqq=,'',=          =,'',=               ",
"           *=--=*          *=--=*          *=--=*                  qqqqqqqqqqqqqqqqqqqqqqqq*=--=*          *=--=*               ",
"             ##                              ##                      qqqqqqqqqqqqqqqqqqqq                    ##                 ",
"                                                                     qqqqqqqqqqqqqqqqqqqq                                       ",
"                                                                                                                                "};
