/* XPM */
static char * player_d_xpm[] = {
"128 64 56 1",
" 	c #95CB74",
".	c #94CB74",
"+	c #94CB73",
"@	c #95CC74",
"#	c #96CC74",
"$	c #9ACE78",
"%	c #A3D37F",
"&	c #A7D582",
"*	c #93C974",
"=	c #8EC674",
"-	c #8BC475",
";	c #B8E090",
">	c #C3E799",
",	c #80BC75",
"'	c #77B675",
")	c #95CB73",
"!	c #D1F0A4",
"~	c #69AD76",
"{	c #8BC474",
"]	c #9CCE7F",
"^	c #B6DE90",
"/	c #76B675",
"(	c #86BF79",
"_	c #000000",
":	c #486060",
"<	c #384040",
"[	c #A0D17F",
"}	c #B3DB90",
"|	c #BDE199",
"1	c #93C978",
"2	c #90C480",
"3	c #8EC284",
"4	c #F8B020",
"5	c #68AD75",
"6	c #B87020",
"7	c #784040",
"8	c #282838",
"9	c #D8A078",
"0	c #9890B0",
"a	c #E8E8F8",
"b	c #93CA73",
"c	c #F8D0B8",
"d	c #ADD889",
"e	c #B7DE93",
"f	c #BCE199",
"g	c #9ECC89",
"h	c #8DC183",
"i	c #66AC75",
"j	c #B8B0D0",
"k	c #AED691",
"l	c #8DC280",
"m	c #8CC379",
"n	c #F06848",
"o	c #C03838",
"p	c #9088A8",
"q	c #50875A",
"                                                                                                                                ",
"                .++.                                                            .++.                                            ",
"@@@@@@@@@@@@################@@@@################@@@@@@@         @@@@@@@@@@@@################@@@@################@@@@@@@         ",
"               $%&&%$                              *=--=*                      $%&&%$                              *=--=*       ",
"             . %;>>;% .                            =,'',=                    . %;>>;% .                            =,'',=       ",
"             ) &>!!>& +     .++.                   -'~~'-                    ) &>!!>& +     .++.                   -'~~'-       ",
"             + &>!!>& +                            -'~~'-                    + &>!!>& +                            -'~~'-       ",
"           *={-]^>>;% .    $%&&%$                  =,'',=                  *={-]^>>;% .    $%&&%$                  =,'',=       ",
"           =,/'(]&&%$    . %;>>;% .                *=--=*                  =,/'(]&&%$    . %;>>;% .                *=--=*       ",
"           -'~~'-        ) &>!!>& +     .++.                               -'~~'-        ) &>!!>& +     .++.                    ",
"           -'~~/{+).     + &>!!>& +                                        -'~~/{+).     + &>!!>& +                             ",
"           =,'',=      *={-]^>>;% .    $%&&%$                              =,'',=      *={-]^>>;% .    $%&&%$                   ",
"           *=--=*      =,/'(]&&%$    . %;>>;% .                            *__________ =,/'(]&&%$    . %;>>;% .                 ",
"    .++.               -'~~'-        + &>!!>& +                     .++.    __________ -'~~'-        + &>!!>& +                 ",
"                       -'~~/{+).     + &>!!>& +                         ____::::::::<<____~/{+).     + &>!!>& +                 ",
"   $%&&%$              =,'',=          [}||}[                      $%&&%____::::::::<<____',=          [}||}[                   ",
" . %;>>;% .            *=--=*          123321                    . %;>__4444444444444444<<__*          123321                   ",
" + &>!!>& +                            -'~~'-           .++.     + &>!__4444444444444444<<__           -'~~'-           .++.    ",
" + &>!!>& +                            {/55/{                    + &__4444444444444444444466____       {/55/{                   ",
"   [}||}[                              =,'',=          $%&&%$      [__4444444444444444444466____       =,'',=          $%&&%$   ",
"   123321                              *=--=*        . %;>>;% .    1774444444444444444444466__::__     *=--=*        . %;>>;% . ",
"   -'~~'-                                            + &>!!>& +    -774444444444444444444466__::__                   + &>!!>& + ",
"   {/55/{                                            + &>!!>& + <<<<66664444::::::::::446666<<::::__                 + &>!!>& + ",
"   =,'',=                  *=--=*                      [}||}[   <<<<66664444::::::::::446666<<::::__                   [}||}[   ",
"   *=--=*                  =,'',=                      123321 <<::::<<6666<<::::::::<<<<6666<<::::__                   123321   ",
"            .++.           -'~~'-           .++.       -'~~'- <<::::<<6666<<::::::::<<<<6666<<::::__        .++.       -'~~'-   ",
"                           -'~~'-                      {/55/{ <<::::<<66<<<<<<<<<<<<<<<<<<66<<::::__                   {/55/{   ",
"           $%&&%$          =,'',=          $%&&%$      =,'',= <<::::<<66<<<<<<<<<<<<<<<<<<66<<::::__       $%&&%$      =,'',=   ",
"         . %;>>;% .        *=--=*        . %;>>;% .    *=--=*   ::<<6666<<<<<<<<<<<<<<<<<<__::::88__     . %;>>;% .    *=--=*   ",
"         + &>!!>& +                      + &>!!>& +         .++.::<<6666<<<<<<<<<<<<<<<<<<__::::88__     + &>!!>& +         .++.",
"         + &>!!>& +                      + &>!!>& +             <<::__66<<<<<<<<<<<<<<____::::<<__       + &>!!>& +             ",
"           [}||}[                          [}||}[          $%&&%<<::__66<<<<<<<<<<<<<<____::::<<__         [}||}[          $%&&%",
"           123321                          123321        . %;>>;  <<__7777888888888888888888____           123321        . %;>>;",
"           -'~~'-           .++.           -'~~'-        ) &>!!>  <<__7777888888888888888888____           -'~~'-        ) &>!!>",
"           {/55/{                          {/55/{        + &>!!>    7799__0099<<99<<<<<<<<<<__             {/55/{        + &>!!>",
"           =,'',=          $%&&%$          =,'',=      *={-]^>>;    7799__0099<<99<<<<<<<<<<__&%$          =,'',=      *={-]^>>;",
"           *=--=*        . %;>>;% .        *=--=*      =,/'(]&&%    7799__aa99999999<<<<<<<<__>;% .        *=--=*      =,/'(]&&%",
"    .++.                .b+&>!!>& + .++.               -'~~'-       7799__aa99999999<<<<<<<<__!>& + .++.               -'~~'-   ",
"                         + &>!!>& +                    -'~~/{+).    99cccccccc999999<<<<____>!!>& +                    -'~~/{+).",
"   $%&&%$              $%&&de|f}[  $%&&%$              =,'',=      $99cccccccc999999<<<<____e|f}[  $%&&%$              =,'',=   ",
" . %;>>;% .          . %;>>eg3h21. %;>>;% .            *=--=*    . %;>99cccc999999777700__>eg3h21. %;>>;% .            *=--=*   ",
" + &>!!>& +          + &>!!|3~5'-+ &>!!>& +                      + &>!99cccc999999777700__!|3~5'-+ &>!!>& +                     ",
" + &>!!>& +          + &>!!fh5i/{+ &>!!>& +                      + &>!!>& 007777__jjjjaa__!fh5i/{+ &>!!>& +                     ",
"   [}||}[              [}||kl'/,=  [}||}[                          [}||}[ 007777__jjjjaa__|kl'/,=  [}||}[                       ",
"   123321              1233lm-{=*  123321                          1233200aa77::::__jj__jj__m-{=*  123321                       ",
"   -'~~'-              -'~~'-      -'~~'-           .++.           -'~~'00aa77::::__jj__jj__-      -'~~'-           .++.        ",
"   {/55/{              {/55/{ #    {/55/{                          {/55/00nnnn77oo____aajj__{ #    {/55/{                       ",
"   =,'',=              =,'',=      =,'',=          $%&&%$          =,'',00nnnn77oo____aajj__=      =,'',=          $%&&%$       ",
"   *=--=*              *=--=*      *=--=*        . %;>>;% .        *=--=__oooo77oo__::aajj__*      *=--=*        . %;>>;% .     ",
"            .++.                            .++. + &>!!>& +             __oooo77oo__::aajj__                .++. + &>!!>& +     ",
"                                                 + &>!!>& +         ____cccc777777____::pp__                     + &>!!>& +     ",
"           $%&&%$                          $%&&%$  [}||}[           ____cccc777777____::pp__               $%&&%$  [}||}[       ",
"         . %;>>;% .                      . %;>>;% .123321         __00__cc9977<<<<<<______q              . %;>>;% .123321       ",
"         + &>!!>& +                      + &>!!>& +-'~~'-        q__00__cc9977<<<<<<______qqq            + &>!!>& +-'~~'-       ",
"         + &>!!>& +                      + &>!!>& +{/55/{        qqq__::::______<<99cc::__qqq            + &>!!>& +{/55/{       ",
"           [}||}[          *=--=*          [}||}[  =,'',=        qqq__::::______<<99cc::__qqq--=*          [}||}[  =,'',=       ",
"           123321          =,'',=          123321  *=--=*        qqqqq____qqqqqq__aa::__qqqqq'',=          123321  *=--=*       ",
"           -'~~'-          -'~~'-          -'~~'-                qqqqq____qqqqqq__aa::__qqqqq~~'-          -'~~'-               ",
"           {/55/{          -'~~'-          {/55/{                qqqqqqqqqqqqqqqqq____qqqqqqq~~'-          {/55/{               ",
"           =,'',=          =,'',=          =,'',=                  qqqqqqqqqqqqqqq____qqqqq=,'',=          =,'',=               ",
"           *=--=*          *=--=*          *=--=*                  qqqqqqqqqqqqqqqqqqqqqqqq*=--=*          *=--=*               ",
"             ##                              ##                      qqqqqqqqqqqqqqqqqqqq                    ##                 ",
"                                                                     qqqqqqqqqqqqqqqqqqqq                                       ",
"                                                                                                                                "};
