/* XPM */
static char * player_e_xpm[] = {
"128 64 56 1",
" 	c #95CB74",
".	c #94CB74",
"+	c #94CB73",
"@	c #95CC74",
"#	c #96CC74",
"$	c #9ACE78",
"%	c #A3D37F",
"&	c #A7D582",
"*	c #93C974",
"=	c #8EC674",
"-	c #8BC475",
";	c #B8E090",
">	c #C3E799",
",	c #80BC75",
"'	c #77B675",
")	c #95CB73",
"!	c #D1F0A4",
"~	c #69AD76",
"{	c #8BC474",
"]	c #9CCE7F",
"^	c #B6DE90",
"/	c #76B675",
"(	c #86BF79",
"_	c #000000",
":	c #A0D17F",
"<	c #B3DB90",
"[	c #BDE199",
"}	c #93C978",
"|	c #90C480",
"1	c #8EC284",
"2	c #486060",
"3	c #384040",
"4	c #68AD75",
"5	c #F8B020",
"6	c #B87020",
"7	c #784040",
"8	c #282838",
"9	c #D8A078",
"0	c #9890B0",
"a	c #93CA73",
"b	c #E8E8F8",
"c	c #ADD889",
"d	c #B7DE93",
"e	c #BCE199",
"f	c #9ECC89",
"g	c #8DC183",
"h	c #F8D0B8",
"i	c #66AC75",
"j	c #AED691",
"k	c #8DC280",
"l	c #8CC379",
"m	c #B8B0D0",
"n	c #C03838",
"o	c #F06848",
"p	c #50875A",
"q	c #9088A8",
"                                                                                                                                ",
"                .++.                                                            .++.                                            ",
"@@@@@@@@@@@@################@@@@################@@@@@@@         @@@@@@@@@@@@################@@@@################@@@@@@@         ",
"               $%&&%$                              *=--=*                      $%&&%$                              *=--=*       ",
"             . %;>>;% .                            =,'',=                    . %;>>;% .                            =,'',=       ",
"             ) &>!!>& +     .++.                   -'~~'-                    ) &>!!>& +     .++.                   -'~~'-       ",
"             + &>!!>& +                            -'~~'-                    + &>!!>& +                            -'~~'-       ",
"           *={-]^>>;% .    $%&&%$                  =,'',=                  *={-]^>>;% .    $%&&%$                  =,'',=       ",
"           =,/'(]&&%$    . %;>>;% .                *=--=*                  =,/'(]&&%$    . %;>>;% .                *=--=*       ",
"           -'~~'-        ) &>!!>& +     .++.                               -'~~'-        ) &>!!>& +     .++.                    ",
"           -'~~/{+).     + &>!!>& +                                        -'~~/{+).     + &>!!>& +                             ",
"           =,'',=      *={-]^>>;% .    $%&&%$                              =,'',=      *={-]^>>;% .    $%&&%$                   ",
"           *=--=*      =,/'(]&&%$    . %;>>;% .                            *=--=*      =,/'(]&&%$    . %;>>;% .                 ",
"    .++.               -'~~'-        + &>!!>& +                     .++.               -'~~'-        + &>!!>& +                 ",
"                       -'~~/{+).     + &>!!>& +             __________                 -'~~/{+).     + &>!!>& +                 ",
"   $%&&%$              =,'',=          :<[[<:               __________&%$              =,'',=          :<[[<:                   ",
" . %;>>;% .            *=--=*          }|11|}           ____2222222233____.            *=--=*          }|11|}                   ",
" + &>!!>& +                            -'~~'-           ____2222222233____+                            -'~~'-           .++.    ",
" + &>!!>& +                            {/44/{         __555555555555555533__                           {/44/{                   ",
"   :<[[<:                              =,'',=         __555555555555555533__                           =,'',=          $%&&%$   ",
"   }|11|}                              *=--=*       __5555555555555555555566____                       *=--=*        . %;>>;% . ",
"   -'~~'-                                           __5555555555555555555566____                                     + &>!!>& + ",
"   {/44/{                                           775555555555555555555566__22__                                   + &>!!>& + ",
"   =,'',=                  *=--=*                   775555555555555555555566__22__         *=--=*                      :<[[<:   ",
"   *=--=*                  =,'',=               3333666655552222222222556666332222__       =,'',=                      }|11|}   ",
"            .++.           -'~~'-           .++.3333666655552222222222556666332222__       -'~~'-           .++.       -'~~'-   ",
"                           -'~~'-             332222336666332222222233336666332222__       -'~~'-                      {/44/{   ",
"           $%&&%$          =,'',=          $%&332222336666332222222233336666332222__       =,'',=          $%&&%$      =,'',=   ",
"         . %;>>;% .        *=--=*        . %;>332222336633333333333333333366332222__       *=--=*        . %;>>;% .    *=--=*   ",
"         + &>!!>& +                      + &>!332222336633333333333333333366332222__                     + &>!!>& +         .++.",
"         + &>!!>& +                      + &>!!>22336666333333333333333333__222288__                     + &>!!>& +             ",
"           :<[[<:                          :<[[<22336666333333333333333333__222288__                       :<[[<:          $%&&%",
"           }|11|}                          }|11|3322__6633333333333333____222233__                         }|11|}        . %;>>;",
"           -'~~'-           .++.           -'~~'3322__6633333333333333____222233__          .++.           -'~~'-        ) &>!!>",
"           {/44/{                          {/44/{ 33__7777888888888888888888____{                          {/44/{        + &>!!>",
"           =,'',=          $%&&%$          =,'',= 33__7777888888888888888888____=          $%&&%$          =,'',=      *={-]^>>;",
"           *=--=*        . %;>>;% .        *=--=*   7799__009933993333333333__-=*        . %;>>;% .        *=--=*      =,/'(]&&%",
"    .++.                .a+&>!!>& + .++.            7799__009933993333333333__          .a+&>!!>& + .++.               -'~~'-   ",
"                         + &>!!>& +                 7799__bb9999999933333333__           + &>!!>& +                    -'~~/{+).",
"   $%&&%$              $%&&cd[e<:  $%&&%$           7799__bb9999999933333333__         $%&&cd[e<:  $%&&%$              =,'',=   ",
" . %;>>;% .          . %;>>df1g|}. %;>>;% .         99hhhhhhhh999999333388__         . %;>>df1g|}. %;>>;% .            *=--=*   ",
" + &>!!>& +          + &>!![1~4'-+ &>!!>& +         99hhhhhhhh999999333388__         + &>!![1~4'-+ &>!!>& +                     ",
" + &>!!>& +          + &>!!eg4i/{+ &>!!>& +           99hhhh999999777700__+          + &>!!eg4i/{+ &>!!>& +                     ",
"   :<[[<:              :<[[jk'/,=  :<[[<:             99hhhh999999777700__             :<[[jk'/,=  :<[[<:                       ",
"   }|11|}              }|11kl-{=*  }|11|}                 007777__mmmmbb__             }|11kl-{=*  }|11|}                       ",
"   -'~~'-              -'~~'-      -'~~'-           .++.  007777__mmmmbb__             -'~~'-      -'~~'-           .++.        ",
"   {/44/{              {/44/{ #    {/44/{               00bb88nn77__mm33mm__           {/44/{ #    {/44/{                       ",
"   =,'',=              =,'',=      =,'',=          $%&&%00bb88nn77__mm33mm__           =,'',=      =,'',=          $%&&%$       ",
"   *=--=*              *=--=*      *=--=*        . %;>>;00__oooo77__22bbmm__           *=--=*      *=--=*        . %;>>;% .     ",
"            .++.                            .++. + &>!!p00__oooo77__22bbmm__.++.                            .++. + &>!!>& +     ",
"                                                 + &>!!p77__nnnn77__22bbmm__                                     + &>!!>& +     ",
"           $%&&%$                          $%&&%$  ppppp77__nnnn77__22bbmm__%&&%$                          $%&&%$  :<[[<:       ",
"         . %;>>;% .                      . %;>>;% .ppppp__99hh7777____22qq__;>>;% .                      . %;>>;% .}|11|}       ",
"         + &>!!>& +                      + &>!!>&ppppppp__99hh7777____22qq__p!!>& +                      + &>!!>& +-'~~'-       ",
"         + &>!!>& +                      + &>!!>&ppppppp3399hh773333______ppp!!>& +                      + &>!!>& +{/44/{       ",
"           :<[[<:          *=--=*          :<[[<:ppppppp3399hh773333______ppp[[<:          *=--=*          :<[[<:  =,'',=       ",
"           }|11|}          =,'',=          }|11|}ppppppppp____mmqqqq__ppppppp11|}          =,'',=          }|11|}  *=--=*       ",
"           -'~~'-          -'~~'-          -'~~'-ppppppppp____mmqqqq__ppppppp~~'-          -'~~'-          -'~~'-               ",
"           {/44/{          -'~~'-          {/44/{ppppppppppp________ppppppppp44/{          -'~~'-          {/44/{               ",
"           =,'',=          =,'',=          =,'',=  ppppppppp________ppppppp=,'',=          =,'',=          =,'',=               ",
"           *=--=*          *=--=*          *=--=*  pppppppppppppppppppppppp*=--=*          *=--=*          *=--=*               ",
"             ##                              ##      pppppppppppppppppppp    ##                              ##                 ",
"                                                     pppppppppppppppppppp                                                       ",
"                                                                                                                                "};
