/* XPM */
static char * player_4_xpm[] = {
"64 64 49 1",
" 	c #95CB74",
".	c #94CB74",
"+	c #94CB73",
"@	c #95CC74",
"#	c #96CC74",
"$	c #9ACE78",
"%	c #A3D37F",
"&	c #A7D582",
"*	c #93C974",
"=	c #8EC674",
"-	c #8BC475",
";	c #B8E090",
">	c #C3E799",
",	c #80BC75",
"'	c #77B675",
")	c #95CB73",
"!	c #D1F0A4",
"~	c #69AD76",
"{	c #8BC474",
"]	c #9CCE7F",
"^	c #B6DE90",
"/	c #76B675",
"(	c #86BF79",
"_	c #000000",
":	c #A0D17F",
"<	c #B3DB90",
"[	c #BDE199",
"}	c #384040",
"|	c #486060",
"1	c #90C480",
"2	c #8EC284",
"3	c #93C978",
"4	c #F8B020",
"5	c #68AD75",
"6	c #B87020",
"7	c #784040",
"8	c #282838",
"9	c #D8A078",
"0	c #9890B0",
"a	c #E8E8F8",
"b	c #F8D0B8",
"c	c #B8B0D0",
"d	c #C03838",
"e	c #F06848",
"f	c #50875A",
"g	c #9088A8",
"h	c #91C772",
"i	c #8ABF6E",
"j	c #86BB6C",
"                                                                ",
"                .++.                                            ",
"@@@@@@@@@@@@################@@@@################@@@@@@@         ",
"               $%&&%$                              *=--=*       ",
"             . %;>>;% .                            =,'',=       ",
"             ) &>!!>& +     .++.                   -'~~'-       ",
"             + &>!!>& +                            -'~~'-       ",
"           *={-]^>>;% .    $%&&%$                  =,'',=       ",
"           =,/'(]&&%$    . %;>>;% .                *=--=*       ",
"           -'~~'-        ) &>!!>& +     .++.                    ",
"           -'~~/{+).     + &>!!>& +                             ",
"           =,'',=      *={-]^>>;% .    $%&&%$                   ",
"           *=--=*      =,/'(]&&%$    . %;>>;% .                 ",
"    .++.               -'~~'-        + &>!!>& +                 ",
"                       -'~__________ + &>!!>& +                 ",
"   $%&&%$              =,'__________   :<[[<:                   ",
" . %;>>;% .           ____}}||||||||____12213                   ",
" + &>!!>& +           ____}}||||||||____'~~'-           .++.    ",
" + &>!!>& +         __}}4444444444444444__5/{                   ",
"   :<[[<:           __}}4444444444444444__',=          $%&&%$   ",
"   312213       ____6644444444444444444444__*        . %;>>;% . ",
"   -'~~'-       ____6644444444444444444444__         + &>!!>& + ",
"   {/55/{     __||__664444444444444444444477         + &>!!>& + ",
"   =,'',=     __||__664444444444444444444477           :<[[<:   ",
"   *=--=*   __||||}}666644||||||||||44446666}}}}       312213   ",
"            __||||}}666644||||||||||44446666}}}}       -'~~'-   ",
"            __||||}}6666}}}}||||||||}}6666}}||||}}     {/55/{   ",
"           $__||||}}6666}}}}||||||||}}6666}}||||}}     =,'',=   ",
"         . %__||||}}66}}}}}}}}}}}}}}}}}}66}}||||}}.    *=--=*   ",
"         + &__||||}}66}}}}}}}}}}}}}}}}}}66}}||||}}+         .++.",
"         + &__88||||__}}}}}}}}}}}}}}}}}}6666}}||& +             ",
"           :__88||||__}}}}}}}}}}}}}}}}}}6666}}||:          $%&&%",
"           312__}}||||____}}}}}}}}}}}}}}66__||}}3        . %;>>;",
"           -'~__}}||||____}}}}}}}}}}}}}}66__||}}-        ) &>!!>",
"           {/55/____8888888888888888887777__}}5/{        + &>!!>",
"           =,'',____8888888888888888887777__}}',=      *={-]^>>;",
"           *=--=* __}}}}}}}}}}99}}9900__9977=--=*      =,/'(]&&%",
"    .++.          __}}}}}}}}}}99}}9900__9977           -'~~'-   ",
"                  __}}}}}}}}99999999aa__9977           -'~~/{+).",
"   $%&&%$         __}}}}}}}}99999999aa__9977           =,'',=   ",
" . %;>>;% .         __88}}}}999999bbbbbbbb99           *=--=*   ",
" + &>!!>& +         __88}}}}999999bbbbbbbb99                    ",
" + &>!!>& +          +__007777999999bbbb99+                     ",
"   :<[[<:             __007777999999bbbb99                      ",
"   312213             __aacccc__777700213                       ",
"   -'~~'-             __aacccc__777700~'-           .++.        ",
"   {/55/{           __cc}}cc__77dd88aa00{                       ",
"   =,'',=           __cc}}cc__77dd88aa00=          $%&&%$       ",
"   *=--=*           __ccaa||__77eeee__00*        . %;>>;% .     ",
"            .++.    __ccaa||__77eeee__00    .++. + &>!!>& +     ",
"                    __ccaa||__77dddd__77         + &>!!>& +     ",
"           $%&&%$  f__ccaa||__77dddd__77fff$%&&%$  :<[[<:       ",
"         . %;>>;% .f__gg||____7777bb99__fff%;>>;% .312213       ",
"         + &>!!>&fff__gg||____7777bb99__fffff!!>& +-'~~'-       ",
"         + &>!!>&fffff______}}}}77bb99}}fffff!!>& +{/55/{       ",
"           :<[[<:fffff______}}}}77bb99}}fffff[[<:  =,'',=       ",
"           312213fffffffff__ggggcc____fffffff2213  *=--=*       ",
"           -'~~'-fffffffff__ggggcc____fffffff~~'-               ",
"           {/55/{fffffffffff________fffffffff55/{               ",
"           =,'',=  fffffffff________fffffff=,'',=               ",
"           *=--=*  ffffffffffffffffffffffff*=--=*               ",
"             ##      ffffffffffffffffffff    ##                 ",
"                     ffffffffffffffffffff                       ",
"           hijjih                          hijjih               "};
