/* XPM */
static char * enemy_5_xpm[] = {
"64 64 10 1",
" 	c None",
".	c #604020",
"+	c #F88838",
"@	c #E02828",
"#	c #B85820",
"$	c #F0D070",
"%	c #E8E8F8",
"&	c #284858",
"*	c #000000",
"=	c #D8A830",
"                                                                ",
"                                                                ",
"                                                                ",
"                                                                ",
"                                                                ",
"                                                                ",
"                                                                ",
"                                                                ",
"                                                                ",
"                                                                ",
"                                                                ",
"                                                                ",
"                                                                ",
"                                                                ",
"                                                                ",
"                                                                ",
"                                                                ",
"                                                                ",
"                                                                ",
"                                                                ",
"                                                                ",
"                                                                ",
"                                                                ",
"                                                                ",
"                                                                ",
"                                                                ",
"                                                                ",
"                                                                ",
"                  ........                                      ",
"                  ........                                      ",
"                ..++++++++..                @@                  ",
"                ..++++++++..                @@                  ",
"              ..++++++++++++..            @@@@                  ",
"              ..++++++++++++..            @@@@                  ",
"              ##++++++++++++..            @@$$                  ",
"              ##++++++++++++..            @@$$                  ",
"            ..++##++++++++++++..        @@@@@@@@                ",
"            ..++##++++++++++++..        @@@@@@@@                ",
"            ..++##%%++++++++++..        @@$$$$@@                ",
"            ..++##%%++++++++++..        @@$$$$@@                ",
"          ..++++++&&++++++++++..        @@$$@@                  ",
"          ..++++++&&++++++++++..        @@$$@@                  ",
"          **++++++&&++++++++++++..        @@@@                  ",
"          **++++++&&++++++++++++..        @@@@                  ",
"            **##++++++..##++++++..      ..##**                  ",
"            **##++++++..##++++++..      ..##**                  ",
"              ..****..##++##++++++......####**                  ",
"              ..****..##++##++++++......####**                  ",
"                  ..##++++..##++++++++####**                    ",
"                  ..##++++..##++++++++####**                    ",
"                  ********##++++++########**                    ",
"                  ********##++++++########**                    ",
"                    ..==####++++######****                      ",
"                    ..==####++++######****                      ",
"                      ..########..****                          ",
"                      ..########..****                          ",
"                        ....####**                              ",
"                        ....####**                              ",
"                          ******                                ",
"                          ******                                ",
"                                                                ",
"                                                                ",
"                                                                ",
"                                                                "};
