/* XPM */
static char * enemy_7_xpm[] = {
"64 64 7 1",
" 	c None",
".	c #604020",
"+	c #F88838",
"@	c #B85820",
"#	c #E02828",
"$	c #F0D070",
"%	c #000000",
"                                                                ",
"                                                                ",
"                                                                ",
"                                                                ",
"                                                                ",
"                                                                ",
"                                                                ",
"                                                                ",
"                                                                ",
"                                                                ",
"                                                                ",
"                                                                ",
"                                                                ",
"                                                                ",
"                                                                ",
"                                                                ",
"                                                                ",
"                                                                ",
"                                                                ",
"                                                                ",
"                                                                ",
"                                                                ",
"                                                                ",
"                                                                ",
"                                                                ",
"                                                                ",
"                          ..........                            ",
"                          ..........                            ",
"                        ..++++++++++..                          ",
"                        ..++++++++++..                          ",
"                      ..@@++++++++++@@..                        ",
"                      ..@@++++++++++@@..                        ",
"                      ..++++++++++++++..                        ",
"                      ..++++++++++++++..                        ",
"                      ..++++++++++##++..                        ",
"                      ..++++++++++##++..                        ",
"                    ..@@++++++++$$##++@@..                      ",
"                    ..@@++++++++$$##++@@..                      ",
"                    %%@@++++++######++@@%%                      ",
"                    %%@@++++++######++@@%%                      ",
"                    %%@@@@++####$$##@@@@%%                      ",
"                    %%@@@@++####$$##@@@@%%                      ",
"                      %%@@++####$$$$@@%%                        ",
"                      %%@@++####$$$$@@%%                        ",
"                        %%++++##$$##%%                          ",
"                        %%++++##$$##%%                          ",
"                      %%++++++####..++%%                        ",
"                      %%++++++####..++%%                        ",
"                      %%++++++..++..++%%                        ",
"                      %%++++++..++..++%%                        ",
"                    ..@@++++++..++..++@@..                      ",
"                    ..@@++++++..++..++@@..                      ",
"                    ..@@++++..++++%%@@@@..                      ",
"                    ..@@++++..++++%%@@@@..                      ",
"                    ..@@@@++..@@@@%%@@%%                        ",
"                    ..@@@@++..@@@@%%@@%%                        ",
"                      ..@@@@..%%%%..%%                          ",
"                      ..@@@@..%%%%..%%                          ",
"                        %%%%                                    ",
"                        %%%%                                    ",
"                                                                ",
"                                                                ",
"                                                                ",
"                                                                "};
