/* XPM */
static char * enemy_3_xpm[] = {
"64 64 9 1",
" 	c None",
".	c #604020",
"+	c #F88838",
"@	c #B85820",
"#	c #E8E8F8",
"$	c #284858",
"%	c #000000",
"&	c #D8A830",
"*	c #F0D070",
"                                                                ",
"                                                                ",
"                                                                ",
"                                                                ",
"                                                                ",
"                                                                ",
"                                                                ",
"                                                                ",
"                                                                ",
"                                                                ",
"                                                                ",
"                                                                ",
"                                                                ",
"                                                                ",
"                                                                ",
"                                                                ",
"                                                                ",
"                                                                ",
"                                                                ",
"                                                                ",
"                                                                ",
"                                                                ",
"                                                                ",
"                                                                ",
"                                                                ",
"                                                                ",
"                                                                ",
"                                                                ",
"                          ..........                            ",
"                          ..........                            ",
"                        ..++++++++++..                          ",
"                        ..++++++++++..                          ",
"                      ..@@++++++++++@@..                        ",
"                      ..@@++++++++++@@..                        ",
"                      ..++++++++++++++..                        ",
"                      ..++++++++++++++..                        ",
"                      ..++@@++++++@@++..                        ",
"                      ..++@@++++++@@++..                        ",
"                    ..@@##++++++++++##@@..                      ",
"                    ..@@##++++++++++##@@..                      ",
"                    ..@@$$++++++++++$$@@..                      ",
"                    ..@@$$++++++++++$$@@..                      ",
"                    %%@@$$++++++++++$$@@%%                      ",
"                    %%@@$$++++++++++$$@@%%                      ",
"                      %%@@@@++++++@@@@%%                        ",
"                      %%@@@@++++++@@@@%%                        ",
"                      ..%%@@@@@@@@@@%%..                        ",
"                      ..%%@@@@@@@@@@%%..                        ",
"                      %%@@%%%%%%%%%%@@%%                        ",
"                      %%@@%%%%%%%%%%@@%%                        ",
"                      %%@@..&&**&&..@@%%                        ",
"                      %%@@..&&**&&..@@%%                        ",
"                    ..@@%%%%******%%%%@@..                      ",
"                    ..@@%%%%******%%%%@@..                      ",
"                    ..@@@@&&******&&@@@@..                      ",
"                    ..@@@@&&******&&@@@@..                      ",
"                      %%%%%%......%%@@@@..                      ",
"                      %%%%%%......%%@@@@..                      ",
"                                    %%%%                        ",
"                                    %%%%                        ",
"                                                                ",
"                                                                ",
"                                                                ",
"                                                                "};
