/* XPM */
static char * enemy_2_xpm[] = {
"64 64 12 1",
" 	c None",
".	c #406030",
"+	c #60A810",
"@	c #000000",
"#	c #88E020",
"$	c #404040",
"%	c #68D078",
"&	c #409850",
"*	c #E8E8F8",
"=	c #681018",
"-	c #C8C8C8",
";	c #B83018",
"                                                                ",
"                                                                ",
"                                                                ",
"                                                                ",
"                                                                ",
"                                                                ",
"                                                                ",
"                                                                ",
"                                                                ",
"                                                                ",
"                                                                ",
"                                                                ",
"                                                                ",
"                                                                ",
"                                                                ",
"                                                                ",
"                                                                ",
"                                                                ",
"                                                                ",
"                                                                ",
"                                                                ",
"                                                                ",
"                                                                ",
"                                                                ",
"                                                                ",
"                                                                ",
"                                                                ",
"                                                                ",
"                                                                ",
"                                                                ",
"                            ......                              ",
"                            ......                              ",
"                          ..++..++..                            ",
"                          ..++..++..                            ",
"                      @@@@++##++++++@@@@                        ",
"                      @@@@++##++++++@@@@                        ",
"                    @@++########++++##++@@                      ",
"                    @@++########++++##++@@                      ",
"                  @@++++++######++####++++@@                    ",
"                  @@++++++######++####++++@@                    ",
"                  @@++$$..++++++++++..$$++@@                    ",
"                  @@++$$..++++++++++..$$++@@                    ",
"                  $$@@%%&&$$$$$$$$$$&&%%@@&&$$                  ",
"                  $$@@%%&&$$$$$$$$$$&&%%@@&&$$                  ",
"                $$&&@@%%%%%%%%%%&&%%%%%%@@&&$$                  ",
"                $$&&@@%%%%%%%%%%&&%%%%%%@@&&$$                  ",
"                $$&&$$%%%%%%&&&&%%%%%%%%$$..                    ",
"                $$&&$$%%%%%%&&&&%%%%%%%%$$..                    ",
"                $$@@&&%%%%%%&&&&%%%%%%%%&&@@                    ",
"                $$@@&&%%%%%%&&&&%%%%%%%%&&@@                    ",
"                  @@&&**==&&%%%%%%&&==**&&@@                    ",
"                  @@&&**==&&%%%%%%&&==**&&@@                    ",
"                  @@&&--;;%%%%%%%%%%;;--&&@@                    ",
"                  @@&&--;;%%%%%%%%%%;;--&&@@                    ",
"                  $$@@&&&&%%%%%%%%%%&&&&@@..                    ",
"                  $$@@&&&&%%%%%%%%%%&&&&@@..                    ",
"                  @@&&@@@@&&&&%%&&&&@@@@&&..                    ",
"                  @@&&@@@@&&&&%%&&&&@@@@&&..                    ",
"                    @@@@..@@@@@@@@@@..&&&&@@                    ",
"                    @@@@..@@@@@@@@@@..&&&&@@                    ",
"                                      @@@@                      ",
"                                      @@@@                      ",
"                                                                ",
"                                                                "};
