/* XPM */
static char * enemy_6_xpm[] = {
"64 64 8 1",
" 	c None",
".	c #404040",
"+	c #68D078",
"@	c #409850",
"#	c #406030",
"$	c #60A810",
"%	c #000000",
"&	c #88E020",
"                                                                ",
"                                                                ",
"                                                                ",
"                                                                ",
"                                                                ",
"                                                                ",
"                                                                ",
"                                                                ",
"                                                                ",
"                                                                ",
"                                                                ",
"                                                                ",
"                                                                ",
"                                                                ",
"                                                                ",
"                                                                ",
"                                                                ",
"                                                                ",
"                                                                ",
"                                                                ",
"                                                                ",
"                                                                ",
"                                                                ",
"                                                                ",
"                                                                ",
"                                                                ",
"                                                                ",
"                                                                ",
"                                                                ",
"                                                                ",
"                                                                ",
"                                                                ",
"                      ....          ....                        ",
"                      ....          ....                        ",
"                    ..++++..........++++..                      ",
"                    ..++++..........++++..                      ",
"                    ..++@@@@######@@@@++..                      ",
"                    ..++@@@@######@@@@++..                      ",
"                    ..@@@@##$$##$$##@@@@..                      ",
"                    ..@@@@##$$##$$##@@@@..                      ",
"                    ##%%%%$$&&$$$$$$%%%%##                      ",
"                    ##%%%%$$&&$$$$$$%%%%##                      ",
"                    %%$$&&&&&&&&$$$$&&$$%%                      ",
"                    %%$$&&&&&&&&$$$$&&$$%%                      ",
"                  %%$$$$$$&&&&&&$$&&&&$$$$%%                    ",
"                  %%$$$$$$&&&&&&$$&&&&$$$$%%                    ",
"                  %%$$$$$$$$$$$$$$$$$$$$$$%%                    ",
"                  %%$$$$$$$$$$$$$$$$$$$$$$%%                    ",
"                  ..$$$$$$$$$$$$$$$$$$$$$$..                    ",
"                  ..$$$$$$$$$$$$$$$$$$$$$$..                    ",
"                    ##$$$$$$$$$$$$$$$$$$##                      ",
"                    ##$$$$$$$$$$$$$$$$$$##                      ",
"                  ####..$$$$$$$$$$$$$$..##                      ",
"                  ####..$$$$$$$$$$$$$$..##                      ",
"                  %%@@@@..............@@@@##                    ",
"                  %%@@@@..............@@@@##                    ",
"                  %%@@@@@@@@@@@@@@@@@@@@@@%%                    ",
"                  %%@@@@@@@@@@@@@@@@@@@@@@%%                    ",
"                    %%%%%%%%%%%%%%%%@@@@@@%%                    ",
"                    %%%%%%%%%%%%%%%%@@@@@@%%                    ",
"                                    %%%%%%                      ",
"                                    %%%%%%                      ",
"                                                                ",
"                                                                "};
