/* XPM */
static char * enemy_5_xpm[] = {
"64 64 9 1",
" 	c None",
".	c #000000",
"+	c #303030",
"@	c #C8A040",
"#	c #987038",
"$	c #705038",
"%	c #F8D050",
"&	c #E8E8F8",
"*	c #C85838",
"                                                                ",
"                                                                ",
"                                                                ",
"                                                                ",
"                                                                ",
"                                                                ",
"                                                                ",
"                                                                ",
"                                                                ",
"                                                                ",
"                                                                ",
"                                                                ",
"                                                                ",
"                                                                ",
"                                                                ",
"                                                                ",
"                                                                ",
"                                                                ",
"                                                                ",
"                                                                ",
"                                                                ",
"                                                                ",
"                                                                ",
"                                                                ",
"                                                                ",
"                                                                ",
"                                  ........                      ",
"                                  ........                      ",
"                              ....++++++..                      ",
"                              ....++++++..                      ",
"                            ..@@##++++..                        ",
"                            ..@@##++++..                        ",
"                        ++..@@@@@@..........                    ",
"                        ++..@@@@@@..........                    ",
"                    $$##%%%%%%....%%##++++..                    ",
"                    $$##%%%%%%....%%##++++..                    ",
"                  ##%%%%%%%%##%%%%%%%%++..                      ",
"                  ##%%%%%%%%##%%%%%%%%++..                      ",
"                $$%%%%%%%%%%%%%%%%%%....                        ",
"                $$%%%%%%%%%%%%%%%%%%....                        ",
"                $$%%%%%%%%%%%%%%##..++    ++++++$$              ",
"                $$%%%%%%%%%%%%%%##..++    ++++++$$              ",
"                ++%%%%&&%%%%%%%%@@@@@@++  ++@@@@..              ",
"                ++%%%%&&%%%%%%%%@@@@@@++  ++@@@@..              ",
"                ++@@%%..%%%%%%@@@@@@$$$$++@@@@..$$              ",
"                ++@@%%..%%%%%%@@@@@@$$$$++@@@@..$$              ",
"                  ++@@%%****@@@@@@$$$$@@++@@@@@@$$              ",
"                  ++@@%%****@@@@@@$$$$@@++@@@@@@$$              ",
"                    ....****@@@@@@@@@@$$++@@..$$                ",
"                    ....****@@@@@@@@@@$$++@@..$$                ",
"                      $$++++$$@@@@@@$$$$++##..                  ",
"                      $$++++$$@@@@@@$$$$++##..                  ",
"                        ++@@@@@@@@@@@@@@$$....                  ",
"                        ++@@@@@@@@@@@@@@$$....                  ",
"                        $$$$@@@@@@@@@@..$$..                    ",
"                        $$$$@@@@@@@@@@..$$..                    ",
"                          $$..@@@@....$$$$                      ",
"                          $$..@@@@....$$$$                      ",
"                              ....$$                            ",
"                              ....$$                            ",
"                                                                ",
"                                                                ",
"                                                                ",
"                                                                "};
