/* XPM */
static char * enemy_3_xpm[] = {
"64 64 10 1",
" 	c None",
".	c #000000",
"+	c #303030",
"@	c #F8D050",
"#	c #705038",
"$	c #C8A040",
"%	c #987038",
"&	c #E8E8F8",
"*	c #C85838",
"=	c #903818",
"                                                                ",
"                                                                ",
"                                                                ",
"                                                                ",
"                                                                ",
"                                                                ",
"                                                                ",
"                                                                ",
"                                                                ",
"                                                                ",
"                                                                ",
"                                                                ",
"                                                                ",
"                                                                ",
"                                                                ",
"                                                                ",
"                                                                ",
"                                                                ",
"                                                                ",
"                                                                ",
"                                                                ",
"                                                                ",
"                                                                ",
"                                                                ",
"                ......                    ......                ",
"                ......                    ......                ",
"                ..++++..                ..++++..                ",
"                ..++++..                ..++++..                ",
"                ..++++@@..            ..@@++++..                ",
"                ..++++@@..            ..@@++++..                ",
"                  ..@@@@@@..########..@@@@@@..                  ",
"                  ..@@@@@@..########..@@@@@@..                  ",
"                  ..$$@@@@%%$$@@@@$$%%@@@@$$..                  ",
"                  ..$$@@@@%%$$@@@@$$%%@@@@$$..                  ",
"                    ..$$@@@@@@@@@@@@@@@@@@..                    ",
"                    ..$$@@@@@@@@@@@@@@@@@@..                    ",
"                      ++$$@@@@@@@@@@@@$$++                      ",
"                      ++$$@@@@@@@@@@@@$$++                      ",
"                    ..@@@@@@@@@@@@@@@@@@@@..                    ",
"                    ..@@@@@@@@@@@@@@@@@@@@..                    ",
"                ++++..@@@@&&@@@@@@@@&&@@@@..                    ",
"                ++++..@@@@&&@@@@@@@@&&@@@@..                    ",
"                ..%%..**@@..@@@@@@@@..@@**..                    ",
"                ..%%..**@@..@@@@@@@@..@@**..                    ",
"                ##++%%==**@@@@%%%%@@@@**==                      ",
"                ##++%%==**@@@@%%%%@@@@**==                      ",
"                ++%%%%++..++$$$$$$$$++..++                      ",
"                ++%%%%++..++$$$$$$$$++..++                      ",
"                  ++%%##$$##++++++++##$$####                    ",
"                  ++%%##$$##++++++++##$$####                    ",
"                    ##..$$@@##$$$$##@@$$..##                    ",
"                    ##..$$@@##$$$$##@@$$..##                    ",
"                    ##$$....$$$$$$$$....$$##                    ",
"                    ##$$....$$$$$$$$....$$##                    ",
"                      ##$$$$$$$$$$$$$$$$..                      ",
"                      ##$$$$$$$$$$$$$$$$..                      ",
"                      ..%%$$++++++++....                        ",
"                      ..%%$$++++++++....                        ",
"                        ....                                    ",
"                        ....                                    ",
"                                                                ",
"                                                                ",
"                                                                ",
"                                                                "};
