/* XPM */
static char * txt_exit_xpm[] = {
"64 64 10 1",
" 	c #A8A870",
".	c #808070",
"+	c #686850",
"@	c #484848",
"#	c #E8D878",
"$	c #D8B038",
"%	c #907048",
"&	c #000000",
"*	c #B89038",
"=	c #989870",
"            ....++++@@@@########++++++++++++++++++++....        ",
"            ....++++@@@@########++++++++++++++++++++....        ",
"            ....++++@@@@########++++++++++++++++++++....        ",
"            ....++++@@@@########++++++++++++++++++++....        ",
"    ....++++++++@@@@####$$$$@@@@@@@@@@@@@@@@@@@@++++++++....    ",
"    ....++++++++@@@@####$$$$@@@@@@@@@@@@@@@@@@@@++++++++....    ",
"    ....++++++++@@@@####$$$$@@@@@@@@@@@@@@@@@@@@++++++++....    ",
"    ....++++++++@@@@####$$$$@@@@@@@@@@@@@@@@@@@@++++++++....    ",
"    ++++++++@@@@@@@@$$$$@@@@@@@@@@@@@@@@@@@@@@@@@@@@++++++++....",
"    ++++++++@@@@@@@@$$$$@@@@@@@@@@@@@@@@@@@@@@@@@@@@++++++++....",
"    ++++++++@@@@@@@@$$$$@@@@@@@@@@@@@@@@@@@@@@@@@@@@++++++++....",
"    ++++++++@@@@@@@@$$$$@@@@@@@@@@@@@@@@@@@@@@@@@@@@++++++++....",
"....++++@@@@@@@@@@@@%%%%$$$$@@@@@@@@@@@@@@@@@@@@@@@@%%%%%%%%++++",
"....++++@@@@@@@@@@@@%%%%$$$$@@@@@@@@@@@@@@@@@@@@@@@@%%%%%%%%++++",
"....++++@@@@@@@@@@@@%%%%$$$$@@@@@@@@@@@@@@@@@@@@@@@@%%%%%%%%++++",
"....++++@@@@@@@@@@@@%%%%$$$$@@@@@@@@@@@@@@@@@@@@@@@@%%%%%%%%++++",
"++++@@@@@@@@&&&&@@@@$$$$****####&&&&&&&&@@@@@@@@%%%%########++++",
"++++@@@@@@@@&&&&@@@@$$$$****####&&&&&&&&@@@@@@@@%%%%########++++",
"++++@@@@@@@@&&&&@@@@$$$$****####&&&&&&&&@@@@@@@@%%%%########++++",
"++++@@@@@@@@&&&&@@@@$$$$****####&&&&&&&&@@@@@@@@%%%%########++++",
"++++@@@@&&&&&&&&@@@@$$$$&&&&****####&&&&&&&&&&&&####$$$$@@@@++++",
"++++@@@@&&&&&&&&@@@@$$$$&&&&****####&&&&&&&&&&&&####$$$$@@@@++++",
"++++@@@@&&&&&&&&@@@@$$$$&&&&****####&&&&&&&&&&&&####$$$$@@@@++++",
"++++@@@@&&&&&&&&@@@@$$$$&&&&****####&&&&&&&&&&&&####$$$$@@@@++++",
"++++&&&&&&&&&&&&@@@@$$$$&&&&&&&&%%%%####&&&&%%%%####&&&&@@@@++++",
"++++&&&&&&&&&&&&@@@@$$$$&&&&&&&&%%%%####&&&&%%%%####&&&&@@@@++++",
"++++&&&&&&&&&&&&@@@@$$$$&&&&&&&&%%%%####&&&&%%%%####&&&&@@@@++++",
"++++&&&&&&&&&&&&@@@@$$$$&&&&&&&&%%%%####&&&&%%%%####&&&&@@@@++++",
"++++&&&&&&&&&&&&@@@@****$$$$&&&&&&&&****$$$$@@@@####&&&&&&&&++++",
"++++&&&&&&&&&&&&@@@@****$$$$&&&&&&&&****$$$$@@@@####&&&&&&&&++++",
"++++&&&&&&&&&&&&@@@@****$$$$&&&&&&&&****$$$$@@@@####&&&&&&&&++++",
"++++&&&&&&&&&&&&@@@@****$$$$&&&&&&&&****$$$$@@@@####&&&&&&&&++++",
"++++&&&&&&&&&&&&@@@@********$$$$&&&&&&&&****@@@@$$$$&&&&&&&&++++",
"++++&&&&&&&&&&&&@@@@********$$$$&&&&&&&&****@@@@$$$$&&&&&&&&++++",
"++++&&&&&&&&&&&&@@@@********$$$$&&&&&&&&****@@@@$$$$&&&&&&&&++++",
"++++&&&&&&&&&&&&@@@@********$$$$&&&&&&&&****@@@@$$$$&&&&&&&&++++",
"++++&&&&&&&&&&&&@@@@****&&&&****$$$$&&&&&&&&@@@@$$$$&&&&&&&&++++",
"++++&&&&&&&&&&&&@@@@****&&&&****$$$$&&&&&&&&@@@@$$$$&&&&&&&&++++",
"++++&&&&&&&&&&&&@@@@****&&&&****$$$$&&&&&&&&@@@@$$$$&&&&&&&&++++",
"++++&&&&&&&&&&&&@@@@****&&&&****$$$$&&&&&&&&@@@@$$$$&&&&&&&&++++",
"++++&&&&&&&&&&&&&&&&++++&&&&&&&&****$$$$&&&&@@@@$$$$&&&&&&&&++++",
"++++&&&&&&&&&&&&&&&&++++&&&&&&&&****$$$$&&&&@@@@$$$$&&&&&&&&++++",
"++++&&&&&&&&&&&&&&&&++++&&&&&&&&****$$$$&&&&@@@@$$$$&&&&&&&&++++",
"++++&&&&&&&&&&&&&&&&++++&&&&&&&&****$$$$&&&&@@@@$$$$&&&&&&&&++++",
"++++&&&&&&&&&&&&&&&&++++****&&&&&&&&%%%%$$$$@@@@$$$$&&&&&&&&++++",
"++++&&&&&&&&&&&&&&&&++++****&&&&&&&&%%%%$$$$@@@@$$$$&&&&&&&&++++",
"++++&&&&&&&&&&&&&&&&++++****&&&&&&&&%%%%$$$$@@@@$$$$&&&&&&&&++++",
"++++&&&&&&&&&&&&&&&&++++****&&&&&&&&%%%%$$$$@@@@$$$$&&&&&&&&++++",
"++++@@@@&&&&&&&&&&&&&&&&++++++++&&&&&&&&%%%%@@@@$$$$&&&&&&&&++++",
"++++@@@@&&&&&&&&&&&&&&&&++++++++&&&&&&&&%%%%@@@@$$$$&&&&&&&&++++",
"++++@@@@&&&&&&&&&&&&&&&&++++++++&&&&&&&&%%%%@@@@$$$$&&&&&&&&++++",
"++++@@@@&&&&&&&&&&&&&&&&++++++++&&&&&&&&%%%%@@@@$$$$&&&&&&&&++++",
"====++++@@@@&&&&&&&&&&&&&&&&++++++++&&&&&&&&@@@@++++&&&&@@@@====",
"====++++@@@@&&&&&&&&&&&&&&&&++++++++&&&&&&&&@@@@++++&&&&@@@@====",
"====++++@@@@&&&&&&&&&&&&&&&&++++++++&&&&&&&&@@@@++++&&&&@@@@====",
"====++++@@@@&&&&&&&&&&&&&&&&++++++++&&&&&&&&@@@@++++&&&&@@@@====",
"    ====++++++++@@@@@@@@&&&&&&&&++++++++&&&&@@@@&&&&@@@@====    ",
"    ====++++++++@@@@@@@@&&&&&&&&++++++++&&&&@@@@&&&&@@@@====    ",
"    ====++++++++@@@@@@@@&&&&&&&&++++++++&&&&@@@@&&&&@@@@====    ",
"    ====++++++++@@@@@@@@&&&&&&&&++++++++&&&&@@@@&&&&@@@@====    ",
"        ====....++++++++++++++++++++++++++++++++++++====        ",
"        ====....++++++++++++++++++++++++++++++++++++====        ",
"        ====....++++++++++++++++++++++++++++++++++++====        ",
"        ====....++++++++++++++++++++++++++++++++++++====        "};
