/* XPM */
static char * txt_wall_xpm[] = {
"64 64 8 1",
" 	c #654E4E",
".	c #85736D",
"+	c #AD9481",
"@	c #D8C0A0",
"#	c #DED8D1",
"$	c #3A272B",
"%	c #2F450E",
"&	c #95CB74",
" ..  ..++@@@@@@@@@@++++++++....++@@@@@@####@@++++++++++@@@@++...",
" ..  ..++@@@@@@@@@@++++++++....++@@@@@@####@@++++++++++@@@@++...",
".....++++++@@@@@@++++@@####@@++@@@@@@@@@@@@@@##@@++++@@##@@@@+++",
".....++++++@@@@@@++++@@####@@++@@@@@@@@@@@@@@##@@++++@@##@@@@+++",
".......++++....++@@@@@@@@@@@@@@@@@@####++++@@@@@@++++##@@@@@@.. ",
".......++++....++@@@@@@@@@@@@@@@@@@####++++@@@@@@++++##@@@@@@.. ",
" ++++..........@@@@@@@@@@@@@@@@@@@@@@@@@@##++++++++@@@@@@@@++++ ",
" ++++..........@@@@@@@@@@@@@@@@@@@@@@@@@@##++++++++@@@@@@@@++++ ",
"+++..++++@@##++++++@@@@########@@@@@@@@@@@@@@++++@@@@@@@@@@++++ ",
"+++..++++@@##++++++@@@@########@@@@@@@@@@@@@@++++@@@@@@@@@@++++ ",
"+++++++@@@@@@@@@@++++######@@@@@@@@@@@@@@@@@@++++++@@@@@@++++.. ",
"+++++++@@@@@@@@@@++++######@@@@@@@@@@@@@@@@@@++++++@@@@@@++++.. ",
".++++..++++@@@@++++++@@@@####@@@@@@@@@@@@++++@@@@++++@@++...... ",
".++++..++++@@@@++++++@@@@####@@@@@@@@@@@@++++@@@@++++@@++...... ",
".++..  ..++++......++@@@@@@@@@@@@@@@@++++++..++++++..++.........",
".++..  ..++++......++@@@@@@@@@@@@@@@@++++++..++++++..++.........",
"...      ........++@@@@##@@@@@@@@++....++++++++++++++++++++.....",
"...      ........++@@@@##@@@@@@@@++....++++++++++++++++++++.....",
".........++++......@@@@@@@@@@++....++@@@@@@@@####++++++@@@@++.. ",
".........++++......@@@@@@@@@@++....++@@@@@@@@####++++++@@@@++.. ",
" ........@@@@++..++++++@@@@@@@@@@@@@@@@@@@@####@@++++##@@@@++++.",
" ........@@@@++..++++++@@@@@@@@@@@@@@@@@@@@####@@++++##@@@@++++.",
" ++++..++@@@@@@++++++..++++@@@@@@@@@@@@##@@@@@@++..@@@@@@++.....",
" ++++..++@@@@@@++++++..++++@@@@@@@@@@@@##@@@@@@++..@@@@@@++.....",
"...++..++@@##@@++@@++++++@@@@@@@@@@####@@@@@@++....@@@@@@++@@...",
"...++..++@@##@@++@@++++++@@@@@@@@@@####@@@@@@++....@@@@@@++@@...",
"...++++..@@@@####++@@####@@@@@@@@@@@@##@@@@++..++++@@@@++@@@@@@.",
"...++++..@@@@####++@@####@@@@@@@@@@@@##@@@@++..++++@@@@++@@@@@@.",
"...++++++@@@@@@@@++@@@@####++++++@@@@@@##++++@@@@++++@@++@@@@@@.",
"...++++++@@@@@@@@++@@@@####++++++@@@@@@##++++@@@@++++@@++@@@@@@.",
"     ..++@@@@@@@@++++@@@@@@@@@@++++++++++++@@@@@@@@++++....@@@@.",
"     ..++@@@@@@@@++++@@@@@@@@@@++++++++++++@@@@@@@@++++....@@@@.",
"$    ..++++@@@@@@++++++@@@@@@@@@@++++@@@@@@@@@@@@@@++..++++++...",
"$    ..++++@@@@@@++++++@@@@@@@@@@++++@@@@@@@@@@@@@@++..++++++...",
"$$$..$$$$++++++....++++++++++....++@@@@@@@@++..++++....++++++.. ",
"$$$..$$$$++++++....++++++++++....++@@@@@@@@++..++++....++++++.. ",
"$$$  ..    ++..........++++++++  ......++++....++..      ......$",
"$$$  ..    ++..........++++++++  ......++++....++..      ......$",
"$......    ......  ....  ........    ..............            $",
"$......    ......  ....  ........    ..............            $",
" ....    $$        ..                    ......        $$      $",
" ....    $$        ..                    ......        $$      $",
".......  $$    $$$$  ....      ....                      $$$$$$$",
".......  $$    $$$$  ....      ....                      $$$$$$$",
"...      $$$$$$            $$        ....      $$    $$    $$$$$",
"...      $$$$$$            $$        ....      $$    $$    $$$$$",
".....    $$              $$  $$    ........      $$$$$$..  $$$$$",
".....    $$              $$  $$    ........      $$$$$$..  $$$$$",
".....    $$$$    ..  ....  $$      ..........  $$$$$$  ....$$$$$",
".....    $$$$    ..  ....  $$      ..........  $$$$$$  ....$$$$$",
".          $$    ........$$  $$      ..........  $$$$  ....  $$$",
".          $$    ........$$  $$      ..........  $$$$  ....  $$$",
".      $$$$  $$    ........    $$$$      ......  $$$$  ....    $",
".      $$$$  $$    ........    $$$$      ......  $$$$  ....    $",
"   $$  $$  $$$$$$    ......      $$$$        ..  $$    ..       ",
"   $$  $$  $$$$$$    ......      $$$$        ..  $$    ..       ",
" $$$$$$$$$$  $$$$            $$    $$$$$$  ..      $$      $$$$$",
" $$$$$$$$$$  $$$$            $$    $$$$$$  ..      $$      $$$$$",
"$$$$$$$$$  $$$$$$$$        $$      $$$$$$$$  ..  $$$$    $$     ",
"$$$$$$$$$  $$$$$$$$        $$      $$$$$$$$  ..  $$$$    $$     ",
"$$$$$%%%%$$$$$$$$$$$$    $$$$    $$$$$$$$$$    $$$$$$$$$$$$$$  $",
"$$$$$%%%%$$$$$$$$$$$$    $$$$    $$$$$$$$$$    $$$$$$$$$$$$$$  $",
"%%%%%%&&%%%%%$$$$$$$$$$$$$$$$$$$$$$$$%%%%$$$$$$$$$$$$$$$$%%%%$$$",
"&&&&&&&&&&&&&$$$$$$$$$$$$$$$$$$$$$$$$&&&&$$$$$$$$$$$$$$$$&&&&$$&"};
