/* XPM */
static char * txt_wall2_xpm[] = {
"64 64 18 1",
" 	c #95CB74",
".	c #389230",
"+	c #84D362",
"@	c #BDFB8C",
"#	c #38580F",
"$	c #399231",
"%	c #27570F",
"&	c #3C6042",
"*	c #BEFB8C",
"=	c #6AAE76",
"-	c #46804E",
";	c #84D463",
">	c #389130",
",	c #39590F",
"'	c #273D2D",
")	c #2F271F",
"!	c #6B5859",
"~	c #413730",
"                          ....+..+....                          ",
"                         ..@@@.++.@@@..                         ",
"                        .@+@++@@@@++@+@.                        ",
"                        .@+@++@@@@++@+@.                        ",
"                     ...+@@@@@@@@@@@@@@+...                     ",
"                    #..@@+@@@@@@@@@@@@+@@..#                    ",
"                    ###$@+@@@@@@@@@@@@+@....                    ",
"                  %%@..+@@@@@@@@@@@@@@@@+..@##                  ",
"               ###@@.@@++@@+@@@@@@@@+@@++@@.@@###               ",
"              %@@+@.@+++@@@@+++@@+++@@@@+++@.@+@@%              ",
"              %@@+@.@+++@@@@+++@@+++@@@@+++@.@+@@%              ",
"            %%+++.+.@+++@@@@@@@@@@@@@@@@+++@.+.+++%%            ",
"           %@@+@@@@+.+++++@@@@@@@@@@@@+++++.+@@@@+@@%           ",
"         %%+++@@@@@+++++++@@@@@++@@@@@+++++++@@@@@+++%%         ",
"        &%%#@@@@@@@..++.++++@@++++@@++++.++..@@@@@@@#%%&        ",
"        &@@@@@@@@@++...+.++++++++++++++.+...++@@@@*@@@@&        ",
"        &@@@@@@@@@++...+.++++++++++++++.+...++@@@@*@@@@&        ",
"        #@@@@++@@++++++..+.++++++++++.+..++++++@@++@@@@#        ",
"       #+@@@+.+@@@+@@..+#..+++.++.+++..#+..@@+@@@+.+@@@+#       ",
"      &#+++++++@@@@@@@@..##.##.++.##.##..@@@@@@@@+++++++#&      ",
"      &#++++@@@@@@@@@@@@+..#..#++#..#..+@@@@@@@@@@@@++++#&      ",
"     =&#+@@+@@@@@@@@@@@@+...+++..+++...+@@@@@@@@@@@@+@@+#&=     ",
"     =&#+@@+@@@@@@@@@@@@+...+++..+++...+@@@@@@@@@@@@+@@+#&=     ",
"     =&&###@@@@@@@@@@@@@++++@@@++@@@++++@@@@@@@@@@@@@###&&=     ",
"    ==&#++++@@@@@@@@@@@@@@++@@@@@@@@++@@@@@@@@@@@@@@++++#&==    ",
"    =-#+@++@@@@@@@++@@@+@@@@@@*@@@@@@@@@+@@@++@@@@@@@++@+#-=    ",
"    --#++...+@@@@++++..+@@@+@@@@@@@@+@@@+..++++@@@@+...++#--    ",
"    -#+@+..;.++++@@++..@@@@@+++@@+++@@@@@..++@@++++.+..+@+#-    ",
"    -#++@++...+++@@+...@+@*@@@@@@@@@@@@+@...+@@+++...++@++#-    ",
"    -#++@++...+++@@+...@+@*@@@@@@@@@@@@+@...+@@+++...++@++#-    ",
"    -&.@+@@+.....++.#...+@@@@@@@@@@@@@@+...#.++.....+@@+@.&-    ",
"    -&++@++++.......###..++@@@@++@@@@++..###.......++++@++&-    ",
"    -#++++++.+....#####....++++++++++>...#####....+.++++++#-    ",
"    -#..+++.++...##.#####......++......#####.##...++.+++..#-    ",
"    -&......+.#..#+.....##............##.....+#..#.+......&-    ",
"    -&......+.#..#+.....##............##.....+#..#.+......&-    ",
"    =&#......+#..++++..+#...++....++...#+..++++..#+......#&=    ",
"    ==&#####.....++++++++..++++..++++..++++++++.....#####&==    ",
"     =&&####...++.+++++++..+++....+++..+++++++.++...####&&=     ",
"     ==&&#####+..++++++++..#++....++#..++++++++..+#####&&==     ",
"      =-----###+++.+.+++..##........##..+++.+.+++###-----=      ",
"       ------##..#.......#.###.##.###.#.......#..##------       ",
"       ------##..#.......#.###.##.###.#.......#..##------       ",
"      =-------###.#.#...################...#.#.###-------=      ",
"     ==------&&##,..######'))))##))))'######..###--------==     ",
"    ==------&&&&&####..##'')!!))))!!)''##..####&&&&&------==    ",
"    ==-----&&&&&&&&''###''')!!~~~~!!)'''###''&&&&&&&&-----==    ",
"    =----&&&&&&&&&''''''''')!!~~~~!!)'''''''''&&&&&&&&&----=    ",
"    =----&&&&&&&&&''''''''')!!~~~~!!)'''''''''&&&&&&&&&----=    ",
"    =----&&&&&&&&&''''''''''))~~~~))''''''''''&&&&&&&&&----=    ",
"    =----&&&&&&&&&''''''''''''))))''''''''''''&&&&&&&&&----=    ",
"    ==---&&&&&&&&&&''''''''''''''''''''''''''&&&&&&&&&&---==    ",
"    ==-----&&&&&&&&&&''''''''''''''''''''''&&&&&&&&&&-----==    ",
"     ==-----&&&&&&&&&&&&''''''''''''''''&&&&&&&&&&&&-----==     ",
"     ==-----&&&&&&&&&&&&''''''''''''''''&&&&&&&&&&&&-----==     ",
"     ===------&&&&&&&&&&&&&''''''''''&&&&&&&&&&&&&------===     ",
"      ===--------&&&&&&&&&&&&&&&&&&&&&&&&&&&&&&--------===      ",
"       =====--------&&&&&&&&&&&&&&&&&&&&&&&&--------=====       ",
"        ======----------&&&&&&&&&&&&&&&&----------======        ",
"           =======----------------------------=======           ",
"             ==========------------------==========             ",
"             ==========------------------==========             ",
"                 ==============================                 ",
"                    ========================                    "};
