/* XPM */
static char * Untitled_fire_xpm[] = {
"64 64 13 1",
" 	c None",
".	c #000000",
"+	c #404040",
"@	c #804040",
"#	c #BF8040",
"$	c #F25E14",
"%	c #400000",
"&	c #404080",
"*	c #808080",
"=	c #804080",
"-	c #BF4040",
";	c #404000",
">	c #FFBF40",
"                                                                ",
".+@                                                             ",
"+#@.                                                            ",
" +.+                                                            ",
"                    +...                                        ",
"                 ...@##.                                        ",
"                +###$$#.                                        ",
"               +#$$$$$#.                                        ",
"               %$$$$$#@&                                        ",
"               %$$$$$@.                                         ",
"               +#$##@+                                          ",
"                %$@.+                                           ",
"                .%*    @%%.  +.+                                ",
"                     +.@$#%  +##+                               ",
"                    +@##$@    @@.                               ",
"                   +@$$$$%        ....=                         ",
" *.                .-$$$$% =.    +###+.                         ",
" .@@+              .-$$$$#++@@   %$$#@                          ",
" +@@.              .-$$$$$@@##. *@$$@                           ",
"  +..              .-$$$$$$$$#@+@$$$@                           ",
"                   .-$$$$$$$$$-.@$$$@                           ",
"                   +-$$$$$$$$$$#@$$$@                           ",
"                    +-$$$$$$$$$$$$$$@                           ",
"                    +-$$$$$$$$$$$$$$@*                          ",
"                     *@$$$$$$$$$$$$$#@+                         ",
"                     *@#$$$$$$$$$$$$$@+*...+                    ",
"                       @##$$$$$$$$$$$#@++###+.                  ",
"                        .%$$$$$$$$$$$$#@@#$$@@+                 ",
"                  @@@@   %###$$$$$$$$$$$#@$$$$@@                ",
"                 .#$$-%+ ....#$$$$$$$$$$$$$$$$$#+               ",
"                 .%#$$$#%    +#$$$$$$$$$$$$$$$$$#+              ",
"                   +#$$$$+    +@$$$$$$$$$$$$$$@#$#+             ",
"                   .-$$$$#+.  +@$$$$$$$$$$$$$$@;#$#+            ",
"                   .-$$$$$##@++@$$$$$$$$$$$$$$#@#$#.            ",
"                   +-$$$$$$$####$$$$$$$$$>$$$$$##$#.            ",
"                   +@#$$$$$$$$$$$$$$$$$$$>>$$$$$$$$-+           ",
"                    .-$$$$$$$$$$$$$$$$$$$>>$$$$$$$$$%           ",
"                    .#$$$$$$$$$$$$$$$$$$>>>$$$$$$$$$%           ",
"                    +-$$$$$$$$$$$$$$$$$>>>>$$$$$$$$$%           ",
"                     +@$$$$$$$$$$$$$$$$>>>>$$$$$$$$$%           ",
"                     +@$$$$$$$$$$$$$$$$>>>>$$$$$$$$$%           ",
"                      *@$$$$$$$$$$$>$$$>>>>$$$$$$$$$%           ",
"                       +@$$$$$$$$$$>$$>>>>>$$$$$$$$$%           ",
"                        %##$$$$$$$$>>>>>>>>>$$$$$$$$%           ",
"                         ..@##$$$$$$>>>>>>>>>$$$$$$$%           ",
"                           ..-$$$$$$$>>>>>>>>$$$$$$$%           ",
"                             +@#$$$$$>>>>>>>>>$$$$$$%           ",
"                              +@$$$$$$>>>>>>>>>>$$$$%           ",
"                               *%;$$$$>>>>>>>>>>$$#%            ",
"                                @$;$$$>>>>>>>>>>$$#.            ",
"                                @@#$$$$>>>>>>>>>$$#.            ",
"                                 *@$$$$$$>>>>>>>$#@             ",
"                                  +#$$$$$$>>>>>$$#.             ",
"                                   %@##$$$$$$$$$#@+             ",
"                                    +.@#########@+              ",
"                                      +.........&               ",
"                                                                ",
"                                                                ",
"                                                                ",
"                                                                ",
"                                                                ",
"                                                                ",
"                                                                ",
"                                                                "};
