/* XPM */
static char * pika_8_xpm[] = {
"64 64 41 1",
" 	c #95CB74",
".	c #94CB74",
"+	c #94CB73",
"@	c #95CC74",
"#	c #96CC74",
"$	c #9ACE78",
"%	c #A3D37F",
"&	c #A7D582",
"*	c #93C974",
"=	c #8EC674",
"-	c #8BC475",
";	c #B8E090",
">	c #C3E799",
",	c #80BC75",
"'	c #77B675",
")	c #95CB73",
"!	c #D1F0A4",
"~	c #69AD76",
"{	c #8BC474",
"]	c #9CCE7F",
"^	c #B6DE90",
"/	c #76B675",
"(	c #86BF79",
"_	c #A0D17F",
":	c #B3DB90",
"<	c #BDE199",
"[	c #93C978",
"}	c #90C480",
"|	c #8EC284",
"1	c #68AD75",
"2	c #000000",
"3	c #303030",
"4	c #F8D050",
"5	c #705038",
"6	c #C8A040",
"7	c #987038",
"8	c #E8E8F8",
"9	c #C85838",
"0	c #903818",
"a	c #50875A",
"b	c #91C772",
"                                                                ",
"                .++.                                            ",
"@@@@@@@@@@@@################@@@@################@@@@@@@         ",
"               $%&&%$                              *=--=*       ",
"             . %;>>;% .                            =,'',=       ",
"             ) &>!!>& +     .++.                   -'~~'-       ",
"             + &>!!>& +                            -'~~'-       ",
"           *={-]^>>;% .    $%&&%$                  =,'',=       ",
"           =,/'(]&&%$    . %;>>;% .                *=--=*       ",
"           -'~~'-        ) &>!!>& +     .++.                    ",
"           -'~~/{+).     + &>!!>& +                             ",
"           =,'',=      *={-]^>>;% .    $%&&%$                   ",
"           *=--=*      =,/'(]&&%$    . %;>>;% .                 ",
"    .++.               -'~~'-        + &>!!>& +                 ",
"                       -'~~/{+).     + &>!!>& +                 ",
"   $%&&%$              =,'',=          _:<<:_                   ",
" . %;>>;% .            *=--=*          [}||}[                   ",
" + &>!!>& +                            -'~~'-           .++.    ",
" + &>!!>& +                            {/11/{                   ",
"   _:<<:_                              =,'',=          $%&&%$   ",
"   [}||}[                              *=--=*        . %;>>;% . ",
"   -'~~'-                                            + &>!!>& + ",
"   {/11/{                                            + &>!!>& + ",
"   =,'',=                  *=--=*                      _:<<:_   ",
"   *=--=*       222222     =,'',=         222222       [}||}[   ",
"            .++.222222     -'~~'-         222222       -'~~'-   ",
"                22333322   -'~~'-       22333322       {/11/{   ",
"           $%&&%22333322   =,'',=       22333322$      =,'',=   ",
"         . %;>>;2233334422 *=--=*     2244333322% .    *=--=*   ",
"         + &>!!>2233334422            2244333322& +         .++.",
"         + &>!!>& 2244444422555555552244444422!>& +             ",
"           _:<<:_ 2244444422555555552244444422<:_          $%&&%",
"           [}||}[ 2266444477664444667744446622|}[        . %;>>;",
"           -'~~'- 2266444477664444667744446622~'-        ) &>!!>",
"           {/11/{   226644444444444444444422/11/{        + &>!!>",
"           =,'',=   226644444444444444444422,'',=      *={-]^>>;",
"           *=--=*     33664444444444446633 *=--=*      =,/'(]&&%",
"    .++.              33664444444444446633             -'~~'-   ",
"                    224444444444444444444422           -'~~/{+).",
"   $%&&%$           224444444444444444444422           =,'',=   ",
" . %;>>;% .     3333224444884444444488444422           *=--=*   ",
" + &>!!>& +     3333224444884444444488444422                    ",
" + &>!!>& +     3377229944224444444422449922                    ",
"   _:<<:_       3377229944224444444422449922                    ",
"   [}||}[       33777700994444777744449900                      ",
"   -'~~'-       33777700994444777744449900          .++.        ",
"   {/11/{       33777733223366666666332233                      ",
"   =,'',=       33777733223366666666332233         $%&&%$       ",
"   *=--=*         33775566553333333355665555     . %;>>;% .     ",
"            .++.  33775566553333333355665555.++. + &>!!>& +     ",
"                    552266445566665544662255     + &>!!>& +     ",
"           $%&&%$   552266445566665544662255%&&%$  _:<<:_       ",
"         . %;>>;% . 556622226666666622226655;>>;% .[}||}[       ",
"         + &>!!>& + 556622226666666622226655>!!>& +-'~~'-       ",
"         + &>!!>& +   22666666666666666655 &>!!>& +{/11/{       ",
"           _:<<:_     22666666666666666655 _:<<:_  =,'',=       ",
"           [}||}[    aaa222233333333667722aa}||}[  *=--=*       ",
"           -'~~'-     aa222233333333667722aa'~~'-               ",
"           {/11/{      aaaaaaaaaaaaa2222aaa{/11/{               ",
"           =,'',=         aaaaaaaaaa2222a  =,'',=               ",
"           *=--=*          *=--=*  aaaaaa  *=--=*               ",
"             ##                              ##                 ",
"                                                                ",
"           b                                                    "};
