/* XPM */
static char * pika_4_xpm[] = {
"64 64 40 1",
" 	c #95CB74",
".	c #94CB74",
"+	c #94CB73",
"@	c #95CC74",
"#	c #96CC74",
"$	c #9ACE78",
"%	c #A3D37F",
"&	c #A7D582",
"*	c #93C974",
"=	c #8EC674",
"-	c #8BC475",
";	c #B8E090",
">	c #C3E799",
",	c #80BC75",
"'	c #77B675",
")	c #95CB73",
"!	c #D1F0A4",
"~	c #69AD76",
"{	c #8BC474",
"]	c #9CCE7F",
"^	c #B6DE90",
"/	c #76B675",
"(	c #86BF79",
"_	c #A0D17F",
":	c #B3DB90",
"<	c #BDE199",
"[	c #93C978",
"}	c #90C480",
"|	c #8EC284",
"1	c #68AD75",
"2	c #000000",
"3	c #303030",
"4	c #987038",
"5	c #C8A040",
"6	c #F8D050",
"7	c #705038",
"8	c #E8E8F8",
"9	c #C85838",
"0	c #50875A",
"a	c #91C772",
"                                                                ",
"                .++.                                            ",
"@@@@@@@@@@@@################@@@@################@@@@@@@         ",
"               $%&&%$                              *=--=*       ",
"             . %;>>;% .                            =,'',=       ",
"             ) &>!!>& +     .++.                   -'~~'-       ",
"             + &>!!>& +                            -'~~'-       ",
"           *={-]^>>;% .    $%&&%$                  =,'',=       ",
"           =,/'(]&&%$    . %;>>;% .                *=--=*       ",
"           -'~~'-        ) &>!!>& +     .++.                    ",
"           -'~~/{+).     + &>!!>& +                             ",
"           =,'',=      *={-]^>>;% .    $%&&%$                   ",
"           *=--=*      =,/'(]&&%$    . %;>>;% .                 ",
"    .++.               -'~~'-        + &>!!>& +                 ",
"                       -'~~/{+).     + &>!!>& +                 ",
"   $%&&%$              =,'',=          _:<<:_                   ",
" . %;>>;% .            *=--=*          [}||}[                   ",
" + &>!!>& +                            -'~~'-           .++.    ",
" + &>!!>& +                            {/11/{                   ",
"   _:<<:_                              =,'',=          $%&&%$   ",
"   [}||}[                              *=--=*        . %;>>;% . ",
"   -'~~'-                                            + &>!!>& + ",
"   {/11/{                                            + &>!!>& + ",
"   =,'',=                  *=--=*                      _:<<:_   ",
"   *=--=*                  =,'',=                      [}||}[   ",
"            .++.           -'~~'-           .++.       -'~~'-   ",
"                      22222222~'-                      {/11/{   ",
"           $%&&%$     22222222',=          $%&&%$      =,'',=   ",
"         . %;>>;% .   223333332222       . %;>>;% .    *=--=*   ",
"         + &>!!>& +   223333332222       + &>!!>& +         .++.",
"         + &>!!>& +     223333445522     + &>!!>& +             ",
"           _:<<:_       223333445522       _:<<:_          $%&&%",
"           [}||}[   22222222225555552233   [}||}[        . %;>>;",
"           -'~~'-   22222222225555552233   -'~~'-        ) &>!!>",
"           {/11/{   223333446622226666664477/11/{        + &>!!>",
"           =,'',=   223333446622226666664477,'',=      *={-]^>>;",
"           *=--=*     223366666666446666666644-=*      =,/'(]&&%",
"    .++.              223366666666446666666644         -'~~'-   ",
"                        222266666666666666666677       -'~~/{+).",
"   $%&&%$              $222266666666666666666677       =,'',=   ",
" . %;>>;% .   77333333 %;>3322446666666666666677       *=--=*   ",
" + &>!!>& +   77333333 &>!3322446666666666666677                ",
" + &>!!>& +   22555533 &335555556666666688666633                ",
"   _:<<:_     22555533 _335555556666666688666633                ",
"   [}||}[     7722555533777755555566666622665533                ",
"   -'~~'-     7722555533777755555566666622665533    .++.        ",
"   {/11/{     77555555335577775555559999665533                  ",
"   =,'',=     77555555335577775555559999665533     $%&&%$       ",
"   *=--=*       7722553377555555555599992222     . %;>>;% .     ",
"            .++.7722553377555555555599992222.++. + &>!!>& +     ",
"                  224433777755555577333377       + &>!!>& +     ",
"           $%&&%$ 224433777755555577333377 $%&&%$  _:<<:_       ",
"         . %;>>;% 2222775555555555555533 . %;>>;% .[}||}[       ",
"         + &>!!>& 2222775555555555555533 + &>!!>& +-'~~'-       ",
"         + &>!!>& + 22772255555555557777 + &>!!>& +{/11/{       ",
"           _:<<:_   22772255555555557777   _:<<:_  =,'',=       ",
"           [}||}[     777722222277555522   [}||}[  *=--=*       ",
"           -'~~'-     777722222277555522   -'~~'-               ",
"           {/11/{    00000000000772222000  {/11/{               ",
"           =,'',=   0000000000007722220000 =,'',=               ",
"           *=--=*    00000000000000000000  *=--=*               ",
"             ##            000000000         ##                 ",
"                                                                ",
"           a                                                    "};
