/* XPM */
static char * pika_6_xpm[] = {
"128 64 50 1",
" 	c #95CB74",
".	c #94CB74",
"+	c #94CB73",
"@	c #95CC74",
"#	c #96CC74",
"$	c #9ACE78",
"%	c #A3D37F",
"&	c #A7D582",
"*	c #93C974",
"=	c #8EC674",
"-	c #8BC475",
";	c #B8E090",
">	c #C3E799",
",	c #80BC75",
"'	c #77B675",
")	c #95CB73",
"!	c #D1F0A4",
"~	c #69AD76",
"{	c #8BC474",
"]	c #9CCE7F",
"^	c #B6DE90",
"/	c #76B675",
"(	c #86BF79",
"_	c #A0D17F",
":	c #B3DB90",
"<	c #BDE199",
"[	c #93C978",
"}	c #90C480",
"|	c #8EC284",
"1	c #68AD75",
"2	c #000000",
"3	c #303030",
"4	c #987038",
"5	c #C8A040",
"6	c #F8D050",
"7	c #705038",
"8	c #93CA73",
"9	c #ADD889",
"0	c #B7DE93",
"a	c #BCE199",
"b	c #9ECC89",
"c	c #8DC183",
"d	c #66AC75",
"e	c #E8E8F8",
"f	c #AED691",
"g	c #8DC280",
"h	c #8CC379",
"i	c #C85838",
"j	c #50875A",
"k	c #91C772",
"                                                                                                                                ",
"                .++.                                                            .++.                                            ",
"@@@@@@@@@@@@################@@@@################@@@@@@@         @@@@@@@@@@@@################@@@@################@@@@@@@         ",
"               $%&&%$                              *=--=*                      $%&&%$                              *=--=*       ",
"             . %;>>;% .                            =,'',=                    . %;>>;% .                            =,'',=       ",
"             ) &>!!>& +     .++.                   -'~~'-                    ) &>!!>& +     .++.                   -'~~'-       ",
"             + &>!!>& +                            -'~~'-                    + &>!!>& +                            -'~~'-       ",
"           *={-]^>>;% .    $%&&%$                  =,'',=                  *={-]^>>;% .    $%&&%$                  =,'',=       ",
"           =,/'(]&&%$    . %;>>;% .                *=--=*                  =,/'(]&&%$    . %;>>;% .                *=--=*       ",
"           -'~~'-        ) &>!!>& +     .++.                               -'~~'-        ) &>!!>& +     .++.                    ",
"           -'~~/{+).     + &>!!>& +                                        -'~~/{+).     + &>!!>& +                             ",
"           =,'',=      *={-]^>>;% .    $%&&%$                              =,'',=      *={-]^>>;% .    $%&&%$                   ",
"           *=--=*      =,/'(]&&%$    . %;>>;% .                            *=--=*      =,/'(]&&%$    . %;>>;% .                 ",
"    .++.               -'~~'-        + &>!!>& +                     .++.               -'~~'-        + &>!!>& +                 ",
"                       -'~~/{+).     + &>!!>& +                                        -'~~/{+).     + &>!!>& +                 ",
"   $%&&%$              =,'',=          _:<<:_                      $%&&%$              =,'',=          _:<<:_                   ",
" . %;>>;% .            *=--=*          [}||}[                    . %;>>;% .            *=--=*          [}||}[                   ",
" + &>!!>& +                            -'~~'-           .++.     + &>!!>& +                            -'~~'-           .++.    ",
" + &>!!>& +                            {/11/{                    + &>!!>& +                            {/11/{                   ",
"   _:<<:_                              =,'',=          $%&&%$      _:<<:_                              =,'',=          $%&&%$   ",
"   [}||}[                              *=--=*        . %;>>;% .    [}||}[                              *=--=*        . %;>>;% . ",
"   -'~~'-                                            + &>!!>& +    -'~~'-                                            + &>!!>& + ",
"   {/11/{                                            + &>!!>& +    {/11/{                                            + &>!!>& + ",
"   =,'',=                  *=--=*                      _:<<:_      =,'',=                  *=--=*                      _:<<:_   ",
"   *=--=*                  =,'',=                      [}||}[      *=--=*                  =,'',=                      [}||}[   ",
"            .++.           -'~~'-           .++.       -'~~'-               .++.           -'~~'-           .++.       -'~~'-   ",
"                           -'~~'-                     22222222                             -'~~'-                      {/11/{   ",
"           $%&&%$          =,'',=          $%&&%$     22222222             $%&&%$          =,'',=          $%&&%$      =,'',=   ",
"         . %;>>;% .        *=--=*        . %;>>;% .   223333332222       . %;>>;% .        *=--=*        . %;>>;% .    *=--=*   ",
"         + &>!!>& +                      + &>!!>& +   223333332222       + &>!!>& +                      + &>!!>& +         .++.",
"         + &>!!>& +                      + &>!!>& +     223333445522     + &>!!>& +                      + &>!!>& +             ",
"           _:<<:_                          _:<<:_       223333445522       _:<<:_                          _:<<:_          $%&&%",
"           [}||}[                          [}||}[   22222222225555552233   [}||}[                          [}||}[        . %;>>;",
"           -'~~'-           .++.           -'~~'-   22222222225555552233   -'~~'-           .++.           -'~~'-        ) &>!!>",
"           {/11/{                          {/11/{   223333446622226666664477/11/{                          {/11/{        + &>!!>",
"           =,'',=          $%&&%$          =,'',=   223333446622226666664477,'',=          $%&&%$          =,'',=      *={-]^>>;",
"           *=--=*        . %;>>;% .        *=--=*     223366666666446666666644-=*        . %;>>;% .        *=--=*      =,/'(]&&%",
"    .++.                .8+&>!!>& + .++.              223366666666446666666644          .8+&>!!>& + .++.               -'~~'-   ",
"                         + &>!!>& +                    -222266666666666666666677         + &>!!>& +                    -'~~/{+).",
"   $%&&%$              $%&&90<a:_  $%&&%$              =222266666666666666666677       $%&&90<a:_  $%&&%$              =,'',=   ",
" . %;>>;% .          . %;>>0b|c}[. %;>>;% .   77333333 *=-3322446666666666666677     . %;>>0b|c}[. %;>>;% .            *=--=*   ",
" + &>!!>& +          + &>!!<|~1'-+ &>!!>& +   77333333    3322446666666666666677     + &>!!<|~1'-+ &>!!>& +                     ",
" + &>!!>& +          + &>!!ac1d/{+ &>!!>& +   22555533  3355555566666666ee666633     + &>!!ac1d/{+ &>!!>& +                     ",
"   _:<<:_              _:<<fg'/,=  _:<<:_     22555533  3355555566666666ee666633       _:<<fg'/,=  _:<<:_                       ",
"   [}||}[              [}||gh-{=*  [}||}[     7722555533777755555566666622665533       [}||gh-{=*  [}||}[                       ",
"   -'~~'-              -'~~'-      -'~~'-     7722555533777755555566666622665533       -'~~'-      -'~~'-           .++.        ",
"   {/11/{              {/11/{ #    {/11/{     7755555533557777555555iiii665533         {/11/{ #    {/11/{                       ",
"   =,'',=              =,'',=      =,'',=     7755555533557777555555iiii665533         =,'',=      =,'',=          $%&&%$       ",
"   *=--=*              *=--=*      *=--=*       77225533775555555555iiii2222           *=--=*      *=--=*        . %;>>;% .     ",
"            .++.                            .++.77225533775555555555iiii2222.++.                            .++. + &>!!>& +     ",
"                                                 +224433777755555577333377                                       + &>!!>& +     ",
"           $%&&%$                          $%&&%$ 224433777755555577333377 $%&&%$                          $%&&%$  _:<<:_       ",
"         . %;>>;% .                      . %;>>;% 2222775555555555555533 . %;>>;% .                      . %;>>;% .[}||}[       ",
"         + &>!!>& +                      + &>!!>& 2222775555555555555533 + &>!!>& +                      + &>!!>& +-'~~'-       ",
"         + &>!!>& +                      + &>!!>& +{22772255555555557777 + &>!!>& +                      + &>!!>& +{/11/{       ",
"           _:<<:_          *=--=*          _:<<:_  =22772255555555557777   _:<<:_          *=--=*          _:<<:_  =,'',=       ",
"           [}||}[          =,'',=          [}||}[  *=-777722222277555522   [}||}[          =,'',=          [}||}[  *=--=*       ",
"           -'~~'-          -'~~'-          -'~~'-     777722222277555522   -'~~'-          -'~~'-          -'~~'-               ",
"           {/11/{          -'~~'-          {/11/{    jjjjjjjjjjj772222jjj  {/11/{          -'~~'-          {/11/{               ",
"           =,'',=          =,'',=          =,'',=   jjjjjjjjjjjj772222jjjj =,'',=          =,'',=          =,'',=               ",
"           *=--=*          *=--=*          *=--=*    jjjjjjjjjjjjjjjjjjjj  *=--=*          *=--=*          *=--=*               ",
"             ##                              ##            jjjjjjjjj         ##                              ##                 ",
"                                                                                                                                ",
"           k                                                               k                                                    "};
