/* XPM */
static char * pika_f_xpm[] = {
"128 64 50 1",
" 	c #95CB74",
".	c #94CB74",
"+	c #94CB73",
"@	c #95CC74",
"#	c #96CC74",
"$	c #9ACE78",
"%	c #A3D37F",
"&	c #A7D582",
"*	c #93C974",
"=	c #8EC674",
"-	c #8BC475",
";	c #B8E090",
">	c #C3E799",
",	c #80BC75",
"'	c #77B675",
")	c #95CB73",
"!	c #D1F0A4",
"~	c #69AD76",
"{	c #8BC474",
"]	c #9CCE7F",
"^	c #B6DE90",
"/	c #76B675",
"(	c #86BF79",
"_	c #A0D17F",
":	c #B3DB90",
"<	c #BDE199",
"[	c #93C978",
"}	c #90C480",
"|	c #8EC284",
"1	c #68AD75",
"2	c #000000",
"3	c #303030",
"4	c #C8A040",
"5	c #987038",
"6	c #705038",
"7	c #F8D050",
"8	c #93CA73",
"9	c #ADD889",
"0	c #B7DE93",
"a	c #BCE199",
"b	c #9ECC89",
"c	c #8DC183",
"d	c #66AC75",
"e	c #E8E8F8",
"f	c #AED691",
"g	c #8DC280",
"h	c #8CC379",
"i	c #C85838",
"j	c #50875A",
"k	c #91C772",
"                                                                                                                                ",
"                .++.                                                            .++.                                            ",
"@@@@@@@@@@@@################@@@@################@@@@@@@         @@@@@@@@@@@@################@@@@################@@@@@@@         ",
"               $%&&%$                              *=--=*                      $%&&%$                              *=--=*       ",
"             . %;>>;% .                            =,'',=                    . %;>>;% .                            =,'',=       ",
"             ) &>!!>& +     .++.                   -'~~'-                    ) &>!!>& +     .++.                   -'~~'-       ",
"             + &>!!>& +                            -'~~'-                    + &>!!>& +                            -'~~'-       ",
"           *={-]^>>;% .    $%&&%$                  =,'',=                  *={-]^>>;% .    $%&&%$                  =,'',=       ",
"           =,/'(]&&%$    . %;>>;% .                *=--=*                  =,/'(]&&%$    . %;>>;% .                *=--=*       ",
"           -'~~'-        ) &>!!>& +     .++.                               -'~~'-        ) &>!!>& +     .++.                    ",
"           -'~~/{+).     + &>!!>& +                                        -'~~/{+).     + &>!!>& +                             ",
"           =,'',=      *={-]^>>;% .    $%&&%$                              =,'',=      *={-]^>>;% .    $%&&%$                   ",
"           *=--=*      =,/'(]&&%$    . %;>>;% .                            *=--=*      =,/'(]&&%$    . %;>>;% .                 ",
"    .++.               -'~~'-        + &>!!>& +                     .++.               -'~~'-        + &>!!>& +                 ",
"                       -'~~/{+).     + &>!!>& +                                        -'~~/{+).     + &>!!>& +                 ",
"   $%&&%$              =,'',=          _:<<:_                      $%&&%$              =,'',=          _:<<:_                   ",
" . %;>>;% .            *=--=*          [}||}[                    . %;>>;% .            *=--=*          [}||}[                   ",
" + &>!!>& +                            -'~~'-           .++.     + &>!!>& +                            -'~~'-           .++.    ",
" + &>!!>& +                            {/11/{                    + &>!!>& +                            {/11/{                   ",
"   _:<<:_                              =,'',=          $%&&%$      _:<<:_                              =,'',=          $%&&%$   ",
"   [}||}[                              *=--=*        . %;>>;% .    [}||}[                              *=--=*        . %;>>;% . ",
"   -'~~'-                                            + &>!!>& +    -'~~'-                                            + &>!!>& + ",
"   {/11/{                                            + &>!!>& +    {/11/{                                            + &>!!>& + ",
"   =,'',=                  *=--=*                      _:<<:_      =,'',=                  *=--=*                      _:<<:_   ",
"   *=--=*                  =,'',=                      [}||}[      *=--=*                  =,'',=                      [}||}[   ",
"            .++.           -'~~'-           .++.       -'~~'-               .++.           -'~~'-           .++.       -'~~'-   ",
"                           -'~~'-                 222222221/{                              -'~~'-                      {/11/{   ",
"           $%&&%$          =,'',=          $%&&%$ 22222222',=              $%&&%$          =,'',=          $%&&%$      =,'',=   ",
"         . %;>>;% .        *=--=*        . %;>222233333322-=*            . %;>>;% .        *=--=*        . %;>>;% .    *=--=*   ",
"         + &>!!>& +                      + &>!222233333322  .++.         + &>!!>& +                      + &>!!>& +         .++.",
"         + &>!!>& +                      + &224455333322                 + &>!!>& +                      + &>!!>& +             ",
"           _:<<:_                          _224455333322   $%&&%           _:<<:_                          _:<<:_          $%&&%",
"           [}||}[                       33224444442222222222;>>;           [}||}[                          [}||}[        . %;>>;",
"           -'~~'-           .++.        33224444442222222222>!!>           -'~~'-           .++.           -'~~'-        ) &>!!>",
"           {/11/{                   665577777722227755333322>!!>           {/11/{                          {/11/{        + &>!!>",
"           =,'',=          $%&&%$   665577777722227755333322^>>;           =,'',=          $%&&%$          =,'',=      *={-]^>>;",
"           *=--=*        . %;>>;% 557777777755777777773322'(]&&%           *=--=*        . %;>>;% .        *=--=*      =,/'(]&&%",
"    .++.                .8+&>!!>& 557777777755777777773322~'-       .++.                .8+&>!!>& + .++.               -'~~'-   ",
"                         + &>!!>667777777777777777772222'~~/{+).                         + &>!!>& +                    -'~~/{+).",
"   $%&&%$              $%&&90<a:667777777777777777772222,'',=      $%&&%$              $%&&90<a:_  $%&&%$              =,'',=   ",
" . %;>>;% .          . %;>>0b|c}6677777777777777552233 *=-33333366 %;>>;% .          . %;>>0b|c}[. %;>>;% .            *=--=*   ",
" + &>!!>& +          + &>!!<|~1'6677777777777777552233    33333366 &>!!>& +          + &>!!<|~1'-+ &>!!>& +                     ",
" + &>!!>& +          + &>!!ac1d/337777ee7777777744444433  33444422 &>!!>& +          + &>!!ac1d/{+ &>!!>& +                     ",
"   _:<<:_              _:<<fg'/,337777ee7777777744444433  33444422 _:<<:_              _:<<fg'/,=  _:<<:_                       ",
"   [}||}[              [}||gh-{=3344772277777744444466663344442266 [}||}[              [}||gh-{=*  [}||}[                       ",
"   -'~~'-              -'~~'-   3344772277777744444466663344442266 -'~~'-              -'~~'-      -'~~'-           .++.        ",
"   {/11/{              {/11/{ #   334477iiii4444446666443344444466 {/11/{              {/11/{ #    {/11/{                       ",
"   =,'',=              =,'',=     334477iiii4444446666443344444466 =,'',=              =,'',=      =,'',=          $%&&%$       ",
"   *=--=*              *=--=*      *2222iiii44444444446633442266   *=--=*              *=--=*      *=--=*        . %;>>;% .     ",
"            .++.                    2222iiii44444444446633442266            .++.                            .++. + &>!!>& +     ",
"                                      663333664444446666335522                                                   + &>!!>& +     ",
"           $%&&%$                     663333664444446666335522             $%&&%$                          $%&&%$  _:<<:_       ",
"         . %;>>;% .                     3344444444444444662222           . %;>>;% .                      . %;>>;% .[}||}[       ",
"         + &>!!>& +                     3344444444444444662222           + &>!!>& +                      + &>!!>& +-'~~'-       ",
"         + &>!!>& +                     66664444444444226622             + &>!!>& +                      + &>!!>& +{/11/{       ",
"           _:<<:_          *=--=*       66664444444444226622               _:<<:_          *=--=*          _:<<:_  =,'',=       ",
"           [}||}[          =,'',=       jj6622444422226666j                [}||}[          =,'',=          [}||}[  *=--=*       ",
"           -'~~'-          -'~~'-      jjj6622444422226666jj               -'~~'-          -'~~'-          -'~~'-               ",
"           {/11/{          -'~~'-       jjjjjj222266jjjjjjj                {/11/{          -'~~'-          {/11/{               ",
"           =,'',=          =,'',=        jjjjj222266jjjjjj                 =,'',=          =,'',=          =,'',=               ",
"           *=--=*          *=--=*          jjjjjjjjjjjjj                   *=--=*          *=--=*          *=--=*               ",
"             ##                              ##                              ##                              ##                 ",
"                                                                                                                                ",
"           k                                                               k                                                    "};
