/* XPM */
static char * pika_c_xpm[] = {
"64 64 40 1",
" 	c #95CB74",
".	c #94CB74",
"+	c #94CB73",
"@	c #95CC74",
"#	c #96CC74",
"$	c #9ACE78",
"%	c #A3D37F",
"&	c #A7D582",
"*	c #93C974",
"=	c #8EC674",
"-	c #8BC475",
";	c #B8E090",
">	c #C3E799",
",	c #80BC75",
"'	c #77B675",
")	c #95CB73",
"!	c #D1F0A4",
"~	c #69AD76",
"{	c #8BC474",
"]	c #9CCE7F",
"^	c #B6DE90",
"/	c #76B675",
"(	c #86BF79",
"_	c #A0D17F",
":	c #B3DB90",
"<	c #BDE199",
"[	c #93C978",
"}	c #90C480",
"|	c #8EC284",
"1	c #68AD75",
"2	c #000000",
"3	c #303030",
"4	c #C8A040",
"5	c #987038",
"6	c #705038",
"7	c #F8D050",
"8	c #E8E8F8",
"9	c #C85838",
"0	c #50875A",
"a	c #91C772",
"                                                                ",
"                .++.                                            ",
"@@@@@@@@@@@@################@@@@################@@@@@@@         ",
"               $%&&%$                              *=--=*       ",
"             . %;>>;% .                            =,'',=       ",
"             ) &>!!>& +     .++.                   -'~~'-       ",
"             + &>!!>& +                            -'~~'-       ",
"           *={-]^>>;% .    $%&&%$                  =,'',=       ",
"           =,/'(]&&%$    . %;>>;% .                *=--=*       ",
"           -'~~'-        ) &>!!>& +     .++.                    ",
"           -'~~/{+).     + &>!!>& +                             ",
"           =,'',=      *={-]^>>;% .    $%&&%$                   ",
"           *=--=*      =,/'(]&&%$    . %;>>;% .                 ",
"    .++.               -'~~'-        + &>!!>& +                 ",
"                       -'~~/{+).     + &>!!>& +                 ",
"   $%&&%$              =,'',=          _:<<:_                   ",
" . %;>>;% .            *=--=*          [}||}[                   ",
" + &>!!>& +                            -'~~'-           .++.    ",
" + &>!!>& +                            {/11/{                   ",
"   _:<<:_                              =,'',=          $%&&%$   ",
"   [}||}[                              *=--=*        . %;>>;% . ",
"   -'~~'-                                            + &>!!>& + ",
"   {/11/{                                            + &>!!>& + ",
"   =,'',=                  *=--=*                      _:<<:_   ",
"   *=--=*                  =,'',=                      [}||}[   ",
"            .++.           -'~~'-           .++.       -'~~'-   ",
"                           -'~~'- 22222222             {/11/{   ",
"           $%&&%$          =,'',= 22222222 $%&&%$      =,'',=   ",
"         . %;>>;% .        *=-222233333322 %;>>;% .    *=--=*   ",
"         + &>!!>& +           222233333322 &>!!>& +         .++.",
"         + &>!!>& +         224455333322 + &>!!>& +             ",
"           _:<<:_           224455333322   _:<<:_          $%&&%",
"           [}||}[       33224444442222222222}||}[        . %;>>;",
"           -'~~'-       33224444442222222222'~~'-        ) &>!!>",
"           {/11/{   665577777722227755333322/11/{        + &>!!>",
"           =,'',=   665577777722227755333322,'',=      *={-]^>>;",
"           *=--=* 557777777755777777773322 *=--=*      =,/'(]&&%",
"    .++.          557777777755777777773322             -'~~'-   ",
"                667777777777777777772222               -'~~/{+).",
"   $%&&%$       667777777777777777772222$              =,'',=   ",
" . %;>>;% .     6677777777777777552233>;% 33333366     *=--=*   ",
" + &>!!>& +     6677777777777777552233!>& 33333366              ",
" + &>!!>& +     337777887777777744444433& 33444422              ",
"   _:<<:_       337777887777777744444433_ 33444422              ",
"   [}||}[       3344772277777744444466663344442266              ",
"   -'~~'-       3344772277777744444466663344442266  .++.        ",
"   {/11/{         33447799994444446666443344444466              ",
"   =,'',=         33447799994444446666443344444466 $%&&%$       ",
"   *=--=*           2222999944444444446633442266 . %;>>;% .     ",
"            .++.    2222999944444444446633442266 + &>!!>& +     ",
"                      663333664444446666335522   + &>!!>& +     ",
"           $%&&%$     663333664444446666335522&%$  _:<<:_       ",
"         . %;>>;% .     3344444444444444662222>;% .[}||}[       ",
"         + &>!!>& +     3344444444444444662222!>& +-'~~'-       ",
"         + &>!!>& +     66664444444444226622>!!>& +{/11/{       ",
"           _:<<:_       66664444444444226622:<<:_  =,'',=       ",
"           [}||}[     002244446622222266660[}||}[  *=--=*       ",
"           -'~~'-    00022444466222222666600'~~'-               ",
"           {/11/{     0000222266000000000000/11/{               ",
"           =,'',=      00022226600000000000=,'',=               ",
"           *=--=*        000000000000000   *=--=*               ",
"             ##                              ##                 ",
"                                                                ",
"           a                                                    "};
