/* XPM */
static char * pika_0_xpm[] = {
"64 64 38 1",
" 	c #95CB74",
".	c #94CB74",
"+	c #94CB73",
"@	c #95CC74",
"#	c #96CC74",
"$	c #9ACE78",
"%	c #A3D37F",
"&	c #A7D582",
"*	c #93C974",
"=	c #8EC674",
"-	c #8BC475",
";	c #B8E090",
">	c #C3E799",
",	c #80BC75",
"'	c #77B675",
")	c #95CB73",
"!	c #D1F0A4",
"~	c #69AD76",
"{	c #8BC474",
"]	c #9CCE7F",
"^	c #B6DE90",
"/	c #76B675",
"(	c #86BF79",
"_	c #A0D17F",
":	c #B3DB90",
"<	c #BDE199",
"[	c #93C978",
"}	c #90C480",
"|	c #8EC284",
"1	c #68AD75",
"2	c #000000",
"3	c #303030",
"4	c #987038",
"5	c #F8D050",
"6	c #C8A040",
"7	c #705038",
"8	c #50875A",
"9	c #91C772",
"                                                                ",
"                .++.                                            ",
"@@@@@@@@@@@@################@@@@################@@@@@@@         ",
"               $%&&%$                              *=--=*       ",
"             . %;>>;% .                            =,'',=       ",
"             ) &>!!>& +     .++.                   -'~~'-       ",
"             + &>!!>& +                            -'~~'-       ",
"           *={-]^>>;% .    $%&&%$                  =,'',=       ",
"           =,/'(]&&%$    . %;>>;% .                *=--=*       ",
"           -'~~'-        ) &>!!>& +     .++.                    ",
"           -'~~/{+).     + &>!!>& +                             ",
"           =,'',=      *={-]^>>;% .    $%&&%$                   ",
"           *=--=*      =,/'(]&&%$    . %;>>;% .                 ",
"    .++.               -'~~'-        + &>!!>& +                 ",
"                       -'~~/{+).     + &>!!>& +                 ",
"   $%&&%$              =,'',=          _:<<:_                   ",
" . %;>>;% .            *=--=*          [}||}[                   ",
" + &>!!>& +                            -'~~'-           .++.    ",
" + &>!!>& +                            {/11/{                   ",
"   _:<<:_                              =,'',=          $%&&%$   ",
"   [}||}[                              *=--=*        . %;>>;% . ",
"   -'~~'-                                            + &>!!>& + ",
"   {/11/{                                            + &>!!>& + ",
"   =,'',=                  *=--=*                      _:<<:_   ",
"   *=--=*                  =,'',=                      [}||}[   ",
"            .++.           -'~~'-           .++.       -'~~'-   ",
"                           -'~~'-                      {/11/{   ",
"           $%&&%$          =,'',=          $%&&%$      =,'',=   ",
"         . %;>>;% 222222   *=--=*       222222>;% .    *=--=*   ",
"         + &>!!>& 222222                222222!>& +         .++.",
"         + &>!!>& 22333322  44444444  22333322!>& +             ",
"           _:<<:_ 22333322  44444444  22333322<:_          $%&&%",
"           [}||}[ 2233335522555555552255333322|}[        . %;>>;",
"           -'~~'- 2233335522555555552255333322~'-        ) &>!!>",
"           {/11/{   225555554455554455555522/11/{        + &>!!>",
"           =,'',=   225555554455554455555522,'',=      *={-]^>>;",
"           *=--=*   226655555555555555556622=--=*      =,/'(]&&%",
"    .++.            226655555555555555556622           -'~~'-   ",
"                    442266555555555555662244           -'~~/{+).",
"   $%&&%$           442266555555555555662244           =,'',=   ",
" . %;>>;% .         4455555555555555552222222277       *=--=*   ",
" + &>!!>& +         4455555555555555552222222277                ",
" + &>!!>& +         2255555555555555225555555522                ",
"   _:<<:_           2255555555555555225555555522                ",
"   [}||}[             77555555555555226666662277                ",
"   -'~~'-             77555555555555226666662277    .++.        ",
"   {/11/{             77554444554422776666666677                ",
"   =,'',=             77554444554422776666666677   $%&&%$       ",
"   *=--=*           7766665544442266666622222277 . %;>>;% .     ",
"            .++.    7766665544442266666622222277 + &>!!>& +     ",
"                    7766664444662266222277       + &>!!>& +     ",
"           $%&&%$   7766664444662266222277 $%&&%$  _:<<:_       ",
"         . %;>>;% . 2266666677224444224422 %;>>;% .[}||}[       ",
"         + &>!!>& + 2266666677224444224422 &>!!>& +-'~~'-       ",
"         + &>!!>& +   22666666224422444422 &>!!>& +{/11/{       ",
"           _:<<:_     22666666224422444422 _:<<:_  =,'',=       ",
"           [}||}[       2222333333666622   [}||}[  *=--=*       ",
"           -'~~'-     8822223333336666228  -'~~'-               ",
"           {/11/{      888888888882222888  {/11/{               ",
"           =,'',=       888888888822228    =,'',=               ",
"           *=--=*          *=--=*8888888   *=--=*               ",
"             ##                   88888888   ##                 ",
"                                                                ",
"           9                                                    "};
