/* XPM */
static char * player_9_xpm[] = {
"64 128 56 1",
" 	c #95CB74",
".	c #94CB74",
"+	c #94CB73",
"@	c #95CC74",
"#	c #96CC74",
"$	c #9ACE78",
"%	c #A3D37F",
"&	c #A7D582",
"*	c #93C974",
"=	c #8EC674",
"-	c #8BC475",
";	c #B8E090",
">	c #C3E799",
",	c #80BC75",
"'	c #77B675",
")	c #95CB73",
"!	c #D1F0A4",
"~	c #69AD76",
"{	c #8BC474",
"]	c #9CCE7F",
"^	c #B6DE90",
"/	c #76B675",
"(	c #86BF79",
"_	c #A0D17F",
":	c #B3DB90",
"<	c #BDE199",
"[	c #93C978",
"}	c #90C480",
"|	c #8EC284",
"1	c #68AD75",
"2	c #384040",
"3	c #000000",
"4	c #486060",
"5	c #F8B020",
"6	c #B87020",
"7	c #784040",
"8	c #D8A078",
"9	c #282838",
"0	c #F8D0B8",
"a	c #9890B0",
"b	c #E8E8F8",
"c	c #C03838",
"d	c #F06848",
"e	c #91C772",
"f	c #B8B0D0",
"g	c #50875A",
"h	c #93CA73",
"i	c #ADD889",
"j	c #B7DE93",
"k	c #BCE199",
"l	c #9ECC89",
"m	c #8DC183",
"n	c #66AC75",
"o	c #AED691",
"p	c #8DC280",
"q	c #8CC379",
"                                                                ",
"                .++.                                            ",
"@@@@@@@@@@@@################@@@@################@@@@@@@         ",
"               $%&&%$                              *=--=*       ",
"             . %;>>;% .                            =,'',=       ",
"             ) &>!!>& +     .++.                   -'~~'-       ",
"             + &>!!>& +                            -'~~'-       ",
"           *={-]^>>;% .    $%&&%$                  =,'',=       ",
"           =,/'(]&&%$    . %;>>;% .                *=--=*       ",
"           -'~~'-        ) &>!!>& +     .++.                    ",
"           -'~~/{+).     + &>!!>& +                             ",
"           =,'',=      *={-]^>>;% .    $%&&%$                   ",
"           *=--=*      =,/'(]&&%$    . %;>>;% .                 ",
"    .++.               -'~~'-        + &>!!>& +                 ",
"                       -'~~/{+).     + &>!!>& +                 ",
"   $%&&%$              =,'',=          _:<<:_                   ",
" . %;>>;% .            *=--=*          [}||}[                   ",
" + &>!!>& +                            -'~~'-           .++.    ",
" + &>!!>& +                            {/11/{                   ",
"   _:<<:_                              =,'',=          $%&&%$   ",
"   [}||}[                              *=--=*        . %;>>;% . ",
"   -'~~'-                                            + &>!!>& + ",
"   {/11/{                                            + &>!!>& + ",
"   =,'',=                  *=--=*                      _:<<:_   ",
"   *=--=*                  =,'',=                      [}||}[   ",
"            .++.           -'~~'-           .++.       -'~~'-   ",
"                           -'~~'-                      {/11/{   ",
"           $%&&%$          =,'',=          $%&&%$      =,'',=   ",
"         . %;>>;% .        *=--=*        . %;>>;% .    *=--=*   ",
"         + &>!!>& +                      + &>!!>& +         .++.",
"         + &>!!>& +                      + &>!!>& +             ",
"           _:<<:_                          _:<<:_          $%&&%",
"           [}||}[           22222222222222 [}||}[        . %;>>;",
"           -'~~'-           22222222222222 -'~~'-        ) &>!!>",
"           {/11/{       33224455555555554422331/{        + &>!!>",
"           =,'',=       3322445555555555442233',=      *={-]^>>;",
"           *=--=*     33224466555555555566442233*      =,/'(]&&%",
"    .++.              33224466555555555566442233       -'~~'-   ",
"                      33444455555555555555444433       -'~~/{+).",
"   $%&&%$             33444455555555555555444433       =,'',=   ",
" . %;>>;% .          .33444455555555555555444433       *=--=*   ",
" + &>!!>& +          +33444455555555555555444433                ",
" + &>!!>& +         332244445555555555555544442233              ",
"   _:<<:_           332244445555555555555544442233              ",
"   [}||}[           332244445555555555555544442233              ",
"   -'~~'-           332244445555555555555544442233  .++.        ",
"   {/11/{           332222445555555555553333222233              ",
"   =,'',=           332222445555555555553333222233 $%&&%$       ",
"   *=--=*           332222226655555533334422332233 %;>>;% .     ",
"            .++.    332222226655555533334422332233 &>!!>& +     ",
"                  7733222222666622334444444433223377>!!>& +     ",
"           $%&&%$ 7733222222666622334444444433223377:<<:_       ",
"         . %;>>;333388332222662222333344334444338833}||}[       ",
"         + &>!!>333388332222662222333344334444338833'~~'-       ",
"         + &>!33333388779922666666663333333344338833/11/{       ",
"           _:<33333388779922666666663333333344338833,'',=       ",
"           [3300003333778899aa2277777722aa88337733 *=--=*       ",
"           -3300003333778899aa2277777722aa88337733              ",
"           {33888833  338888bb3388888833bb888833{               ",
"           =33888833  338888bb3388888833bb888833=               ",
"           *=-3333      337788000000000088777733*               ",
"             #3333      337788000000000088777733                ",
"                        3333337788008877ccccdd33                ",
"           e            3333337788008877ccccdd33                ",
"                      22332222ff444444333333cc33                ",
"                .++.  22332222ff444444333333cc33                ",
"@@@@@@@@@@@@##########334422222222223333000033##@@@@@@@         ",
"               $%&&%$g334422222222223333000033     *=--=*       ",
"             . %;>>;%g3344442222ffffff33888833     =,'',=       ",
"             ) &>!!ggg3344442222ffffff33888833g    -'~~'-       ",
"             + &>!!ggg3344444422333333gg3333ggg    -'~~'-       ",
"           *={-]^>>ggg3344444422333333gg3333ggg    =,'',=       ",
"           =,/'(]&&ggggg33000033ggggggggggggggg    *=--=*       ",
"           -'~~'-  ggggg33000033ggggggggggggggg                 ",
"           -'~~/{+)ggggg33ffff33ggggggggggggggg                 ",
"           =,'',=    ggg33ffff33ggggggggggggg                   ",
"           *=--=*    ggggg3333ggggggggggggggg .                 ",
"    .++.               ggg3333ggggggggggggg>& +                 ",
"                       gggggggggggggggggggg>& +                 ",
"   $%&&%$              =,'',=          _:<<:_                   ",
" . %;>>;% .            *=--=*          [}||}[                   ",
" + &>!!>& +                            -'~~'-           .++.    ",
" + &>!!>& +                            {/11/{                   ",
"   _:<<:_                              =,'',=          $%&&%$   ",
"   [}||}[                              *=--=*        . %;>>;% . ",
"   -'~~'-                                            + &>!!>& + ",
"   {/11/{                                            + &>!!>& + ",
"   =,'',=                  *=--=*                      _:<<:_   ",
"   *=--=*                  =,'',=                      [}||}[   ",
"            .++.           -'~~'-           .++.       -'~~'-   ",
"                           -'~~'-                      {/11/{   ",
"           $%&&%$          =,'',=          $%&&%$      =,'',=   ",
"         . %;>>;% .        *=--=*          %;>>;% .    *=--=*   ",
"         + &>!!>& +                        &>!!>& +         .++.",
"         + &>!!>& +                      + &>!!>& +             ",
"           _:<<:_                          _:<<:_          $%&&%",
"           [}||}[                          [}||}[        . %;>>;",
"           -'~~'-           .++.           -'~~'-        ) &>!!>",
"           {/11/{                          {/11/{        + &>!!>",
"           =,'',=          $%&&%$          =,'',=      *={-]^>>;",
"           *=--=*        . %;>>;% .        *=--=*      =,/'(]&&%",
"    .++.                .h+&>!!>& + .++.               -'~~'-   ",
"                         + &>!!>& +                    -'~~/{+).",
"   $%&&%$              $%&&ij<k:_  $%&&%               =,'',=   ",
" . %;>>;% .          . %;>>jl|m}[. %;>>;  .            *=--=*   ",
" + &>!!>& +          + &>!!<|~1'-+ &>!!>  +                     ",
" + &>!!>& +          + &>!!km1n/{+ &>!!>& +                     ",
"   _:<<:_              _:<<op'/,=  _:<<:_                       ",
"   [}||}[              [}||pq-{=*  [}||}[                       ",
"   -'~~'-              -'~~'-      -'~~'-           .++.        ",
"   {/11/{              {/11/{ #    {/11/                        ",
"   =,'',=              =,'',=      =,'',=          $%&&%$       ",
"   *=--=*              *=--=*      *=--=*        . %;>>;% .     ",
"            .++.                            .++. + &>!!>& +     ",
"                                                 + &>!!>& +     ",
"           $%&&%$                          $%&&%$  _:<<:_       ",
"         . %;>>;% .                      . %;>>;% .[}||}[       ",
"         + &>!!>& +                      + &>!!>& +-'~~'-       ",
"         + &>!!>& +                      + &>!!>& +{/11/{       ",
"           _:<<:_          *=--=*          _:<<:_  =,'',=       ",
"           [}||}[          =,'',=          [}||}[  *=--=*       ",
"           -'~~'-          -'~~'-          -'~~'-               ",
"           {/11/{          -'~~'-          {/11/{               ",
"           =,'',=          =,'',=          =,'',=               ",
"           *=--=*          *=--=*          *=--=*               ",
"             ##                              ##                 ",
"                                                                ",
"           e                                                    "};
