/* XPM */
static char * player_f_xpm[] = {
"128 64 56 1",
" 	c #95CB74",
".	c #94CB74",
"+	c #94CB73",
"@	c #95CC74",
"#	c #96CC74",
"$	c #9ACE78",
"%	c #A3D37F",
"&	c #A7D582",
"*	c #93C974",
"=	c #8EC674",
"-	c #8BC475",
";	c #B8E090",
">	c #C3E799",
",	c #80BC75",
"'	c #77B675",
")	c #95CB73",
"!	c #D1F0A4",
"~	c #69AD76",
"{	c #8BC474",
"]	c #9CCE7F",
"^	c #B6DE90",
"/	c #76B675",
"(	c #86BF79",
"_	c #000000",
":	c #486060",
"<	c #384040",
"[	c #A0D17F",
"}	c #B3DB90",
"|	c #BDE199",
"1	c #F8B020",
"2	c #93C978",
"3	c #90C480",
"4	c #8EC284",
"5	c #B87020",
"6	c #68AD75",
"7	c #784040",
"8	c #282838",
"9	c #D8A078",
"0	c #9890B0",
"a	c #E8E8F8",
"b	c #93CA73",
"c	c #F8D0B8",
"d	c #ADD889",
"e	c #B7DE93",
"f	c #BCE199",
"g	c #9ECC89",
"h	c #8DC183",
"i	c #66AC75",
"j	c #B8B0D0",
"k	c #AED691",
"l	c #8DC280",
"m	c #8CC379",
"n	c #F06848",
"o	c #C03838",
"p	c #9088A8",
"q	c #50875A",
"                                                                                                                                ",
"                .++.                                                            .++.                                            ",
"@@@@@@@@@@@@################@@@@################@@@@@@@         @@@@@@@@@@@@################@@@@################@@@@@@@         ",
"               $%&&%$                              *=--=*                      $%&&%$                              *=--=*       ",
"             . %;>>;% .                            =,'',=                    . %;>>;% .                            =,'',=       ",
"             ) &>!!>& +     .++.                   -'~~'-                    ) &>!!>& +     .++.                   -'~~'-       ",
"             + &>!!>& +                            -'~~'-                    + &>!!>& +                            -'~~'-       ",
"           *={-]^>>;% .    $%&&%$                  =,'',=                  *={-]^>>;% .    $%&&%$                  =,'',=       ",
"           =,/'(]&&%$    . %;>>;% .                *=--=*                  =,/'(]&&%$    . %;>>;% .                *=--=*       ",
"           -'~~'-        ) &>!!>& +     .++.                               -'~~'-        ) &>!!>& +     .++.                    ",
"           -'~~/{+).     + &>!!>& +                                        -'~~/{+).     + &>!!>& +                             ",
"           =,'',=      *={-]^>>;% .    $%&&%$                              =,'',=      *={-]^>>;% .    $%&&%$                   ",
"           *=--=*      =,/'(]&&%$    . %;>>;__________                     *=--=*      =,/'(]&&%$    . %;>>;% .                 ",
"    .++.               -'~~'-        + &>!!>__________              .++.               -'~~'-        + &>!!>& +                 ",
"                       -'~~/{+).     + &____::::::::<<____                             -'~~/{+).     + &>!!>& +                 ",
"   $%&&%$              =,'',=          [____::::::::<<____         $%&&%$              =,'',=          [}||}[                   ",
" . %;>>;% .            *=--=*         __1111111111111111<<__     . %;>>;% .            *=--=*          234432                   ",
" + &>!!>& +                           __1111111111111111<<__     + &>!!>& +                            -'~~'-           .++.    ",
" + &>!!>& +                         __1111111111111111111155____ + &>!!>& +                            {/66/{                   ",
"   [}||}[                           __1111111111111111111155____   [}||}[                              =,'',=          $%&&%$   ",
"   234432                           771111111111111111111155__::__ 234432                              *=--=*        . %;>>;% . ",
"   -'~~'-                           771111111111111111111155__::__ -'~~'-                                            + &>!!>& + ",
"   {/66/{                       <<<<55551111::::::::::115555<<::::__/66/{                                            + &>!!>& + ",
"   =,'',=                  *=--=<<<<55551111::::::::::115555<<::::__,'',=                  *=--=*                      [}||}[   ",
"   *=--=*                  =,'<<::::<<5555<<::::::::<<<<5555<<::::__=--=*                  =,'',=                      234432   ",
"            .++.           -'~<<::::<<5555<<::::::::<<<<5555<<::::__        .++.           -'~~'-           .++.       -'~~'-   ",
"                           -'~<<::::<<55<<<<<<<<<<<<<<<<<<55<<::::__                       -'~~'-                      {/66/{   ",
"           $%&&%$          =,'<<::::<<55<<<<<<<<<<<<<<<<<<55<<::::__       $%&&%$          =,'',=          $%&&%$      =,'',=   ",
"         . %;>>;% .        *=--=::<<5555<<<<<<<<<<<<<<<<<<__::::88__     . %;>>;% .        *=--=*        . %;>>;% .    *=--=*   ",
"         + &>!!>& +             ::<<5555<<<<<<<<<<<<<<<<<<__::::88__     + &>!!>& +                      + &>!!>& +         .++.",
"         + &>!!>& +             <<::__55<<<<<<<<<<<<<<____::::<<__       + &>!!>& +                      + &>!!>& +             ",
"           [}||}[               <<::__55<<<<<<<<<<<<<<____::::<<__         [}||}[                          [}||}[          $%&&%",
"           234432                 <<__7777888888888888888888____           234432                          234432        . %;>>;",
"           -'~~'-           .++.  <<__7777888888888888888888____           -'~~'-           .++.           -'~~'-        ) &>!!>",
"           {/66/{                   7799__0099<<99<<<<<<<<<<__!>           {/66/{                          {/66/{        + &>!!>",
"           =,'',=          $%&&%$   7799__0099<<99<<<<<<<<<<__>;           =,'',=          $%&&%$          =,'',=      *={-]^>>;",
"           *=--=*        . %;>>;% . 7799__aa99999999<<<<<<<<__&%           *=--=*        . %;>>;% .        *=--=*      =,/'(]&&%",
"    .++.                .b+&>!!>& + 7799__aa99999999<<<<<<<<__      .++.                .b+&>!!>& + .++.               -'~~'-   ",
"                         + &>!!>& + 99cccccccc999999<<<<____{+).                         + &>!!>& +                    -'~~/{+).",
"   $%&&%$              $%&&de|f}[  $99cccccccc999999<<<<____=      $%&&%$              $%&&de|f}[  $%&&%$              =,'',=   ",
" . %;>>;% .          . %;>>eg4h32. %;>99cccc999999777700__-=*    . %;>>;% .          . %;>>eg4h32. %;>>;% .            *=--=*   ",
" + &>!!>& +          + &>!!|4~6'-+ &>!99cccc999999777700__       + &>!!>& +          + &>!!|4~6'-+ &>!!>& +                     ",
" + &>!!>& +          + &>!!fh6i/{+ &>!!>& 007777__jjjjaa__       + &>!!>& +          + &>!!fh6i/{+ &>!!>& +                     ",
"   [}||}[              [}||kl'/,=  [}||}[ 007777__jjjjaa__         [}||}[              [}||kl'/,=  [}||}[                       ",
"   234432              2344lm-{=*  2344300aa88::<<__jj<<jj__       234432              2344lm-{=*  234432                       ",
"   -'~~'-              -'~~'-      -'~~'00aa88::<<__jj<<jj__       -'~~'-              -'~~'-      -'~~'-           .++.        ",
"   {/66/{              {/66/{ #    {/66/0077__nnnn__<<aajj__       {/66/{              {/66/{ #    {/66/{                       ",
"   =,'',=              =,'',=      =,'',0077__nnnn__<<aajj__       =,'',=              =,'',=      =,'',=          $%&&%$       ",
"   *=--=*              *=--=*      *=--=77oo__oooo__::aajj__       *=--=*              *=--=*      *=--=*        . %;>>;% .     ",
"            .++.                        77oo__oooo__::aajj__                .++.                            .++. + &>!!>& +     ",
"                                  00007777oo77__cc99__::pp__                                                     + &>!!>& +     ",
"           $%&&%$                 00007777oo77__cc99__::pp__               $%&&%$                          $%&&%$  [}||}[       ",
"         . %;>>;% .               __aa77cc::::__cc99______q              . %;>>;% .                      . %;>>;% .234432       ",
"         + &>!!>& +              q__aa77cc::::__cc99______qqq            + &>!!>& +                      + &>!!>& +-'~~'-       ",
"         + &>!!>& +              qqq__00<<<<________<<<<__qqq            + &>!!>& +                      + &>!!>& +{/66/{       ",
"           [}||}[          *=--=*qqq__00<<<<________<<<<__qqq              [}||}[          *=--=*          [}||}[  =,'',=       ",
"           234432          =,'',=qqqqq____qqqqqqqqqq____qqqqq              234432          =,'',=          234432  *=--=*       ",
"           -'~~'-          -'~~'-qqqqq____qqqqqqqqqq____qqqqq              -'~~'-          -'~~'-          -'~~'-               ",
"           {/66/{          -'~~'-qqqqqqqqqqqqqqqqqqqqqqqqqqqq              {/66/{          -'~~'-          {/66/{               ",
"           =,'',=          =,'',=  qqqqqqqqqqqqqqqqqqqqqqqq                =,'',=          =,'',=          =,'',=               ",
"           *=--=*          *=--=*  qqqqqqqqqqqqqqqqqqqqqqqq                *=--=*          *=--=*          *=--=*               ",
"             ##                      qqqqqqqqqqqqqqqqqqqq                    ##                              ##                 ",
"                                     qqqqqqqqqqqqqqqqqqqq                                                                       ",
"                                                                                                                                "};
