/* XPM */
static char * player_c_xpm[] = {
"64 64 47 1",
" 	c #95CB74",
".	c #94CB74",
"+	c #94CB73",
"@	c #95CC74",
"#	c #96CC74",
"$	c #9ACE78",
"%	c #A3D37F",
"&	c #A7D582",
"*	c #93C974",
"=	c #8EC674",
"-	c #8BC475",
";	c #B8E090",
">	c #C3E799",
",	c #80BC75",
"'	c #77B675",
")	c #95CB73",
"!	c #D1F0A4",
"~	c #69AD76",
"{	c #8BC474",
"]	c #9CCE7F",
"^	c #B6DE90",
"/	c #76B675",
"(	c #86BF79",
"_	c #000000",
":	c #A0D17F",
"<	c #B3DB90",
"[	c #BDE199",
"}	c #486060",
"|	c #384040",
"1	c #8EC284",
"2	c #90C480",
"3	c #93C978",
"4	c #F8B020",
"5	c #B87020",
"6	c #68AD75",
"7	c #784040",
"8	c #282838",
"9	c #D8A078",
"0	c #9890B0",
"a	c #E8E8F8",
"b	c #F8D0B8",
"c	c #B8B0D0",
"d	c #C03838",
"e	c #F06848",
"f	c #50875A",
"g	c #9088A8",
"h	c #91C772",
"                                                                ",
"                .++.                                            ",
"@@@@@@@@@@@@################@@@@################@@@@@@@         ",
"               $%&&%$                              *=--=*       ",
"             . %;>>;% .                            =,'',=       ",
"             ) &>!!>& +     .++.                   -'~~'-       ",
"             + &>!!>& +                            -'~~'-       ",
"           *={-]^>>;% .    $%&&%$                  =,'',=       ",
"           =,/'(]&&%$    . %;>>;% .                *=--=*       ",
"           -'~~'-        ) &>!!>& +     .++.                    ",
"           -'~~/{+).     + &>!!>& +                             ",
"           =,'',=      *={-]^>>;% .    $%&&%$                   ",
"           *=--=*      =,/'(]&&%$    . %;>>;% .                 ",
"    .++.               -'~~'-        + &>!!>& +                 ",
"                       -'~~/__________ &>!!>& +                 ",
"   $%&&%$              =,'',__________ :<[[<:                   ",
" . %;>>;% .            *____}}}}}}}}||____123                   ",
" + &>!!>& +             ____}}}}}}}}||____~'-           .++.    ",
" + &>!!>& +           __4444444444444444||__{                   ",
"   :<[[<:             __4444444444444444||__=          $%&&%$   ",
"   321123           __4444444444444444444455____     . %;>>;% . ",
"   -'~~'-           __4444444444444444444455____     + &>!!>& + ",
"   {/66/{           774444444444444444444455__}}__   + &>!!>& + ",
"   =,'',=           774444444444444444444455__}}__     :<[[<:   ",
"   *=--=*       ||||55554444}}}}}}}}}}445555||}}}}__   321123   ",
"            .++.||||55554444}}}}}}}}}}445555||}}}}__   -'~~'-   ",
"              ||}}}}||5555||}}}}}}}}||||5555||}}}}__   {/66/{   ",
"           $%&||}}}}||5555||}}}}}}}}||||5555||}}}}__   =,'',=   ",
"         . %;>||}}}}||55||||||||||||||||||55||}}}}__   *=--=*   ",
"         + &>!||}}}}||55||||||||||||||||||55||}}}}__        .++.",
"         + &>!!>}}||5555||||||||||||||||||__}}}}88__            ",
"           :<[[<}}||5555||||||||||||||||||__}}}}88__       $%&&%",
"           32112||}}__55||||||||||||||____}}}}||__       . %;>>;",
"           -'~~'||}}__55||||||||||||||____}}}}||__       ) &>!!>",
"           {/66/{ ||__7777888888888888888888____{        + &>!!>",
"           =,'',= ||__7777888888888888888888____=      *={-]^>>;",
"           *=--=*   7799__0099||99||||||||||__-=*      =,/'(]&&%",
"    .++.            7799__0099||99||||||||||__         -'~~'-   ",
"                    7799__aa99999999||||||||__         -'~~/{+).",
"   $%&&%$           7799__aa99999999||||||||__         =,'',=   ",
" . %;>>;% .         99bbbbbbbb999999||||88__           *=--=*   ",
" + &>!!>& +         99bbbbbbbb999999||||88__                    ",
" + &>!!>& +          +99bbbb999999777700__+                     ",
"   :<[[<:             99bbbb999999777700__                      ",
"   321123              321007777__ccccaa__                      ",
"   -'~~'-              -'~007777__ccccaa__          .++.        ",
"   {/66/{              {00aa88dd77__cc||cc__                    ",
"   =,'',=              =00aa88dd77__cc||cc__       $%&&%$       ",
"   *=--=*              *00__eeee77__}}aacc__     . %;>>;% .     ",
"            .++.       f00__eeee77__}}aacc__.++. + &>!!>& +     ",
"                       f77__dddd77__}}aacc__     + &>!!>& +     ",
"           $%&&%$  fffff77__dddd77__}}aacc__%&&%$  :<[[<:       ",
"         . %;>>;% .fffff__99bb7777____}}gg__;>>;% .321123       ",
"         + &>!!>&fffffff__99bb7777____}}gg__f!!>& +-'~~'-       ",
"         + &>!!>&fffffff||99bb77||||______fff!!>& +{/66/{       ",
"           :<[[<:fffffff||99bb77||||______fff[[<:  =,'',=       ",
"           321123fffffffff____ccgggg__fffffff1123  *=--=*       ",
"           -'~~'-fffffffff____ccgggg__fffffff~~'-               ",
"           {/66/{fffffffffff________fffffffff66/{               ",
"           =,'',=  fffffffff________fffffff=,'',=               ",
"           *=--=*  ffffffffffffffffffffffff*=--=*               ",
"             ##      ffffffffffffffffffff    ##                 ",
"                     ffffffffffffffffffff                       ",
"           h                                                    "};
