/* XPM */
static char * player_8_xpm[] = {
"64 64 45 1",
" 	c #95CB74",
".	c #94CB74",
"+	c #94CB73",
"@	c #95CC74",
"#	c #96CC74",
"$	c #9ACE78",
"%	c #A3D37F",
"&	c #A7D582",
"*	c #93C974",
"=	c #8EC674",
"-	c #8BC475",
";	c #B8E090",
">	c #C3E799",
",	c #80BC75",
"'	c #77B675",
")	c #95CB73",
"!	c #D1F0A4",
"~	c #69AD76",
"{	c #8BC474",
"]	c #9CCE7F",
"^	c #B6DE90",
"/	c #76B675",
"(	c #86BF79",
"_	c #384040",
":	c #A0D17F",
"<	c #B3DB90",
"[	c #BDE199",
"}	c #000000",
"|	c #486060",
"1	c #F8B020",
"2	c #8EC284",
"3	c #90C480",
"4	c #93C978",
"5	c #B87020",
"6	c #68AD75",
"7	c #784040",
"8	c #D8A078",
"9	c #282838",
"0	c #9890B0",
"a	c #E8E8F8",
"b	c #F8D0B8",
"c	c #C03838",
"d	c #B8B0D0",
"e	c #50875A",
"f	c #91C772",
"                                                                ",
"                .++.                                            ",
"@@@@@@@@@@@@################@@@@################@@@@@@@         ",
"               $%&&%$                              *=--=*       ",
"             . %;>>;% .                            =,'',=       ",
"             ) &>!!>& +     .++.                   -'~~'-       ",
"             + &>!!>& +                            -'~~'-       ",
"           *={-]^>>;% .    $%&&%$                  =,'',=       ",
"           =,/'(]&&%$    . %;>>;% .                *=--=*       ",
"           -'~~'-        ) &>!!>& +     .++.                    ",
"           -'~~/{+).     + &>!!>& +                             ",
"           =,'',=      *={-]^>>;% .    $%&&%$                   ",
"           *=--=*      =,/'(]&&%$    . %;>>;% .                 ",
"    .++.               -'~~'-        + &>!!>& +                 ",
"                       -______________ &>!!>& +                 ",
"   $%&&%$              =______________ :<[[<:                   ",
" . %;>>;% .         }}__||1111111111||__}}234                   ",
" + &>!!>& +         }}__||1111111111||__}}~'-           .++.    ",
" + &>!!>& +       }}__||55111111111155||__}}{                   ",
"   :<[[<:         }}__||55111111111155||__}}=          $%&&%$   ",
"   432234         }}||||11111111111111||||}}*        . %;>>;% . ",
"   -'~~'-         }}||||11111111111111||||}}         + &>!!>& + ",
"   {/66/{         }}||||11111111111111||||}}         + &>!!>& + ",
"   =,'',=         }}||||11111111111111||||}}           :<[[<:   ",
"   *=--=*       }}__||||11111111111111||||__}}         432234   ",
"            .++.}}__||||11111111111111||||__}}+.       -'~~'-   ",
"                }}__||||11111111111111||||__}}         {/66/{   ",
"           $%&&%}}__||||11111111111111||||__}}&%$      =,'',=   ",
"         . %;>>;}}____}}}}111111111111||____}}>;% .    *=--=*   ",
"         + &>!!>}}____}}}}111111111111||____}}!>& +         .++.",
"         + &>!!>}}__}}__||}}}}11111155______}}!>& +             ",
"           :<[[<}}__}}__||}}}}11111155______}}[<:          $%&&%",
"           43277}}__}}||||||||}}__5555______}}774        . %;>>;",
"           -'~77}}__}}||||||||}}__5555______}}77-        ) &>!!>",
"           {/6}}88}}||||}}||}}}}____55____}}88}}{        + &>!!>",
"           =,'}}88}}||||}}||}}}}____55____}}88}}=      *={-]^>>;",
"           *=-}}88}}||}}}}}}}}55555555__997788}}*      =,/'(]&&%",
"    .++.      }}88}}||}}}}}}}}55555555__997788}}       -'~~'-   ",
"                }}77}}8800__777777__00998877}}         -'~~/{+).",
"   $%&&%$       }}77}}8800__777777__00998877}}         =,'',=   ",
" . %;>>;% .       }}8888aa}}888888}}aa8888}}           *=--=*   ",
" + &>!!>& +       }}8888aa}}888888}}aa8888}}                    ",
" + &>!!>& +       }}}}7788bbbbbbbbbb8877}}}}                    ",
"   :<[[<:         }}}}7788bbbbbbbbbb8877}}}}                    ",
"   432234       }}bbbb__}}7788bb8877}}__bbbb}}                  ",
"   -'~~'-       }}bbbb__}}7788bb8877}}__bbbb}}      .++.        ",
"   {/66/{       }}8888__ccdd||||||ddcc__8888}}                  ",
"   =,'',=       }}8888__ccdd||||||ddcc__8888}}     $%&&%$       ",
"   *=--=*         }}}}}}ccccdd||ddcccc}}}}}}     . %;>>;% .     ",
"            .++.  }}}}}}ccccdd||ddcccc}}}}}}.++. + &>!!>& +     ",
"                    }}||__cccccccccc__||}}       + &>!!>& +     ",
"           $%&&%$  e}}||__cccccccccc__||}}e$%&&%$  :<[[<:       ",
"         . %;>>;% .e}}dddd}}__||__}}dddd}}e%;>>;% .432234       ",
"         + &>!!>&eee}}dddd}}__||__}}dddd}}eee!!>& +-'~~'-       ",
"         + &>!!>&eeeee}}}}eeeeeeeeee}}}}eeeee!!>& +{/66/{       ",
"           :<[[<:eeeee}}}}eeeeeeeeee}}}}eeeee[[<:  =,'',=       ",
"           432234eeeeeeeeeeeeeeeeeeeeeeeeeeee2234  *=--=*       ",
"           -'~~'-eeeeeeeeeeeeeeeeeeeeeeeeeeee~~'-               ",
"           {/66/{eeeeeeeeeeeeeeeeeeeeeeeeeeee66/{               ",
"           =,'',=  eeeeeeeeeeeeeeeeeeeeeeee=,'',=               ",
"           *=--=*  eeeeeeeeeeeeeeeeeeeeeeee*=--=*               ",
"             ##      eeeeeeeeeeeeeeeeeeee    ##                 ",
"                     eeeeeeeeeeeeeeeeeeee                       ",
"           f                                                    "};
