/* XPM */
static char * player_3_xpm[] = {
"64 128 55 1",
" 	c #95CB74",
".	c #94CB74",
"+	c #94CB73",
"@	c #95CC74",
"#	c #96CC74",
"$	c #9ACE78",
"%	c #A3D37F",
"&	c #A7D582",
"*	c #93C974",
"=	c #8EC674",
"-	c #8BC475",
";	c #B8E090",
">	c #C3E799",
",	c #80BC75",
"'	c #77B675",
")	c #95CB73",
"!	c #D1F0A4",
"~	c #69AD76",
"{	c #8BC474",
"]	c #9CCE7F",
"^	c #B6DE90",
"/	c #76B675",
"(	c #86BF79",
"_	c #A0D17F",
":	c #B3DB90",
"<	c #BDE199",
"[	c #93C978",
"}	c #90C480",
"|	c #8EC284",
"1	c #68AD75",
"2	c #384040",
"3	c #B87020",
"4	c #000000",
"5	c #486060",
"6	c #F8B020",
"7	c #282838",
"8	c #D8A078",
"9	c #784040",
"0	c #C03838",
"a	c #B8B0D0",
"b	c #E8E8F8",
"c	c #9088A8",
"d	c #91C772",
"e	c #F8D0B8",
"f	c #50875A",
"g	c #93CA73",
"h	c #ADD889",
"i	c #B7DE93",
"j	c #BCE199",
"k	c #9ECC89",
"l	c #8DC183",
"m	c #66AC75",
"n	c #AED691",
"o	c #8DC280",
"p	c #8CC379",
"                                                                ",
"                .++.                                            ",
"@@@@@@@@@@@@################@@@@################@@@@@@@         ",
"               $%&&%$                              *=--=*       ",
"             . %;>>;% .                            =,'',=       ",
"             ) &>!!>& +     .++.                   -'~~'-       ",
"             + &>!!>& +                            -'~~'-       ",
"           *={-]^>>;% .    $%&&%$                  =,'',=       ",
"           =,/'(]&&%$    . %;>>;% .                *=--=*       ",
"           -'~~'-        ) &>!!>& +     .++.                    ",
"           -'~~/{+).     + &>!!>& +                             ",
"           =,'',=      *={-]^>>;% .    $%&&%$                   ",
"           *=--=*      =,/'(]&&%$    . %;>>;% .                 ",
"    .++.               -'~~'-        + &>!!>& +                 ",
"                       -'~~/{+).     + &>!!>& +                 ",
"   $%&&%$              =,'',=          _:<<:_                   ",
" . %;>>;% .            *=--=*          [}||}[                   ",
" + &>!!>& +                            -'~~'-           .++.    ",
" + &>!!>& +                            {/11/{                   ",
"   _:<<:_                              =,'',=          $%&&%$   ",
"   [}||}[                              *=--=*        . %;>>;% . ",
"   -'~~'-                                            + &>!!>& + ",
"   {/11/{                                            + &>!!>& + ",
"   =,'',=                  *=--=*                      _:<<:_   ",
"   *=--=*                  =,'',=                      [}||}[   ",
"            .++.           -'~~'-           .++.       -'~~'-   ",
"                      22333333333322                   {/11/{   ",
"           $%&&%$     22333333333322       $%&&%$      =,'',=   ",
"         . %;>>;% 4422556666666666552244 . %;>>;% .    *=--=*   ",
"         + &>!!>& 4422556666666666552244 + &>!!>& +         .++.",
"         + &>!!>44225555666666666655552244 &>!!>& +             ",
"           _:<<:44225555666666666655552244 _:<<:_          $%&&%",
"           [}||}44555566666666666666555544 [}||}[        . %;>>;",
"           -'~~'44555566666666666666555544 -'~~'-        ) &>!!>",
"           {/1442255556666666666666655552244/11/{        + &>!!>",
"           =,'442255556666666666666655552244,'',=      *={-]^>>;",
"           *=-442255556666666666666655552244=--=*      =,/'(]&&%",
"    .++.      442255556666666666666655552244           -'~~'-   ",
"              442222556666666666666655222244           -'~~/{+).",
"   $%&&%$     442222556666666666666655222244           =,'',=   ",
" . %;>>;% .   442222223366666666663322222244           *=--=*   ",
" + &>!!>& +   442222223366666666663322222244                    ",
" + &>!!>& +   447722223333333333333322227744                    ",
"   _:<<:_     447722223333333333333322227744                    ",
"   [}||}[   4488447722223333333333222277448844                  ",
"   -'~~'-   4488447722223333333333222277448844      .++.        ",
"   {/11/{   4488445577772222222222777755448844                  ",
"   =,'',=   4488445577772222222222777755448844     $%&&%$       ",
"   *=--=*     449944555555555555555555449944     . %;>>;% .     ",
"            .+449944555555555555555555449944.++. + &>!!>& +     ",
"                444422555555555555552244448844   + &>!!>& +     ",
"           $%&&%444422555555555555552244448844&%$  _:<<:_       ",
"         . %;>>;% 4444444444444444444499008844>;% .[}||}[       ",
"         + &>!!>& 4444444444444444444499008844!>& +-'~~'-       ",
"         + &>!!>& + 772222aaaaaa222277000044>!!>& +{/11/{       ",
"           _:<<:_   772222aaaaaa222277000044:<<:_  =,'',=       ",
"           [}||}[ 44999999994422bbcc990044 [}||}[  *=--=*       ",
"           -'~~'- 44999999994422bbcc990044 -'~~'-               ",
"           {/11/{ 4499994422bbbbaaaa4444   {/11/{               ",
"           =,'',= 4499994422bbbbaaaa4444   =,'',=               ",
"           *=--=* 994444ccaaaaaaaa554444   *=--=*               ",
"             ##   994444ccaaaaaaaa554444     ##                 ",
"                44444444ccaaaa5555444455                        ",
"           d    44444444ccaaaa5555444455                        ",
"              44eeee44554455555544555544                        ",
"              44eeee44554455555544555544                        ",
"@@@@@@@@@@@@##44888899442222444444555544########@@@@@@@         ",
"              44888899442222444444555544fff        *=--=*       ",
"             . %4444ffffff44224422222244fff        =,'',=       ",
"             ) &4444ffffff44224422222244fffff      -'~~'-       ",
"             + &>fffffffffffff44eeee44fffffff      -'~~'-       ",
"           *={-]^fffffffffffff44eeee44fffffff      =,'',=       ",
"           =,/'(]fffffffffffff44aaaa44fffffff      *=--=*       ",
"           -'~~'-fffffffffffff44aaaa44fffffff                   ",
"           -'~~/{fffffffffffffff4444fffffffff                   ",
"           =,'',=  fffffffffffff4444fffffff%$                   ",
"           *=--=*  ffffffffffffffffffffffff;% .                 ",
"    .++.             ffffffffffffffffffff!!>& +                 ",
"                     ffffffffffffffffffff!!>& +                 ",
"   $%&&%$            ffffffffffffffffffff<<:_                   ",
" . %;>>;% .            *=--=*          [}||}[                   ",
" + &>!!>& +                            -'~~'-           .++.    ",
" + &>!!>& +                            {/11/{                   ",
"   _:<<:_                              =,'',=          $%&&%$   ",
"   [}||}[                              *=--=*        . %;>>;% . ",
"   -'~~'-                                            + &>!!>& + ",
"   {/11/{                                            + &>!!>& + ",
"   =,'',=                  *=--=*                      _:<<:_   ",
"   *=--=*                  =,'',=                      [}||}[   ",
"            .++.           -'~~'-           .++.       -'~~'-   ",
"                           -'~~'-                      {/11/{   ",
"           $%&&%$          =,'',=          $%&&%$      =,'',=   ",
"         . %;>>;% .        *=--=*          %;>>;% .    *=--=*   ",
"         + &>!!>& +                        &>!!>& +         .++.",
"         + &>!!>& +                      + &>!!>& +             ",
"           _:<<:_                          _:<<:_          $%&&%",
"           [}||}[                          [}||}[        . %;>>;",
"           -'~~'-           .++.           -'~~'-        ) &>!!>",
"           {/11/{                          {/11/{        + &>!!>",
"           =,'',=          $%&&%$          =,'',=      *={-]^>>;",
"           *=--=*        . %;>>;% .        *=--=*      =,/'(]&&%",
"    .++.                .g+&>!!>& + .++.               -'~~'-   ",
"                         + &>!!>& +                    -'~~/{+).",
"   $%&&%$              $%&&hi<j:_  $%&&%               =,'',=   ",
" . %;>>;% .          . %;>>ik|l}[. %;>>;  .            *=--=*   ",
" + &>!!>& +          + &>!!<|~1'-+ &>!!>  +                     ",
" + &>!!>& +          + &>!!jl1m/{+ &>!!>& +                     ",
"   _:<<:_              _:<<no'/,=  _:<<:_                       ",
"   [}||}[              [}||op-{=*  [}||}[                       ",
"   -'~~'-              -'~~'-      -'~~'-           .++.        ",
"   {/11/{              {/11/{ #    {/11/                        ",
"   =,'',=              =,'',=      =,'',=          $%&&%$       ",
"   *=--=*              *=--=*      *=--=*        . %;>>;% .     ",
"            .++.                            .++. + &>!!>& +     ",
"                                                 + &>!!>& +     ",
"           $%&&%$                          $%&&%$  _:<<:_       ",
"         . %;>>;% .                      . %;>>;% .[}||}[       ",
"         + &>!!>& +                      + &>!!>& +-'~~'-       ",
"         + &>!!>& +                      + &>!!>& +{/11/{       ",
"           _:<<:_          *=--=*          _:<<:_  =,'',=       ",
"           [}||}[          =,'',=          [}||}[  *=--=*       ",
"           -'~~'-          -'~~'-          -'~~'-               ",
"           {/11/{          -'~~'-          {/11/{               ",
"           =,'',=          =,'',=          =,'',=               ",
"           *=--=*          *=--=*          *=--=*               ",
"             ##                              ##                 ",
"                                                                ",
"           d                                                    "};
