/* XPM */
static char * fire_xpm[] = {
"32 160 9 1",
" 	c None",
".	c #FF0000",
"+	c #FF6210",
"@	c #9C0000",
"#	c #FF9418",
"$	c #FFFFA4",
"%	c #FFC520",
"&	c #FFFF7B",
"*	c #FFFFFF",
"                                ",
"                                ",
"                                ",
"                                ",
"                                ",
"                                ",
"                                ",
"                                ",
"                                ",
"                                ",
"                                ",
"                                ",
"                                ",
"                                ",
"                .               ",
"                +               ",
"               .+@              ",
"               +#.              ",
"              .$#+              ",
"              +$$+              ",
"               ##               ",
"                                ",
"                                ",
"                                ",
"                                ",
"                                ",
"                                ",
"                                ",
"                                ",
"                                ",
"                                ",
"                                ",
"                                ",
"                                ",
"                                ",
"                                ",
"                                ",
"                                ",
"           .                    ",
"                                ",
"             .                  ",
"              .+                ",
"               #+.              ",
"               .#+.             ",
"                .#.   .         ",
"               +#%+.            ",
"              +#$+++            ",
"             ..+++#+            ",
"             ++#%+%#.           ",
"            .+#%&%##+           ",
"            +#%$**%+.           ",
"            +#&**&%.            ",
"            .+%$$%+.            ",
"             .+%%+.             ",
"              .+..              ",
"                                ",
"                                ",
"                                ",
"                                ",
"                                ",
"                                ",
"                                ",
"                                ",
"                                ",
"                                ",
"                                ",
"                         +      ",
"                            @   ",
"                                ",
"                  +.     .      ",
"            +      +.   %+      ",
"         @          .   .       ",
"         .+          ..     .   ",
"         +          ..+.    +.  ",
"              @    @..#..  +%+  ",
"            .+     ....+.  .+.  ",
"           .+    ....++#.   .   ",
"           .+. ....++##+. .     ",
"          .+...++++#%%+.        ",
"          .#.#+#%#++#++. .      ",
"          .%.+%&&&#+.+ +.#      ",
"          ..+%&**&%#+.+%#       ",
"      @    .#&****&#++%#        ",
"           +%&****&%+%#  +      ",
"           +#&&**&%#++++.       ",
"           .+#%&&%#+%#.@   @    ",
"            .++#%#++.           ",
"              .+++.             ",
"                                ",
"                                ",
"                                ",
"                                ",
"                                ",
"                                ",
"                                ",
"                                ",
"                       .        ",
"                  .+            ",
"                 .+             ",
"                 @+             ",
"                        .       ",
"             .          .       ",
"            .+         .+       ",
"            +         ..+       ",
"                 @@...+.        ",
"             @.......+..        ",
"           .......+++..         ",
"          .......##+..          ",
"          ...+++....            ",
"      +  ..++++...              ",
"         .+#++...     .  @      ",
"         .+%+...     .+         ",
"         ..+...++.  ...         ",
"          ....+##++...@   @     ",
"            .+#%%#+...          ",
"            .+#&&%#+.@          ",
"            .+#%%#+..           ",
"             .++++..   +        ",
"              ....              ",
"                                ",
"                                ",
"                                ",
"                                ",
"                                ",
"                                ",
"                                ",
"                                ",
"                                ",
"                                ",
"                                ",
"                  .             ",
"                                ",
"                                ",
"                                ",
"           @           .        ",
"                @.              ",
"                  ..            ",
"                   +.           ",
"                   .#. @        ",
"           .      ..#.          ",
"          @     +.##..          ",
"              @......           ",
"             ..+...             ",
"             .                  ",
"            @     @  @          ",
"            .   +   @.          ",
"               .# ....          ",
"              .#%+.+.           ",
"               .+.+.            ",
"                                ",
"                                ",
"                                ",
"                                ",
"                                ",
"                                ",
"                                ",
"                                ",
"                                ",
"                                ",
"                                "};
