/* XPM */
static char * ball_throw_xpm[] = {
"16 192 8 1",
" 	c None",
".	c #414141",
"+	c #AC0000",
"@	c #D52929",
"#	c #FF9C7B",
"$	c #830000",
"%	c #FFFFFF",
"&	c #949494",
"                ",
"                ",
"                ",
"                ",
"      ....      ",
"    ..++++..    ",
"   .+@#@@++$.   ",
"   .@#%#@@++.   ",
"  .+@@#@@@++$.  ",
"  .@@@@..+++$.  ",
"  ..@@.%&.+$..  ",
"  .%...&&...&.  ",
"   .%%%..&&&.   ",
"   .&%%%&&&&.   ",
"    ..&&&&..    ",
"      ....      ",
"                ",
"                ",
"                ",
"                ",
"      ....      ",
"    ..++++..    ",
"   .+@#@@++$.   ",
"   .@#%#@@++.   ",
"  .+@@#@@@++$.  ",
"  .@@@@@@+++$.  ",
"  .@@@@@@++$$.  ",
"  .@@@@..+$$$.  ",
"   ..+.%&.$..   ",
"   .%..&&..&.   ",
"    ..%..&..    ",
"      ....      ",
"                ",
"                ",
"                ",
"                ",
"      ....      ",
"    ..++++..    ",
"   .+@#@@++$.   ",
"   .@#%#@@++.   ",
"  .+@@#@@@@+$.  ",
"  .+@@@@@@@+$.  ",
"  .@@@@@@@++$.  ",
"  .+@@@@@+++$.  ",
"   .+@@@+++$.   ",
"   .+++..$$$.   ",
"    ...&&...    ",
"      ....      ",
"                ",
"                ",
"                ",
"                ",
"      ....      ",
"    ...%&...    ",
"   .+@#..++$.   ",
"   .@#%#@@++.   ",
"  .+@@#@@@++$.  ",
"  .+@@@@@@++$.  ",
"  .@@@@@@+++$.  ",
"  .@@@@@++++$.  ",
"   .++@++++$.   ",
"   .+++++$$$.   ",
"    ..$$$$..    ",
"      ....      ",
"                ",
"                ",
"                ",
"                ",
"      ....      ",
"    ..%..&..    ",
"   .%%.%&.&&.   ",
"   .%..&&..&.   ",
"  .%.##..@+.&.  ",
"  ..@@##@@++..  ",
"  .@@@@@@+++$.  ",
"  .@@@@@++++$.  ",
"   .+@+++++$.   ",
"   .+++++$$$.   ",
"    ..$$$$..    ",
"      ....      ",
"                ",
"                ",
"                ",
"                ",
"      ....      ",
"    ..%%%%..    ",
"   .&%%%%%%&.   ",
"   .%%%..%&&.   ",
"  .&%%.%&.&&&.  ",
"  .%...&&...&.  ",
"  ..@##..+++..  ",
"  .@@@@@++++$.  ",
"   .+@+++++$.   ",
"   .+++++$$$.   ",
"    ..$$$$..    ",
"      ....      ",
"                ",
"                ",
"                ",
"                ",
"      ....      ",
"    ..&&&&..    ",
"   .&%%%%&&&.   ",
"   .%%%%%%&&.   ",
"  .&%%%%%%&&&.  ",
"  .%%%%..&&&&.  ",
"  ..%%.%&.&&..  ",
"  .+...&&...$.  ",
"   .+#+..$$$.   ",
"   .$+++$$$$.   ",
"    ..$$$$..    ",
"      ....      ",
"                ",
"                ",
"                ",
"                ",
"      ....      ",
"    ..&&&&..    ",
"   .&%%%%&&&.   ",
"   .%%%%%%&&.   ",
"  .&%%%%%%&&&.  ",
"  .%%%%%%&&&&.  ",
"  .%%%%%&&&&&.  ",
"  ..%%%..&&&..  ",
"   ..%.%&.&..   ",
"   .+$.&&.$$.   ",
"    ..$..$..    ",
"      ....      ",
"                ",
"                ",
"                ",
"                ",
"      ....      ",
"    ..&&&&..    ",
"   .&%%%%&&&.   ",
"   .%%%%%%&&.   ",
"  .&%%%%%%&&&.  ",
"  .%%%%%%%&&&.  ",
"  .%%%%%%&&&&.  ",
"  .%%%%%&&&&&.  ",
"   .&%&&&&&&.   ",
"   .&&&..&&&.   ",
"    ...%&...    ",
"      ....      ",
"                ",
"                ",
"                ",
"                ",
"      ....      ",
"    ...%&...    ",
"   .&%%..&&&.   ",
"   .%%%%%%&&.   ",
"  .&%%%%%%&&&.  ",
"  .&%%%%%%&&&.  ",
"  .%%%%%%&&&&.  ",
"  .%%%%%&&&&&.  ",
"   .&&%&&&&&.   ",
"   .&&&&&&&&.   ",
"    ..&&&&..    ",
"      ....      ",
"                ",
"                ",
"                ",
"                ",
"      ....      ",
"    ..@..+..    ",
"   .@@.%&.+@.   ",
"   .@..&&..+.   ",
"  .@.%%..%&.+.  ",
"  ..%%%%%%&&..  ",
"  .%%%%%%&&&&.  ",
"  .%%%%%&&&&&.  ",
"   .&%&&&&&&.   ",
"   .&&&&&&&&.   ",
"    ..&&&&..    ",
"      ....      ",
"                ",
"                ",
"                ",
"                ",
"      ....      ",
"    ..+@++..    ",
"   .+@#@@@+$.   ",
"   .@#%..+++.   ",
"  .+@@.%&.++$.  ",
"  .@...&&...$.  ",
"  ..%%%..&&&..  ",
"  .%%%%%%&&&&.  ",
"   .&%%%&&&&.   ",
"   .&&&&&&&&.   ",
"    ..&&&&..    ",
"      ....      "};
