/* XPM */
static char * numbers_xpm[] = {
"13 130 4 1",
" 	c None",
".	c #141414",
"+	c #004766",
"@	c #0287C4",
"   .......   ",
"  .+++++++.  ",
" .+++++++++. ",
" .+@@@@@@@+. ",
" .@@@@@@@@@. ",
" .@@@...@@@. ",
" .@@@...@@@. ",
" .@@@...@@@. ",
" .@@@+++@@@. ",
" .@@@+++@@@. ",
" .@@@@@@@@@. ",
"  .@@@@@@@.  ",
"   .......   ",
"     ....    ",
"    .++++.   ",
"   .+++++.   ",
"  .++@@@@.   ",
"  .+@@@@@.   ",
"  .@@@@@@.   ",
"   ..@@@@.   ",
"    .@@@@.   ",
"    .@@@@.   ",
"    .@@@@.   ",
"    .@@@@.   ",
"    .@@@@.   ",
"     ....    ",
"   .......   ",
"  .+++++++.  ",
" .+++++++++. ",
" .+@@@@@@@+. ",
" .@@@@@@@@@. ",
" .@@.+++@@@. ",
"  ..++@@@@.. ",
"  .++@@@@..  ",
" .++@@@@+++. ",
" .+@@@+++++. ",
" .@@@@@@@@@. ",
" .@@@@@@@@@. ",
"  .........  ",
"   .......   ",
"  .+++++++.  ",
" .+++++++++. ",
" .+@@@@@@@+. ",
" .@@@@@@@@@. ",
" .@@@+++@@@. ",
"  ...@@@@@@. ",
" .+++@@@@++. ",
" .++++@@@@@. ",
" .@@@+++@@@. ",
" .@@@@@@@@@. ",
"  .@@@@@@@.  ",
"   .......   ",
"  ...   ...  ",
" .+++...+++. ",
" .+++...+++. ",
" .@@@...@@@. ",
" .@@@+++@@@. ",
" .@@@+++@@@. ",
" .@@@@@@@@@. ",
" .@@@@@@@@@. ",
"  .@@@@@@@@. ",
"   .....@@@. ",
"      ..@@@. ",
"      ..@@@. ",
"        ...  ",
"  .........  ",
" .+++++++++. ",
" .+++++++++. ",
" .@@@@@@@@@. ",
" .@@@@@@@@@. ",
" .@@@++++++. ",
" .@@@@@@@@+. ",
" .@@@@@@@@@. ",
" .++++++@@@. ",
" .@@@+++@@@. ",
" .@@@@@@@@@. ",
"  .@@@@@@@.  ",
"   .......   ",
"   .......   ",
"  .+++++++.  ",
" .+++++++++. ",
" .+@@@@@@@+. ",
" .@@@@@@@@@. ",
" .@@@+++@@@. ",
" .@@@++++++. ",
" .@@@@@@@@@. ",
" .@@@@@@@@@. ",
" .@@@+++@@@. ",
" .@@@@@@@@@. ",
"  .@@@@@@@.  ",
"   .......   ",
"  .........  ",
" .+++++++++. ",
" .+++++++++. ",
" .@@@@@@@@@. ",
" .@@@@@@@@@. ",
"  ....++@@.  ",
"    .+@@@@.  ",
"    .+@@@.   ",
"   .+@@@@.   ",
"   .+@@@.    ",
"   .@@@@.    ",
"   .@@@@.    ",
"    ....     ",
"   .......   ",
"  .+++++++.  ",
" .+++++++++. ",
" .+@@@@@@@+. ",
" .@@@@@@@@@. ",
" .@@@+++@@@. ",
" .@@@@@@@@@. ",
" .++@@@@@++. ",
" .@@@@@@@@@. ",
" .@@@+++@@@. ",
" .@@@@@@@@@. ",
"  .@@@@@@@.  ",
"   .......   ",
"   .......   ",
"  .+++++++.  ",
" .+++++++++. ",
" .+@@@@@@@+. ",
" .@@@@@@@@@. ",
" .@@@+++@@@. ",
" .@@@@++@@@. ",
" .+@@@@@@@@. ",
" .+++@@@@@@. ",
" .@@@+++@@@. ",
" .@@@@@@@@@. ",
"  .@@@@@@@.  ",
"   .......   "};
