/* XPM */
static char * txt_grass_3_xpm[] = {
"64 64 7 1",
" 	c #95CB74",
".	c #D0EFA3",
"+	c #6AAE76",
"@	c #85736D",
"#	c #3A272B",
"$	c #654E4E",
"%	c #60A0D8",
"                                                                ",
"                                                                ",
"                                                                ",
"                                                                ",
"                ....                                ++++        ",
"                ....                                ++++        ",
"                ....                                ++++        ",
"                ....                                ++++        ",
"            ++++            ....                                ",
"            ++++            ....                                ",
"            ++++            ....                                ",
"            ++++@#@$$$$###  ..###@$#$$$###   ###$               ",
"              @##%%%%%%%%%###@%%%%%%%%%%%%##@%%%@#              ",
"            @##$%%%%%%%%%%%%%%%%%%%%%%%%%%%%%%%%%%@@            ",
"           @#$%%%%%%%%%%%%%%%%%%%%%%%%%%%%%%%%%%%%%@@           ",
"           #$%%%%%%%%%%%%%%%%%%%%%%%%%%%%%%%%%%%%%%%#           ",
"    ....  @#%%%%%%%%%%%%%%%%%%%%%%%%%%%%%%%%%%%%%%%%%#          ",
"    ....  #$%%%%%%%%%%%%%%%%%%%%%%%%%%%%%%%%%%%%%%%%%$@         ",
"    .... @#%%%%%%%%%%%%%%%%%%%%%%%%%%%%%%%%%%%%%%%%%%%$         ",
"    .... #%%%%%%%%%%%%%%%%%%%%%%%%%%%%%%%%%%%%%%%%%%%%#         ",
"    ++++ #%%%%%%%%%%%%%%%%%%%%%%%%%%%%%%%%%%%%%%%%%%%%$ ....    ",
"    ++++ #%%%%%%%%%%%%%%%%%%%%%%%%%%%%%%%%%%%%%%%%%%%$  ....    ",
"    ++++ @%%%%%%%%%%%%%%%%%%%%%%%%%%%%%%%%%%%%%%%%%%%@  ....    ",
"    ++++ @%%%%%%%%%%%%%%%%%%%%%%%%%%%%%%%%%%%%%%%%%%%#  ....    ",
"         #%%%%%%%%%%%%%%%%%%%%%%%%%%%%%%%%%%%%%%%%%%%%# ++++    ",
"         #%%%%%%%%%%%%%%%%%%%%%%%%%%%%%%%%%%%%%%%%%%%%# ++++    ",
"         #%%%%%%%%%%%%%%%%%%%%%%%%%%%%%%%%%%%%%%%%%%%%# ++++    ",
"         #%%%%%%%%%%%%%%%%%%%%%%%%%%%%%%%%%%%%%%%%%%%%# ++++    ",
"          #%%%%%%%%%%%%%%%%%%%%%%%%%%%%%%%%%%%%%%%%%%%@         ",
"          @%%%%%%%%%%%%%%%%%%%%%%%%%%%%%%%%%%%%%%%%%%%@         ",
"          $%%%%%%%%%%%%%%%%%%%%%%%%%%%%%%%%%%%%%%%%%%%#         ",
"          $%%%%%%%%%%%%%%%%%%%%%%%%%%%%%%%%%%%%%%%%%%%#         ",
"         $%%%%%%%%%%%%%%%%%%%%%%%%%%%%%%%%%%%%%%%%%%%%#     ....",
"         #%%%%%%%%%%%%%%%%%%%%%%%%%%%%%%%%%%%%%%%%%%%%#     ....",
"         #%%%%%%%%%%%%%%%%%%%%%%%%%%%%%%%%%%%%%%%%%%%%#     ....",
"         #%%%%%%%%%%%%%%%%%%%%%%%%%%%%%%%%%%%%%%%%%%%%$     ....",
"         #%%%%%%%%%%%%%%%%%%%%%%%%%%%%%%%%%%%%%%%%%%%$  ++++    ",
"         #%%%%%%%%%%%%%%%%%%%%%%%%%%%%%%%%%%%%%%%%%%%$  ++++    ",
"         @%%%%%%%%%%%%%%%%%%%%%%%%%%%%%%%%%%%%%%%%%%%@  ++++    ",
"         @%%%%%%%%%%%%%%%%%%%%%%%%%%%%%%%%%%%%%%%%%%%#  ++++    ",
"    .... #%%%%%%%%%%%%%%%%%%%%%%%%%%%%%%%%%%%%%%%%%%%%#         ",
"    .... #%%%%%%%%%%%%%%%%%%%%%%%%%%%%%%%%%%%%%%%%%%%%#         ",
"    .... #%%%%%%%%%%%%%%%%%%%%%%%%%%%%%%%%%%%%%%%%%%%%#         ",
"    .... #%%%%%%%%%%%%%%%%%%%%%%%%%%%%%%%%%%%%%%%%%%%%#         ",
"    ++++  #%%%%%%%%%%%%%%%%%%%%%%%%%%%%%%%%%%%%%%%%%%%@         ",
"    ++++  @%%%%%%%%%%%%%%%%%%%%%%%%%%%%%%%%%%%%%%%%%%%@         ",
"    ++++  $%%%%%%%%%%%%%%%%%%%%%%%%%%%%%%%%%%%%%%%%%%%#         ",
"    ++++ $%%%%%%%%%%%%%%%%%%%%%%%%%%%%%%%%%%%%%%%%%%%%#         ",
"         #%%%%%%%%%%%%%%%%%%%%%%%%%%%%%%%%%%%%%%%%%%%%#.        ",
"         $%%%%%%%%%%%%%%%%%%%%%%%%%%%%%%%%%%%%%%%%%%%#@.        ",
"         @$%%%%%%%%%%%%%%%%%%%%%%%%%%%%%%%%%%%%%%%%%$#..        ",
"          #%%%%%%%%%%%%%%%%%%%%%%%%%%%%%%%%%%%%%%%%%#@..        ",
"           #%%%%%%%%%%%%%%%%%%%%%%%%%%%%%%%%%%%%%%%$#+++        ",
"           @@%%%%%%%%%%%%%%%%%%%%%%%%%%%%%%%%%%%%%$#@+++        ",
"            @@%%%%%%%%%%%%%%%%%%%%%%%%%%%%%%%%%%$##@++++        ",
"            ..#@%%%@##%%%%%%%%%%%%@###%%%%%%%%%##@  ++++        ",
"            +++$###   ###$$$#$@###    ###$$$$@#@                ",
"            ++++            ++++            ++++                ",
"            ++++            ++++            ++++                ",
"            ++++            ++++            ++++                ",
"                                                                ",
"                                                                ",
"                                                                ",
"                                                                "};
