/* XPM */
static char * txt_exit2_xpm[] = {
"64 64 577 2",
"  	c #95CB74",
". 	c #3AAA83",
"+ 	c #43AA83",
"@ 	c #BEAA7B",
"# 	c #B8C9A6",
"$ 	c #B8C9CE",
"% 	c #3C9E7A",
"& 	c #666C67",
"* 	c #484838",
"= 	c #3A3D32",
"- 	c #787150",
"; 	c #E9D893",
"> 	c #FAEBA3",
", 	c #F8E8A0",
"' 	c #5A6D47",
") 	c #8BBD6C",
"! 	c #3CA17C",
"~ 	c #676D68",
"{ 	c #494838",
"] 	c #464637",
"^ 	c #3D3F33",
"/ 	c #282F2A",
"( 	c #726B4D",
"_ 	c #EAD993",
": 	c #FCEDA4",
"< 	c #F9EAA1",
"[ 	c #FAEBA2",
"} 	c #FDEEA5",
"| 	c #ECDB95",
"1 	c #7A7251",
"2 	c #3A3D31",
"3 	c #5B6E47",
"4 	c #8DBF6E",
"5 	c #3AA882",
"6 	c #8BBC6C",
"7 	c #83B066",
"8 	c #455E49",
"9 	c #52503D",
"0 	c #716B4D",
"a 	c #736C4E",
"b 	c #95895F",
"c 	c #E6D38F",
"d 	c #F5E39C",
"e 	c #F1DF99",
"f 	c #EBD994",
"g 	c #ECDA95",
"h 	c #D9C787",
"i 	c #586844",
"j 	c #93C973",
"k 	c #3CA07C",
"l 	c #678350",
"m 	c #45614B",
"n 	c #484D3C",
"o 	c #EDDC96",
"p 	c #D7BC83",
"q 	c #D4B680",
"r 	c #C7AB78",
"s 	c #8B7E5A",
"t 	c #766F4F",
"u 	c #4B503B",
"v 	c #474838",
"w 	c #383D32",
"x 	c #797352",
"y 	c #FFF1A8",
"z 	c #F6E49D",
"A 	c #D5B781",
"B 	c #CAA879",
"C 	c #B89A6F",
"D 	c #5E5642",
"E 	c #30362D",
"F 	c #474738",
"G 	c #4A4A39",
"H 	c #494939",
"I 	c #586945",
"J 	c #4D4736",
"K 	c #433D2F",
"L 	c #796D4D",
"M 	c #E3CF8D",
"N 	c #F6E59E",
"O 	c #EBD693",
"P 	c #C2A675",
"Q 	c #B5966C",
"R 	c #A78C65",
"S 	c #605943",
"T 	c #424436",
"U 	c #474737",
"V 	c #424234",
"W 	c #414132",
"X 	c #5F432D",
"Y 	c #5F3A25",
"Z 	c #7B5C40",
"` 	c #C5A675",
" .	c #D8BB84",
"..	c #6A5A41",
"+.	c #423627",
"@.	c #4A402F",
"#.	c #484636",
"$.	c #25251C",
"%.	c #14130D",
"&.	c #4A4A3A",
"*.	c #484A3A",
"=.	c #4F4836",
"-.	c #64412B",
";.	c #663921",
">.	c #7D573B",
",.	c #BB996E",
"'.	c #CEAD7C",
").	c #B3956B",
"!.	c #3A3023",
"~.	c #000000",
"{.	c #3F4032",
"].	c #4D4D3C",
"^.	c #424233",
"/.	c #14140E",
"(.	c #4C4C3B",
"_.	c #12120D",
":.	c #3E3F32",
"<.	c #464839",
"[.	c #454637",
"}.	c #B6C7A4",
"|.	c #ADBDC1",
"1.	c #3E9472",
"2.	c #3F4133",
"3.	c #494131",
"4.	c #62402A",
"5.	c #653B23",
"6.	c #7A553A",
"7.	c #B49368",
"8.	c #C5A575",
"9.	c #B19368",
"0.	c #65543D",
"a.	c #443828",
"b.	c #483E2E",
"c.	c #434132",
"d.	c #3C3C2F",
"e.	c #23231A",
"f.	c #15140E",
"g.	c #434334",
"h.	c #12130D",
"i.	c #2A271D",
"j.	c #504936",
"k.	c #58513C",
"l.	c #57503B",
"m.	c #ADBD9C",
"n.	c #798280",
"o.	c #626862",
"p.	c #0F140F",
"q.	c #2F2317",
"r.	c #5F3B25",
"s.	c #683E26",
"t.	c #724C31",
"u.	c #93724C",
"v.	c #9B7B52",
"w.	c #9F8056",
"x.	c #B99B6F",
"y.	c #A48962",
"z.	c #000404",
"A.	c #3F4033",
"B.	c #7C6443",
"C.	c #886B46",
"D.	c #866A46",
"E.	c #ABBA9A",
"F.	c #626761",
"G.	c #4B4B3A",
"H.	c #181711",
"I.	c #251308",
"J.	c #5E3A24",
"K.	c #693F28",
"L.	c #6E492E",
"M.	c #866540",
"N.	c #8A6A42",
"O.	c #98784F",
"P.	c #C4A373",
"Q.	c #D2B27F",
"R.	c #B89A6E",
"S.	c #3F3225",
"T.	c #414133",
"U.	c #4E4E3D",
"V.	c #181811",
"W.	c #4E4E3C",
"X.	c #161610",
"Y.	c #444839",
"Z.	c #554E3B",
"`.	c #836642",
" +	c #8F6C44",
".+	c #8D6B44",
"++	c #ABBB9A",
"@+	c #3B3B2E",
"#+	c #171610",
"$+	c #27160B",
"%+	c #683E27",
"&+	c #9B7B51",
"*+	c #A28258",
"=+	c #BC9B6E",
"-+	c #C6A476",
";+	c #B5966B",
">+	c #756647",
",+	c #5D5539",
"'+	c #5C543A",
")+	c #474534",
"!+	c #444434",
"~+	c #201D14",
"{+	c #4F4835",
"]+	c #554F3B",
"^+	c #685C41",
"/+	c #9D8356",
"(+	c #AB8D5C",
"_+	c #A98B5B",
":+	c #ABBBBF",
"<+	c #060503",
"[+	c #663C24",
"}+	c #C3A373",
"|+	c #AC8661",
"1+	c #A47C5B",
"2+	c #B59267",
"3+	c #DFCA89",
"4+	c #ECDB94",
"5+	c #D5C282",
"6+	c #1B1B13",
"7+	c #322718",
"8+	c #79603F",
"9+	c #836743",
"0+	c #E2CD89",
"a+	c #F0DD96",
"b+	c #EEDB94",
"c+	c #7C583C",
"d+	c #BD9C6F",
"e+	c #CDAE7C",
"f+	c #C4A274",
"g+	c #A9825F",
"h+	c #9B7054",
"i+	c #B89368",
"j+	c #F3E19A",
"k+	c #FFF3AB",
"l+	c #ECDA94",
"m+	c #595136",
"n+	c #040201",
"o+	c #342818",
"p+	c #7F613E",
"q+	c #896640",
"r+	c #A88959",
"s+	c #F0DE97",
"t+	c #FDEEA6",
"u+	c #FBECA4",
"v+	c #FCEDA5",
"w+	c #FCEEA6",
"x+	c #010000",
"y+	c #663B24",
"z+	c #BB9A6E",
"A+	c #CCAC7B",
"B+	c #C09F72",
"C+	c #9B7857",
"D+	c #89644B",
"E+	c #A5845E",
"F+	c #E4CE8C",
"G+	c #E0CC8A",
"H+	c #837650",
"I+	c #5A5237",
"J+	c #574F35",
"K+	c #242014",
"L+	c #3E3421",
"M+	c #987D52",
"N+	c #A98A5A",
"O+	c #B99D67",
"P+	c #EAD591",
"Q+	c #F4E29C",
"R+	c #F1DE98",
"S+	c #E9D792",
"T+	c #E7D590",
"U+	c #CEAE7C",
"V+	c #B7996D",
"W+	c #5E4C38",
"X+	c #281A12",
"Y+	c #584632",
"Z+	c #B59167",
"`+	c #BF9F6E",
" @	c #D4C282",
".@	c #5A5137",
"+@	c #DBC785",
"@@	c #F2DF98",
"#@	c #D8BC83",
"$@	c #C4A976",
"%@	c #796B4A",
"&@	c #5A5338",
"*@	c #60573B",
"=@	c #3BA17B",
"-@	c #5B6E46",
";@	c #B5976C",
">@	c #453B2A",
",@	c #35271C",
"'@	c #8E694E",
")@	c #9D7155",
"!@	c #B69167",
"~@	c #5E563B",
"{@	c #E9D892",
"]@	c #FEEFA7",
"^@	c #CBA97A",
"/@	c #3E3225",
"(@	c #8DBD70",
"_@	c #3FA27F",
":@	c #409575",
"<@	c #1A1913",
"[@	c #4A3E2D",
"}@	c #36281D",
"|@	c #826248",
"1@	c #A5845D",
"2@	c #E3CD8A",
"3@	c #F2E098",
"4@	c #DFCB88",
"5@	c #82754F",
"6@	c #120C05",
"7@	c #302516",
"8@	c #231207",
"9@	c #6F6141",
"0@	c #E8D691",
"a@	c #A38862",
"b@	c #433828",
"c@	c #4A4F42",
"d@	c #494938",
"e@	c #140D08",
"f@	c #36271D",
"g@	c #55442F",
"h@	c #9B7F54",
"i@	c #A98B5A",
"j@	c #B69A65",
"k@	c #755B3B",
"l@	c #7E603D",
"m@	c #9E8456",
"n@	c #EDDA93",
"o@	c #1B150D",
"p@	c #4B4B40",
"q@	c #494937",
"r@	c #663B23",
"s@	c #BC9C6F",
"t@	c #CFB07D",
"u@	c #B5986D",
"v@	c #2E2313",
"w@	c #8A6741",
"x@	c #5D563A",
"y@	c #2D2212",
"z@	c #846743",
"A@	c #927048",
"B@	c #AC8E5C",
"C@	c #020101",
"D@	c #7A563A",
"E@	c #B6946A",
"F@	c #C7A677",
"G@	c #B3946A",
"H@	c #453A29",
"I@	c #F4E19B",
"J@	c #3B3024",
"K@	c #574731",
"L@	c #816340",
"M@	c #86643F",
"N@	c #A48658",
"O@	c #EDDA94",
"P@	c #673E26",
"Q@	c #744E34",
"R@	c #9E7857",
"S@	c #AA8560",
"T@	c #B89468",
"U@	c #B79A6E",
"V@	c #AB8C64",
"W@	c #7D5A3D",
"X@	c #643B23",
"Y@	c #91724B",
"Z@	c #EBD892",
"`@	c #683F26",
" #	c #724B33",
".#	c #966E51",
"+#	c #9E7557",
"@#	c #A7805E",
"##	c #C6A576",
"$#	c #A07557",
"%#	c #A77F5D",
"&#	c #D1B17F",
"*#	c #BF9E71",
"=#	c #582813",
"-#	c #8C6C47",
";#	c #ECD992",
">#	c #FEF0A7",
",#	c #E9D791",
"'#	c #61583C",
")#	c #734C33",
"!#	c #987052",
"~#	c #A07858",
"{#	c #A67F5D",
"]#	c #BD9A6F",
"^#	c #916C50",
"/#	c #997656",
"(#	c #5C2E18",
"_#	c #8A6946",
":#	c #E5CF8C",
"<#	c #F7E6A0",
"[#	c #E1CD8A",
"}#	c #5D5339",
"|#	c #A17959",
"1#	c #A17A59",
"2#	c #554130",
"3#	c #AC8561",
"4#	c #60351E",
"5#	c #7F5B3E",
"6#	c #C5A674",
"7#	c #D9BC84",
"8#	c #BFA373",
"9#	c #4E432F",
"0#	c #A27A59",
"a#	c #A17858",
"b#	c #A07657",
"c#	c #AA825F",
"d#	c #A77C5B",
"e#	c #997052",
"f#	c #613720",
"g#	c #7B573B",
"h#	c #B9986D",
"i#	c #CCAB7B",
"j#	c #493D2C",
"k#	c #A27A5A",
"l#	c #9D7657",
"m#	c #936E51",
"n#	c #8D6A4E",
"o#	c #947052",
"p#	c #8A664A",
"q#	c #6F4931",
"r#	c #623820",
"s#	c #533F2E",
"t#	c #2E2218",
"u#	c #3A2D20",
"v#	c #443022",
"w#	c #623D27",
"x#	c #28170C",
"y#	c #603B25",
"z#	c #6A4027",
"A#	c #754D34",
"B#	c #997253",
"C#	c #A77E5C",
"D#	c #916D50",
"E#	c #36291D",
"F#	c #A37959",
"G#	c #1D0C03",
"H#	c #5D3923",
"I#	c #4D5141",
"J#	c #231309",
"K#	c #553420",
"L#	c #5D3822",
"M#	c #69452E",
"N#	c #8F694C",
"O#	c #9C7454",
"P#	c #89654A",
"Q#	c #382A1D",
"R#	c #0C0402",
"S#	c #3A2416",
"T#	c #774E35",
"U#	c #67442E",
"V#	c #2B1B10",
"W#	c #5C6F47",
"X#	c #221208",
"Y#	c #5C3721",
"Z#	c #5B3721",
"`#	c #1C0A02",
" $	c #C7A576",
".$	c #180100",
"+$	c #6B4229",
"@$	c #B9986C",
"#$	c #C4A474",
"$$	c #423829",
"%$	c #4F3E2C",
"&$	c #634029",
"*$	c #643A22",
"=$	c #683F27",
"-$	c #37291E",
";$	c #513F2C",
">$	c #8E714B",
",$	c #9C7C52",
"'$	c #B89B6F",
")$	c #AA8B64",
"!$	c #775338",
"~$	c #AA805E",
"{$	c #2F2515",
"]$	c #826540",
"^$	c #917046",
"/$	c #C5A474",
"($	c #D1B27F",
"_$	c #C09F71",
":$	c #7D593D",
"<$	c #5F331C",
"[$	c #1E0D04",
"}$	c #8E704B",
"|$	c #B7976A",
"1$	c #5F341D",
"2$	c #484836",
"3$	c #5F3A24",
"4$	c #4E3D28",
"5$	c #9F7E54",
"6$	c #474736",
"7$	c #6A4128",
"8$	c #6C432A",
"9$	c #5F3B24",
"0$	c #24140A",
"a$	c #95744A",
"b$	c #8A6943",
"c$	c #6F4A2F",
"d$	c #623821",
"e$	c #7D583C",
"f$	c #BE9D70",
"g$	c #D1B17E",
"h$	c #4B3F2D",
"i$	c #5A6A4B",
"j$	c #5C6F46",
"k$	c #663F27",
"l$	c #6A4129",
"m$	c #362113",
"n$	c #856843",
"o$	c #7E603E",
"p$	c #6D472D",
"q$	c #633922",
"r$	c #795439",
"s$	c #B08E65",
"t$	c #C1A072",
"u$	c #A98B63",
"v$	c #453929",
"w$	c #1A1A13",
"x$	c #84B16A",
"y$	c #8FC26E",
"z$	c #342919",
"A$	c #402E1C",
"B$	c #613D26",
"C$	c #694028",
"D$	c #6C442C",
"E$	c #7F5A3E",
"F$	c #704F36",
"G$	c #2E2014",
"H$	c #020000",
"I$	c #6C422A",
"J$	c #1F0D06",
"K$	c #673C24",
"L$	c #5C3520",
"M$	c #241006",
"N$	c #563622",
"O$	c #2C2116",
"P$	c #111510",
"Q$	c #312F22",
"R$	c #415A46",
"S$	c #48634C",
"T$	c #6C4229",
"U$	c #211006",
"V$	c #3D3C2E",
"W$	c #546541",
"X$	c #83AF66",
"Y$	c #439E7A",
"Z$	c #210F06",
"`$	c #5E3923",
" %	c #6B4128",
".%	c #694027",
"+%	c #6D4229",
"@%	c #603A24",
"#%	c #261308",
"$%	c #251207",
"%%	c #5F3923",
"&%	c #596A45",
"*%	c #141711",
"=%	c #2E2318",
"-%	c #5B3C28",
";%	c #65422C",
">%	c #63412B",
",%	c #0B1410",
"'%	c #67432C",
")%	c #11140F",
"!%	c #2C3321",
"~%	c #434233",
"{%	c #4C4635",
"]%	c #4E4736",
"^%	c #404132",
"/%	c #4F4736",
"(%	c #474839",
"_%	c #4A4939",
":%	c #5C6F48",
"                                                                                                                                ",
"                                                                                                                                ",
"                                    . .                                                                                         ",
"                                    . .                                                                                         ",
"                . .     . .     . .     . .                                                                                     ",
"                . .     . .     . .     . .                                                                                     ",
"    + +         + + @ @ @ @ . .     . .     . .                                                                                 ",
"    + +         + + @ @ @ @ . .     . .     . .                                                                                 ",
"        . .     @ @ # # # # @ @ . .     . .     $ $ $ $                                                                         ",
"        . .     @ @ # # # # @ @ . .     . .     $ $ $ $                                                                         ",
"            . . @ @ # # # # @ @     . .     $ $ # # # # $ $                                                                     ",
"            . . @ @ # # # # @ @     . .     $ $ # # # # $ $                                                                     ",
"        . .     . . @ @ @ @     . .     . % & * * * = - ; > , , > ; - = * * * * * * * * * ' )                                   ",
"        . .     . . @ @ @ @     . .     . ! ~ { ] ^ / ( _ : < [ } | 1 2 * * * * * * * * * 3 4                                   ",
"            . .     . .     . 5 4 6 % % 4 7 8 ] 9 0 a b c d e f g h 0 ^ * * * * * * * * * i 7 4 ) ) 6 4 j                       ",
"            . .     . .     . k l i m m 3 i n ^ 0 h o c p q r s t 0 9 ] * * * * * * * * * u i 3 ' ' i l 4                       ",
"                . .     . .   4 8 * * * * * v w x o y z A B C D E ^ F G H * * * H H H * * * H G H * * I 4                       ",
"                . .     5 k 4 7 8 * * * * { J K L M N O P Q R S T U V W V U * U V W V U * U V W V U * i 7 4 )                   ",
"            $ $ $ $ . . 4 l 8 8 u * * * v J X Y Z `  .P ..+.@.#.H V $.%.$.V &.V $.%.$.V &.V $.%.$.V H u i 3 '                   ",
"            $ $ $ $ . . 4 I * * * * * H *.=.-.;.>.,.'.).!.~.~.{.].^./.~./.^.(.^./.~./.^.(.^./.~._.:.<.[.[.[.[.                  ",
"        $ $ # # # }.|.|.1.8 * * * * U V 2.3.4.5.6.7.8.9.0.a.b.c.V d.e.f.e.d.g.d.e.f.e.d.g.d.e.h.i.j.k.l.l.l.l.                  ",
"        $ $ # # # m.n.o.8 n * * * H V $.p.q.r.s.t.u.v.w.9.x.y.b.z.e.d.g.d.e.f.e.d.g.d.e.f.e.d.A.j.B.C.D.D.D.D.                  ",
"        $ $ # # # E.F.* * * * * H G.^.H.~.I.J.K.L.M.N.O.P.Q.R.S.~.~.T.U.g.V.~.V.g.W.g.V.~.X.2.Y.Z.`. +.+.+.+.+                  ",
"        $ $ # # # ++& * * * * U V ^.@+#+~.$+J.%+t.u.&+*+=+-+;+>+,+'+)+T.@+#+~.#+@+!+@+#+~.~+{+]+^+/+(+_+_+_+_+                  ",
"            $ $ $ :+' * * * H V $.H.#+<+~.$+J.[+6.7.}+=+|+1+2+3+4+5+'+~.#+<+~.<+#+6+#+<+~.7+8+9+/+0+a+b+b+b+b+                  ",
"            $ $ $ :+' * * H G.^.H.~.~.~.~.$+J.5.c+d+e+f+g+h+i+j+k+l+m+~.~.~.n+~.~.~.~.~.~.o+p+q+r+s+t+u+v+t+w+                  ",
"            . .   ) m * U V ^.@+#+~.x+x+~.$+J.y+c+z+A+B+C+D+E+F+j+G+H+I+J+K+~.x+x+x+x+x+~.L+M+N+O+P+Q+R+S+T+T+                  ",
"            . .   ) m H V $.H.#+<+~.x+x+~.$+J.y+c+z+U+V+W+X+Y+E+Z+`+G+4+ @J+~.x+x+x+x+x+~..@+@@@P+#@q $@%@&@*@                  ",
"                . =@-@G W #+~.~.~.x+x+x+~.$+J.y+c+z+U+;@>@~.,@'@)@!@j+k+4+I+~.~.~.n+~.~.~.~@{@]@Q+q ^@;@/@~.~..                 ",
"              (@_@:@I H T.<@~.x+x+x+x+x+~.$+J.y+c+z+U+;@[@~.}@|@'@1@2@3@4@5@I+J+K+~.6@7@8@9@0@v+R+$@;@a@b@~.x+.                 ",
"                    c@d@T.<@~.x+x+x+x+x+~.$+J.y+c+z+U+;@[@~.e@}@f@g@h@i@j@4@4+ @J+~.7@k@l@m@n@v+S+%@/@b@o@~.x+  $ $ $ $         ",
"                    p@q@T.<@~.x+x+x+x+x+~.$+J.r@c+s@t@u@b@~.~.~.~.v@p+w@i@3@k+4+x@~.y@z@A@B@b+w+T+&@~.~.~.C@x+  $ $ $ $         ",
"                    p@q@T.<@~.x+x+x+x+x+~.$+J.[+D@E@F@G@0.H@b@o@~.7@k@p+h@2@I@3+>+J@K@L@M@N@O@t+T+*@~.x+x+x+x+$ # # # # $ $     ",
"                    p@q@T.<@~.x+x+x+x+x+~.$+J.P@Q@R@g+S@G@x.a@b@~.6@7@v@g@1@T@2+;+U@V@W@X@Y@Z@t+T+*@~.x+x+x+x+$ # # # # $ $     ",
"                    p@q@T.<@~.x+x+x+x+x+~.$+J.`@ #.#+#@###Q.x.H@~.~.~.~.f@'@$#%#-+&#*#c+=#-#;#>#,#'#~.x+x+x+x+$ # # # # $ $     ",
"                    p@q@T.<@~.x+x+x+x+x+~.$+J.`@)#!#~#{#]###G@0.H@b@o@~.}@|@^#/#,.##E@D@(#_#:#<#[#}#~.x+x+x+x+$ # # # # $ $     ",
"                    p@q@T.<@~.x+x+x+x+x+~.$+J.`@)#!#|#1#{#@#S@G@x.a@b@~.e@}@}@2#/#3#R@Q@4#5#6#7#8#9#~.x+x+x+x+. $ $ $ $         ",
"                    p@q@T.<@~.x+x+x+x+x+~.$+J.`@)#!#0#~#a#b#c###Q.x.H@~.~.~.~.}@^#d#e#)#f#g#h#i#).j#~.x+x+x+x+. $ $ $ $         ",
"                    p@q@T.<@~.x+x+x+x+x+~.$+J.`@)#!#k#l#m#n#/#,.##G@0.H@b@o@~.}@|@o#p#q#r#c+z+U+;@[@~.x+x+x+x+  . .     . .     ",
"                    p@q@T.<@~.x+x+x+x+x+~.$+J.`@)#!#1+m#s#t#2#/#c#S@G@x.a@b@~.e@}@u#v#w#5.c+z+U+;@[@~.x+x+x+x+  . .     . .     ",
"                    p@q@T.<@~.x+x+x+x+x+~.x#y#z#A#B#C#D#E#~.}@^#F#c###Q.x.H@~.~.~.~.G#H#[+c+z+U+;@[@~.x+x+x+x+.     . .     . . ",
"                    I#d@T.<@~.x+x+x+x+x+~.J#K#L#M#N#O#P#Q#~.}@|@^#/#,.##G@0.H@b@o@~.$+J.y+c+z+U+;@[@~.x+x+x+x+.     . .     . . ",
"                    I H T.<@~.x+x+x+x+x+~.R#J#J#S#M#T#U#V#~.e@}@}@2#/#c#S@G@x.a@b@~.$+J.y+c+z+U+;@[@~.x+x+x+x+@ . .     . .     ",
"                    W#H T.<@~.x+x+x+x+x+x+~.~.~.X#Y#z#Z#`#~.~.~.~.}@^#F#c# $Q.x.H@~..$H#[+c+z+U+;@[@~.x+x+x+x+@ . .     . .     ",
"                    I H T.<@~.x+x+x+x+x+x+x+x+~.$+J.+$w#v#u#}@e@~.}@|@^#/#@$#$9.0.$$%$&$*$c+z+U+;@[@~.x+x+x+x+@ @ @ . .     . . ",
"                    I#d@T.<@~.x+x+x+x+x+x+x+x+~.$+J.=$q#p#o#|@}@~.e@}@-$;$>$,$w.9.'$)$!$4#c+z+U+;@[@~.x+x+x+x+@ @ @ . .     . . ",
"                    p@q@W #+~.~.~.x+x+x+x+x+x+~.x#y#z#A#O#~$o#u#~.~.~.~.{$]$^$,$/$($_$:$<$c+z+U+;@[@~.x+x+x+x+# # # @ @ . .     ",
"                    p@q@V $.H.#+<+~.x+x+x+x+x+~.J#K#L#M#N#O#p#v#[$J#R#~.7@k@]$}$|$#$7.6.1$c+z+U+;@[@~.x+x+x+x+# # # @ @ . .     ",
"                    p@2$U V ^.@+#+~.x+x+x+x+x+~.R#J#J#S#M#A#q#w#3$K#J#~.6@7@7@4$}$5$u.t.f#c+z+U+;@[@~.x+x+x+x+# # # @ @     . . ",
"                    p@6$* H G.^.H.~.~.~.x+x+x+x+~.~.~.J#L#z#=$7$8$9$0$~.~.~.~.7@]$a$b$c$d$e$f$g$U@h$~.~.~.~.~.# # # @ @     . . ",
"                    i$j$i u H V $.H.#+<+~.x+x+x+x+x+~.J#K#9$y#k$l$y#m$0$J#R#~.7@k@n$o$p$q$r$s$t$u$v$~.<+#+w$<@@ @ @ + +         ",
"                    x$y$7 i * U V ^.@+#+~.x+x+x+x+x+~.R#J#0$m$y#l$k$y#9$K#J#~.6@7@z$A$B$C$D$r$E$F$G$~.#+@+V T.@ @ @ + +         ",
"                          I * * H G.^.H.~.~.~.~.~.~.H$~.~.~.0$9$I$l$l$I$9$0$~.~.~.~.J$H#l$=$[+K$L$M$~.V.V G.H .     . .         ",
"                          l I i u H V $.#+<@<@w$#+<+~.x+x+~.J#K#9$y#k$l$y#m$0$J#R#~.$+J.l$k$y#3$N$O$P$Q$R$S$m .     . .         ",
"                          4 4 7 i * U V W T.T.V @+#+~.x+x+~.R#J#0$m$y#l$k$y#9$K#J#~.$+J.T$y#m$U$O$V$^.W$X$4 Y$+                 ",
"                              4 I * * H H H H G.^.H.~.~.~.~.~.~.~.Z$`$ %.% %+%@%#%~.$%%%+%`$Z$~.P$^.G.&%4   + +                 ",
"                              4 l i ' ' 3 i u H V $.#+<@<@<@<@<@*%=%-%;%>%>%;%-%=%,%=%-%'%-%=%)%!%W$&%l 4                       ",
"                              j 4 6 ) ) 4 7 i * U V W T.T.T.T.T.W ~%{%]%]%]%]%{%~%^%~%{%/%{%~%W W$X$4 4 j                       ",
"                                          4 3 * * H H H H H H H H H (%v v v v (%H _%H (%v (%H G :%4                             ",
"                                          ) ' * * * * * * * * * * * * * * * * * * * * * * * * * ' )                             ",
"                                                                                                                                ",
"                                                                                                                                ",
"                                                                                                                                ",
"                                                                                                                                "};
