/* XPM */
static char * txt_grass_2_xpm[] = {
"64 64 22 1",
" 	c #95CB74",
".	c #000000",
"+	c #404040",
"@	c #804040",
"#	c #BF8040",
"$	c #D0EFA3",
"%	c #6AAE76",
"&	c #F25E14",
"*	c #400000",
"=	c #404080",
"-	c #808080",
";	c #804080",
">	c #BF4040",
",	c #93C974",
"'	c #8EC674",
")	c #8BC475",
"!	c #94CB73",
"~	c #94CB74",
"{	c #404000",
"]	c #FFBF40",
"^	c #7CA960",
"/	c #579161",
"                                                                ",
".+@                                                             ",
"+#@.                                                            ",
" +.+                                                            ",
"                $$$$+...                            %%%%        ",
"                $...@##.                            %%%%        ",
"                +###&&#.                            %%%%        ",
"               +#&&&&&#.                            %%%%        ",
"            %%%*&&&&&#@=    $$$$                                ",
"            %%%*&&&&&@.     $$$$                                ",
"            %%%+#&##@+      $$$$                                ",
"            %%%%*&@.+       $$$$                                ",
"                .*-    @**.% +.+        $$$$                    ",
"                     +.@&#*% +##+       $$$$                    ",
"                    +@##&@%%  @@.       $$$$                    ",
"                   +@&&&&*%%      ....; $$$$                    ",
" -. $$$$           .>&&&&* ;.    +###+. %%%%                    ",
" .@@+$$$           .>&&&&#++@@   *&&#@  %%%%                    ",
" +@@.$$$           .>&&&&&@@##. -@&&@   %%%%                    ",
"  +..$$$           .>&&&&&&&&#@+@&&&@   %%%%                    ",
"    %%%%           .>&&&&&&&&&>.@&&&@  ,'))',           $$$$    ",
"    %%%%           +>&&&&&&&&&&#@&&&@                   $$$$    ",
"    %%%%            +>&&&&&&&&&&&&&&@                   $$$$    ",
"    %%%%            +>&&&&&&&&&&&&&&@-                  $$$$    ",
"                     -@&&&&&&&&&&&&&#@+                 %%%%    ",
"                     -@#&&&&&&&&&&&&&@+-...+ !!~        %%%%    ",
"                       @##&&&&&&&&&&&#@++###+.          %%%%    ",
"                        .*&&&&&&&&&&&&#@@#&&@@+         %%%%    ",
"            $$$$  @@@@   *###&&&&&&&&&&&#@&&&&@@                ",
"            $$$$ .#&&>*+ ....#&&&&&&&&&&&&&&&&&#+               ",
"            $$$$ .*#&&&#*    +#&&&&&&&&&&&&&&&&&#+              ",
"            $$$$   +#&&&&+    +@&&&&&&&&&&&&&&@#&#+             ",
"            %%%%   .>&&&&#+.  +@&&&&&&&&&&&&&&@{#&#+        $$$$",
"            %%%%   .>&&&&&##@++@&&&&&&&&&&&&&&#@#&#.        $$$$",
"            %%%%   +>&&&&&&&####&&&&&&&&&]&&&&&##&#.        $$$$",
"            %%%%   +@#&&&&&&&&&&&&&&&&&&&]]&&&&&&&&>+       $$$$",
"                    .>&&&&&&&&&&&&&&&&&&&]]&&&&&&&&&*   %%%%    ",
"                    .#&&&&&&&&&&&&&&&&&&]]]&&&&&&&&&*   %%%%    ",
"                    +>&&&&&&&&&&&&&&&&&]]]]&&&&&&&&&*   %%%%    ",
"                     +@&&&&&&&&&&&&&&&&]]]]&&&&&&&&&*   %%%%    ",
"    $$$$             +@&&&&&&&&&&&&&&&&]]]]&&&&&&&&&*           ",
"    $$$$             !-@&&&&&&&&&&&]&&&]]]]&&&&&&&&&*           ",
"    $$$$             ! +@&&&&&&&&&&]&&]]]]]&&&&&&&&&*           ",
"    $$$$                *##&&&&&&&&]]]]]]]]]&&&&&&&&*           ",
"    %%%%                %..@##&&&&&&]]]]]]]]]&&&&&&&*           ",
"    %%%%                %%%..>&&&&&&&]]]]]]]]&&&&&&&*           ",
"    %%%%                %%%% +@#&&&&&]]]]]]]]]&&&&&&*           ",
"    %%%%                %%%%  +@&&&&&&]]]]]]]]]]&&&&*           ",
"                               -*{&&&&]]]]]]]]]]&&#*$$$$        ",
"                       ^^^^^^^^^@&{&&&]]]]]]]]]]&&#.$$$$        ",
"                       ^^^^^^^^^@@#&&&&]]]]]]]]]&&#.$$$$        ",
"                   ^^^^^^^^^^^^^^-@&&&&&&]]]]]]]&#@ $$$$        ",
"            $$$$   ^^^^^^^^^^^^^^^+#&&&&&&]]]]]&&#. %%%%        ",
"            $$$$ ^^^^^^^^^^^^^^^^^^*@##&&&&&&&&&#@+ %%%%        ",
"            $$$$ ^^^^^^^^^^^^^^^^^^^+.@#########@+  %%%%        ",
"            $$$$ ^^^^^^^^^^^^^^^^^^^^^+.........=   %%%%        ",
"            %%%% ^^^^^^^^^^^////^^^^^^^^^^^^/%%%                ",
"            %%%% ^^^^^^^^^^^////^^^^^^^^^^^^/%%%                ",
"            %%%% ^^^^^^^^^^^////^^^^^^^^^^^^/%%%                ",
"            %%%%   ^^^^^^^^^////^^^^^^^^^^^ %%%%                ",
"                   ^^^^^^^^^^^^^^^^^^^^^^^^                     ",
"                     ^^^^^^^^^^^^^^^^^^^^                       ",
"                     ^^^^^^^^^^^^^^^^^^^^                       ",
"                                                                "};
