/* XPM */
static char * txt_collect_xpm[] = {
"64 64 11 1",
" 	c #95CB74",
".	c #D0EFA3",
"+	c #6AAE76",
"@	c #503030",
"#	c #D06050",
"$	c #983830",
"%	c #F8F8F8",
"&	c #000000",
"*	c #404038",
"=	c #888890",
"-	c #2F450E",
"                                                                ",
"                                                                ",
"                                                                ",
"                                                                ",
"                ....                                ++++        ",
"                ....                                ++++        ",
"                ....                                ++++        ",
"                ....                                ++++        ",
"            ++++            ....                                ",
"            ++++            ....                                ",
"            ++++            ....                                ",
"            ++++            ....                                ",
"                        ++++            ....                    ",
"                        ++++            ....                    ",
"                        ++++            ....                    ",
"                        ++++            ....                    ",
"    ....                                ++++                    ",
"    ....                                ++++                    ",
"    ....                                ++++                    ",
"    ....                                ++++                    ",
"    ++++                                                ....    ",
"    ++++                                                ....    ",
"    ++++                                                ....    ",
"    ++++                                                ....    ",
"                            +@@@@@@@@                   ++++    ",
"                            +@@@@@@@@                   ++++    ",
"                           @@######$$@@                 ++++    ",
"                           @@######$$@@                 ++++    ",
"            ....         @@##%%######$$@@   ....                ",
"            ....         @@##%%######$$@@   ....                ",
"            ....       @@$$$$######$$$$$$@@ ....                ",
"            ....       @@$$$$######$$$$$$@@ ....                ",
"            ++++       &&$$$$$$****$$$$$$&& ++++            ....",
"            ++++       &&$$$$$$****$$$$$$&& ++++            ....",
"            ++++       &&**$$**%%==&&$$**&& ++++            ....",
"            ++++       &&**$$**%%==&&$$**&& ++++            ....",
"                       &&%%**&&====&&**==&&             ++++    ",
"                       &&%%**&&====&&**==&&             ++++    ",
"                         &&%%%%&&&&====&&               ++++    ",
"                         &&%%%%&&&&====&&               ++++    ",
"    ....                ---&&========&&---                      ",
"    ....               ----&&========&&----                     ",
"    ....                -----&&&&&&&&-----                      ",
"    ....                ..---&&&&&&&&---                        ",
"    ++++                ++++----------++                        ",
"    ++++                ++++        ++++                        ",
"    ++++                ++++        ++++                        ",
"    ++++                ++++        ++++                        ",
"                                                    ....        ",
"                                                    ....        ",
"                                                    ....        ",
"                                                    ....        ",
"            ....                            ....    ++++        ",
"            ....                            ....    ++++        ",
"            ....                            ....    ++++        ",
"            ....                            ....    ++++        ",
"            ++++            ++++            ++++                ",
"            ++++            ++++            ++++                ",
"            ++++            ++++            ++++                ",
"            ++++            ++++            ++++                ",
"                                                                ",
"                                                                ",
"                                                                ",
"                                                                "};
