/* XPM */
static char * txt_grass_0_xpm[] = {
"64 64 13 1",
" 	c #95CB74",
".	c #D0EFA3",
"+	c #6AAE76",
"@	c #000000",
"#	c #93C974",
"$	c #8EC674",
"%	c #8BC475",
"&	c #8E6565",
"*	c #94CB73",
"=	c #94CB74",
"-	c #4D2E3D",
";	c #6F4444",
">	c #93C978",
"                                                                ",
"                                                                ",
"                                                                ",
"                                                                ",
"                ....                                ++++        ",
"                ....                                ++++        ",
"                ....                                ++++        ",
"                ....                                ++++        ",
"            ++++            ....                                ",
"            ++++            ....                                ",
"            ++++            ....                                ",
"            ++++            ....                                ",
"        @               ++++            ....                    ",
"        @               ++++            ....                    ",
"        @               ++++            ....                    ",
"        @               ++++            ....                    ",
"    ....@                               ++++                    ",
"    ....@                               +@@@@@@@@@              ",
"    ....@@                              @@++                    ",
"    .... @                            @@++++                    ",
"    ++++  @                         @@ #$%%$#           ....    ",
"    ++++  @@                        @                   ....    ",
"    ++++   @@                      @@                   ....    ",
"    ++++    @@                     @                    ....    ",
"             @@             &+++  @@                    ++++    ",
"              @@         & &&&++ @@          **=        ++++    ",
"               @@      &&&&-&+&+@@                      ++++    ",
"                @@@@@@&&&&---&&&@                       ++++    ",
"            ....     ; &-@@-@@&- &       =  ....                ",
"            ....   &;;;---@@@@--&&&      *  ....                ",
"            ....  &&&;-@-@@@@@@;;&&&   @@@  ....                ",
"            ....  ;&;---@@@@@@@@;-&& @@@ @@ ....                ",
"            ++++  ;;-@-@@@@@@@@@--&&&@&   @@@@++> @@@@      ....",
"            ++++ ;;;--@@@@@@@@@@@-@&@&&&    +@@@@@@   @     ....",
"            ++++;;;@-@@@@@@@@@@@@@@-@;&     +++@@     @     ....",
"            +++&&;--@@@@@@@@@@@@@@--;;;     ++++      @     ....",
"              &&@@-@-@@@@@@@@@@@@@@--;@               @ ++++    ",
"              &&@;&---@@@@@@@@@@@@@--;@@              @ ++++    ",
"             &&@@;;@-@-@@@@@@@@@@@@@;;&@@             @ ++++    ",
"           @@@@@@;;@@---@-@@@@@-@@@-@&&& @           @@ ++++    ",
"    ....  @@ &&&@@;;-@-@---@-@---@--;@&@@@=          @          ",
"    .@@@@@@   &&&&;-;-@-@-@---@-@-@;;;..@@@         @@          ",
"    .@..       &&@@;;;---@-@-@@---;;;...  @         @@          ",
"  @@@@..       @&@@@;-&-;---@----;;;@...  @          @@         ",
"  @ ++++       @@@&&---;;;-;--;-;;;;;+++  @           @@        ",
"    ++++       @@&&&&&&-;-;;;;;;-;@@@+++  @            @        ",
"    ++++     @@@  &&&&&&@@@;-&;--&@&++++ @@                     ",
"    ++++    @@     &&&&&&&&@@@@&-@@ ++++ @                      ",
"          @@@        &&&&&&&&@&&&@       @@         ....        ",
"        @@@             &&&&&@@&@         @@        ....        ",
"       @@                     @@           @@       ....        ",
"                               @             @      ....        ",
"            ....              @@            ..@@    ++++        ",
"            ....            @@@             ...@@   ++++        ",
"            ....       @@@@@                ....@@  ++++        ",
"            ....     @@@                    ....    ++++        ",
"            ++++    @@      ++++            ++++                ",
"            ++++   @@       ++++            ++++                ",
"            ++++            ++++            ++++                ",
"            ++++            ++++            ++++                ",
"                                                                ",
"                                                                ",
"                                                                ",
"                                                                "};
