/* XPM */
static char * txt_exit2_xpm[] = {
"64 64 7 1",
" 	c #94CA73",
".	c #B8C9CE",
"+	c #6AAE76",
"@	c #BEAA7B",
"#	c #95CB74",
"$	c #B8C9A6",
"%	c #D0EFA3",
"                                                                ",
"                                                                ",
"  ..              ++                                            ",
"  ..              ++                                            ",
"        ++  ++  ++  ++                                          ",
"        ++  ++  ++  ++                                          ",
"  ++    ++@@@@++  ++  ++             ##########                 ",
"  ++    ++@@@@++  ++  ++             ##########                 ",
"    ++  @@$$$$@@++  ++  ....         #####%%%%#                 ",
"    ++  @@$$$$@@++  ++  ....         #####%%%%#                 ",
"      ++@@$$$$@@  ++  ..$$$$..       #####%%%%#                 ",
"      ++@@$$$$@@  ++  ..$$$$..       #####%%%%#                 ",
"    ++  ++@@@@  ++  ++..$$$$..       #++++#####                 ",
"    ++  ++@@@@  ++  ++..$$$$..       #++++#####                 ",
"      ++  ++  ++  ++  ++....         #++++#####                 ",
"      ++  ++  ++  ++  ++....         #++++#####                 ",
"        ++  ++  ++  ++  ++  ++       ##########   ##########    ",
"        ++  ++  ++  ++  ++  ++       ##########   ##########    ",
"      ....++  ++  @@@@++  ++  ++                  #####%%%%#    ",
"      ....++  ++  @@@@++  ++  ++                  #####%%%%#    ",
"    ..$$$$..++  @@$$$$@@++  ++                    #####%%%%#    ",
"    ..$$$$..++  @@$$$$@@++  ++                    #####%%%%#    ",
"    ..$$$$..  ++@@$$$$@@@@++  ++                  #++++#####    ",
"    ..$$$$..  ++@@$$$$@@@@++  ++                  #++++#####    ",
"      ....  ++  @@@@@@$$$$@@++                    #++++#####    ",
"      ....  ++  @@@@@@$$$$@@++                    #++++#####    ",
"      ++  ++  @@$$$$@@$$$$@@  ++                  ##########    ",
"      ++  ++  @@$$$$@@$$$$@@  ++                  ##########    ",
"        ++  ++@@$$$$@@@@@@++                                    ",
"        ++  ++@@$$$$@@@@@@++                                    ",
"          ++  ++@@@@++++  ++  ....                              ",
"          ++  ++@@@@++++  ++  ....                              ",
"                      ++    ..$$$$..              ++            ",
"                      ++    ..$$$$..              ++            ",
"                            ..$$$$..    ++  ++  ++  ++          ",
"                            ..$$$$..    ++  ++  ++  ++          ",
"                              ....      ++@@@@++  ++  ++        ",
"                              ....      ++@@@@++  ++  ++        ",
"                                    ++  @@$$$$@@++  ++  ....    ",
"                                    ++  @@$$$$@@++  ++  ....    ",
"                                      ++@@$$$$@@  ++  ..$$$$..  ",
"                                      ++@@$$$$@@  ++  ..$$$$..  ",
"     ##########         #########   ++  ++@@@@  ++  ++..$$$$..  ",
"     ##########         #########   ++  ++@@@@  ++  ++..$$$$..  ",
"     #####%%%%#         #########     ++  ++  ++  ++  ++....    ",
"     #####%%%%#         #########     ++  ++  ++  ++  ++....    ",
"     #####%%%%#         ###%%%%##       ++  ++  ++  ++  ++  ++  ",
"     #####%%%%#         ###%%%%##       ++  ++  ++  ++  ++  ++  ",
"     #++++#####         ###%%%%##     ....++  ++  @@@@++  ++  ++",
"     #++++#####         ###%%%%##     ....++  ++  @@@@++  ++  ++",
"     #++++############# ###++++##   ..$$$$..++  @@$$$$@@++  ++  ",
"     #++++############# ###++++##   ..$$$$..++  @@$$$$@@++  ++  ",
"     ################## ###++++##   ..$$$$..  ++@@$$$$@@@@++  ++",
"     ################## ###++++##   ..$$$$..  ++@@$$$$@@@@++  ++",
"              ###%%%%## #########     ....  ++  @@@@@@$$$$@@++  ",
"              ###%%%%## #########     ....  ++  @@@@@@$$$$@@++  ",
"              ###%%%%##               ++  ++  @@$$$$@@$$$$@@  ++",
"              ###%%%%##               ++  ++  @@$$$$@@$$$$@@  ++",
"              ###++++##                 ++  ++@@$$$$@@@@@@++    ",
"              ###++++##                 ++  ++@@$$$$@@@@@@++    ",
"              ###++++##                   ++  ++@@@@++++  ++    ",
"              ###++++##                   ++  ++@@@@++++  ++    ",
"              #########                               ++        ",
"              #########                               ++        "};
