/* XPM */
static char * txt_grass_1_xpm[] = {
"64 64 19 1",
" 	c #95CB74",
".	c #D0EFA3",
"+	c #6AAE76",
"@	c #93C974",
"#	c #8EC674",
"$	c #8BC475",
"%	c #202020",
"&	c #487048",
"*	c #68A058",
"=	c #94CB73",
"-	c #94CB74",
";	c #384840",
">	c #93C978",
",	c #584048",
"'	c #705848",
")	c #A88048",
"!	c #7CA960",
"~	c #579161",
"{	c #ADC887",
"                                                                ",
"                                                                ",
"                                                                ",
"                                                                ",
"                ....                                ++++        ",
"                ....                                ++++        ",
"                ....                                ++++        ",
"                ....                                ++++        ",
"            ++++            ....                                ",
"            ++++            ....                                ",
"            ++++            ....                                ",
"            ++++            ....                                ",
"                        ++++            ....                    ",
"                        ++++            ....                    ",
"                        ++++            ....                    ",
"                        ++++            ....                    ",
"    ....                                ++++                    ",
"    ....                                ++++                    ",
"    ....                                ++++                    ",
"    ....                                ++++                    ",
"    ++++                               @#$$#@           ....    ",
"    ++++                                                ....    ",
"    ++++                %%%%                            ....    ",
"    ++++                %%%%                            ....    ",
"                    %%%%&&**%%%%                        ++++    ",
"                    %%%%&&**%%%%             ==-        ++++    ",
"                  %%******&&&&;;%%                      ++++    ",
"                  %%******&&&&;;%%                      ++++    ",
"            ....%%**********;;&&%%  %%%%%%  ....                ",
"            ....%%**********;;&&%%  %%%%%%  ....                ",
"            ....%%&&******&&**&&&&%%&&****%%%%..                ",
"            ....%%&&******&&**&&&&%%&&****%%%%..                ",
"            ++++%%&&;;&&&&**&&&&%%**********%%++>           ....",
"            ++++%%&&;;&&&&**&&&&%%**********%%++            ....",
"            ++++  %%&&&&&&&&&&;;%%&&******&&**%%            ....",
"            ++++  %%&&&&&&&&&&;;%%&&******&&**%%            ....",
"                    %%%%,,'',,..%%**&&&&&&**&&%%        ++++    ",
"                    %%%%,,'',,..%%**&&&&&&**&&%%        ++++    ",
"                        %%'''',,&&&&&&&&&&&&%%          ++++    ",
"                        %%'''',,&&&&&&&&&&&&%%          ++++    ",
"    ....             -  ..%%)),,&&;;&&;;&&&&%%                  ",
"    ....             =  ..%%)),,&&;;&&;;&&&&%%                  ",
"    ....             =  ..%%))'',,&&&&&&;;%%                    ",
"    ....                ..%%))'',,&&&&&&;;%%                    ",
"    ++++                ++++%%''))))%%%%%%                      ",
"    ++++               !~~~~%%''))))%%%%%%                      ",
"    ++++               !~~~~%%''))%%~~~+                        ",
"    ++++           !!!!!~~~~%%''))%%~~~~!!!                     ",
"                   !!!!!!!!!%%))))%%!!!!!!!         ....        ",
"                 !!!!!!!!!!!%%))))%%!!!!!!!!!       ....        ",
"                 !!!!!!!!!%%''))))''%%!!!!!!!       ....        ",
"                 !!!!!!!!!%%''))))''%%!!!!!!!       ....        ",
"            .... !!!!!!!%%))''))''''))%%!!!!{...    ++++        ",
"            .... !!!!!!!%%))''))''''))%%!!!!{...    ++++        ",
"            .... !!!!!!!!!%%%%''))%%%%!!!!!!{...    ++++        ",
"            ....   !!!!!!!%%%%''))%%%%!!!!! ....    ++++        ",
"            ++++   !!!!!!!!!~~%%%%!!!!!!!!! ++++                ",
"            ++++     !!!!!!!~~%%%%!!!!!!!   ++++                ",
"            ++++     !!!!!!!~~~~!!!!!!!!!   ++++                ",
"            ++++            ++++            ++++                ",
"                                                                ",
"                                                                ",
"                                                                ",
"                                                                "};
