/* XPM */
static char * txt_floor_clean_xpm[] = {
"64 64 11 1",
" 	c #95CB74",
".	c #D0EFA3",
"+	c #6AAE76",
"@	c #93C974",
"#	c #8EC674",
"$	c #8BC475",
"%	c #94CB73",
"&	c #94CB74",
"*	c #93C978",
"=	c #93CA73",
"-	c #96CC74",
"                                                                ",
"                                                                ",
"                                                                ",
"                                                                ",
"                ....                                ++++        ",
"                ....                                ++++        ",
"                ....                                ++++        ",
"                ....                                ++++        ",
"            ++++            ....                                ",
"            ++++            ....                                ",
"            ++++            ....                                ",
"            ++++            ....                                ",
"                        ++++            ....                    ",
"                        ++++            ....                    ",
"                        ++++            ....                    ",
"                        ++++            ....                    ",
"    ....                                ++++                    ",
"    ....                                ++++                    ",
"    ....                                ++++                    ",
"    ....                                ++++                    ",
"    ++++                               @#$$#@           ....    ",
"    ++++                                                ....    ",
"    ++++                                                ....    ",
"    ++++                                                ....    ",
"                            ++++                        ++++    ",
"                            ++++             %%&        ++++    ",
"                            ++++                        ++++    ",
"                            ++++                        ++++    ",
"            ....                         &  ....                ",
"            ....                         %  ....                ",
"            ....                         %  ....                ",
"            ....                            ....                ",
"            ++++                            ++++*           ....",
"            ++++            &%%&            ++++            ....",
"            ++++                            ++++            ....",
"            ++++                            ++++            ....",
"                         &  ....  &                     ++++    ",
"                        &=% ....  % &%%&                ++++    ",
"                         %  ....  %                     ++++    ",
"                            ....                        ++++    ",
"    ....             &  ....++++ &  ....  &                     ",
"    ....             %  ....++++ %  ....  %                     ",
"    ....             %  ....++++ %  ....  %                     ",
"    ....                ....++++    ....                        ",
"    ++++                ++++        ++++                        ",
"    ++++                ++++        ++++                        ",
"    ++++                ++++  -     ++++                        ",
"    ++++                ++++        ++++                        ",
"                                                    ....        ",
"                                                    ....        ",
"                                                    ....        ",
"                                                    ....        ",
"            ....                            ....    ++++        ",
"            ....                            ....    ++++        ",
"            ....                            ....    ++++        ",
"            ....                            ....    ++++        ",
"            ++++            ++++            ++++                ",
"            ++++            ++++            ++++                ",
"            ++++            ++++            ++++                ",
"            ++++            ++++            ++++                ",
"                                                                ",
"                                                                ",
"                                                                ",
"                                                                "};
