/* XPM */
static char * txt_wall4_xpm[] = {
"64 64 44 1",
" 	c #95CB74",
".	c #389230",
"+	c #84D362",
"@	c #95CC74",
"#	c #96CC74",
"$	c #BDFB8C",
"%	c #9ACE78",
"&	c #A3D37F",
"*	c #A7D582",
"=	c #94CB74",
"-	c #B8E090",
";	c #C3E799",
">	c #95CB73",
",	c #D1F0A4",
"'	c #94CB73",
")	c #93C978",
"!	c #90C480",
"~	c #8EC284",
"{	c #38580F",
"]	c #93C974",
"^	c #8EC674",
"/	c #8BC474",
"(	c #8BC475",
"_	c #9CCE7F",
":	c #B6DE90",
"<	c #77B675",
"[	c #69AD76",
"}	c #399231",
"|	c #80BC75",
"1	c #76B675",
"2	c #86BF79",
"3	c #68AD75",
"4	c #27570F",
"5	c #3C6042",
"6	c #BEFB8C",
"7	c #6AAE76",
"8	c #46804E",
"9	c #84D463",
"0	c #389130",
"a	c #39590F",
"b	c #273D2D",
"c	c #2F271F",
"d	c #6B5859",
"e	c #413730",
"                          ....+..+....              @@@#########",
"                         ..$$$.++.$$$..                   %&**&%",
"                        .$+$++$$$$++$+$.                = &-;;-&",
"                        .$+$++$$$$++$+$.                > *;,,;*",
"                     ...+$$$$$$$$$$$$$$+...             ' *;,,;*",
"     )!~~!)         {..$$+$$$$$$$$$$$$+$$..{          ]^/(_:;;-&",
"     (<[[<(         {{{}$+$$$$$$$$$$$$+$....          ^|1<2_**&%",
"     /1331/       44$..+$$$$$$$$$$$$$$$$+..${{        (<[[<(    ",
"     ^|<<|^    {{{$$.$$++$$+$$$$$$$$+$$++$$.$${{{     (<[[1/'>= ",
"     ]^((^]   4$$+$.$+++$$$$+++$$+++$$$$+++$.$+$$4    ^|<<|^    ",
"              4$$+$.$+++$$$$+++$$+++$$$$+++$.$+$$4    ]^((^]    ",
"            44+++.+.$+++$$$$$$$$$$$$$$$$+++$.+.+++44            ",
"           4$$+$$$$+.+++++$$$$$$$$$$$$+++++.+$$$$+$$4           ",
"         44+++$$$$$+++++++$$$$$++$$$$$+++++++$$$$$+++44         ",
"        544{$$$$$$$..++.++++$$++++$$++++.++..$$$$$$${445        ",
"        5$$$$$$$$$++...+.++++++++++++++.+...++$$$$6$$$$5        ",
"        5$$$$$$$$$++...+.++++++++++++++.+...++$$$$6$$$$5        ",
"        {$$$$++$$++++++..+.++++++++++.+..++++++$$++$$$${        ",
"       {+$$$+.+$$$+$$..+{..+++.++.+++..{+..$$+$$$+.+$$$+{       ",
"      5{+++++++$$$$$$$$..{{.{{.++.{{.{{..$$$$$$$$+++++++{5      ",
"      5{++++$$$$$$$$$$$$+..{..{++{..{..+$$$$$$$$$$$$++++{5      ",
"     75{+$$+$$$$$$$$$$$$+...+++..+++...+$$$$$$$$$$$$+$$+{57     ",
"     75{+$$+$$$$$$$$$$$$+...+++..+++...+$$$$$$$$$$$$+$$+{57     ",
"     755{{{$$$$$$$$$$$$$++++$$$++$$$++++$$$$$$$$$$$$${{{557     ",
"    775{++++$$$$$$$$$$$$$$++$$$$$$$$++$$$$$$$$$$$$$$++++{577    ",
"    78{+$++$$$$$$$++$$$+$$$$$$6$$$$$$$$$+$$$++$$$$$$$++$+{87    ",
"    88{++...+$$$$++++..+$$$+$$$$$$$$+$$$+..++++$$$$+...++{88    ",
"    8{+$+..9.++++$$++..$$$$$+++$$+++$$$$$..++$$++++.+..+$+{8    ",
"    8{++$++...+++$$+...$+$6$$$$$$$$$$$$+$...+$$+++...++$++{8    ",
"    8{++$++...+++$$+...$+$6$$$$$$$$$$$$+$...+$$+++...++$++{8    ",
"    85.$+$$+.....++.{...+$$$$$$$$$$$$$$+...{.++.....+$$+$.58    ",
"    85++$++++.......{{{..++$$$$++$$$$++..{{{.......++++$++58    ",
"    8{++++++.+....{{{{{....++++++++++0...{{{{{....+.++++++{8    ",
"    8{..+++.++...{{.{{{{{......++......{{{{{.{{...++.+++..{8    ",
"    85......+.{..{+.....{{............{{.....+{..{.+......58    ",
"    85......+.{..{+.....{{............{{.....+{..{.+......58    ",
"    75{......+{..++++..+{...++....++...{+..++++..{+......{57    ",
"    775{{{{{.....++++++++..++++..++++..++++++++.....{{{{{577    ",
"     755{{{{...++.+++++++..+++....+++..+++++++.++...{{{{557     ",
"     7755{{{{{+..++++++++..{++....++{..++++++++..+{{{{{5577     ",
"      788888{{{+++.+.+++..{{........{{..+++.+.+++{{{888887      ",
"       888888{{..{.......{.{{{.{{.{{{.{.......{..{{888888       ",
"       888888{{..{.......{.{{{.{{.{{{.{.......{..{{888888       ",
"      78888888{{{.{.{...{{{{{{{{{{{{{{{{...{.{.{{{88888887      ",
"     7788888855{{a..{{{{{{bcccc{{ccccb{{{{{{..{{{8888888877     ",
"    7788888855555{{{{..{{bbcddccccddcbb{{..{{{{5555588888877    ",
"    778888855555555bb{{{bbbcddeeeeddcbbb{{{bb555555558888877    ",
"    78888555555555bbbbbbbbbcddeeeeddcbbbbbbbbb55555555588887    ",
"    78888555555555bbbbbbbbbcddeeeeddcbbbbbbbbb55555555588887    ",
"    78888555555555bbbbbbbbbbcceeeeccbbbbbbbbbb55555555588887    ",
"    78888555555555bbbbbbbbbbbbccccbbbbbbbbbbbb55555555588887    ",
"    778885555555555bbbbbbbbbbbbbbbbbbbbbbbbbb555555555588877    ",
"    77888885555555555bbbbbbbbbbbbbbbbbbbbbb55555555558888877    ",
"     7788888555555555555bbbbbbbbbbbbbbbb5555555555558888877     ",
"     7788888555555555555bbbbbbbbbbbbbbbb5555555555558888877     ",
"     7778888885555555555555bbbbbbbbbb5555555555555888888777     ",
"      7778888888855555555555555555555555555555588888888777      ",
"       77777888888885555555555555555555555558888888877777       ",
"        777777888888888855555555555555558888888888777777        ",
"           777777788888888888888888888888888887777777           ",
"             77777777778888888888888888887777777777             ",
"             77777777778888888888888888887777777777             ",
"                 777777777777777777777777777777                 ",
"                    777777777777777777777777                    "};
