/* XPM */
static char * enemy_0_xpm[] = {
"64 64 10 1",
" 	c None",
".	c #204860",
"+	c #3888B8",
"@	c #58B8F0",
"#	c #000000",
"$	c #E8E8F8",
"%	c #A00830",
"&	c #C87818",
"*	c #D8A830",
"=	c #B8B8B8",
"                                                                ",
"                                                                ",
"                                                                ",
"                                                                ",
"                                                                ",
"                                                                ",
"                                                                ",
"                                                                ",
"                                                                ",
"                                                                ",
"                                                                ",
"                                                                ",
"                                                                ",
"                                                                ",
"                                                                ",
"                                                                ",
"                                                                ",
"                                                                ",
"                                                                ",
"                                                                ",
"                                                                ",
"                                                                ",
"                                                                ",
"                                                                ",
"                                                                ",
"                                                                ",
"                                                                ",
"                                                                ",
"                                                                ",
"                                                                ",
"                            ..........                          ",
"                            ..........                          ",
"                          ..++@@@@@@@@..                        ",
"                          ..++@@@@@@@@..                        ",
"                        ..++@@@@@@@@@@@@..                      ",
"                        ..++@@@@@@@@@@@@..                      ",
"                        ..@@@@@@@@@@@@@@..                      ",
"                        ..@@@@@@@@@@@@@@..                      ",
"                      ..++@@@@@@@@@@++@@@@..                    ",
"                      ..++@@@@@@@@@@++@@@@..                    ",
"                      ##++@@@@@@@@@@$$@@@@..                    ",
"                      ##++@@@@@@@@@@$$@@@@..                    ",
"                      ##++++@@@@@@@@%%@@++..                    ",
"                      ##++++@@@@@@@@%%@@++..                    ",
"                      ..##++++++@@@@@@++..                      ",
"                      ..##++++++@@@@@@++..                      ",
"                    ..&&**####..++..####                        ",
"                    ..&&**####..++..####                        ",
"                ####..&&****&&##..++..                          ",
"                ####..&&****&&##..++..                          ",
"              ##@@@@##&&****&&==..@@@@..                        ",
"              ##@@@@##&&****&&==..@@@@..                        ",
"              ##@@++++##&&&&====@@......                        ",
"              ##@@++++##&&&&====@@......                        ",
"                ##++++++####..@@@@..                            ",
"                ##++++++####..@@@@..                            ",
"                  ######  ##++++..                              ",
"                  ######  ##++++..                              ",
"                            ######                              ",
"                            ######                              ",
"                                                                ",
"                                                                ",
"                                                                ",
"                                                                "};
