/* XPM */
static char * enemy_5_xpm[] = {
"64 64 10 1",
" 	c None",
".	c #204860",
"+	c #58B8F0",
"@	c #3888B8",
"#	c #E8E8F8",
"$	c #000000",
"%	c #A00830",
"&	c #D8A830",
"*	c #C87818",
"=	c #B8B8B8",
"                                                                ",
"                                                                ",
"                                                                ",
"                                                                ",
"                                                                ",
"                                                                ",
"                                                                ",
"                                                                ",
"                                                                ",
"                                                                ",
"                                                                ",
"                                                                ",
"                                                                ",
"                                                                ",
"                                                                ",
"                                                                ",
"                                                                ",
"                                                                ",
"                                                                ",
"                                                                ",
"                                                                ",
"                                                                ",
"                                                                ",
"                                                                ",
"                                                                ",
"                                                                ",
"                                                                ",
"                                                                ",
"                                                                ",
"                                                                ",
"                          ..........                            ",
"                          ..........                            ",
"                        ..++++++++@@..                          ",
"                        ..++++++++@@..                          ",
"                      ..++++++++++++@@..                        ",
"                      ..++++++++++++@@..                        ",
"                      ..++++++++++++++..                        ",
"                      ..++++++++++++++..                        ",
"                    ..++++@@++++++++++@@..                      ",
"                    ..++++@@++++++++++@@..                      ",
"                    ..++++##++++++++++@@$$                      ",
"                    ..++++##++++++++++@@$$                      ",
"                    ..@@++%%++++++++@@@@$$                      ",
"                    ..@@++%%++++++++@@@@$$                      ",
"                      ..@@++++++@@@@@@$$..                      ",
"                      ..@@++++++@@@@@@$$..                      ",
"                        $$$$..@@..$$$$&&**..                    ",
"                        $$$$..@@..$$$$&&**..                    ",
"                          ..@@..$$**&&&&**..$$$$                ",
"                          ..@@..$$**&&&&**..$$$$                ",
"                        ..++++..==**&&&&**$$++++$$              ",
"                        ..++++..==**&&&&**$$++++$$              ",
"                        ......++====****$$@@@@++$$              ",
"                        ......++====****$$@@@@++$$              ",
"                            ..++++..$$$$@@@@@@$$                ",
"                            ..++++..$$$$@@@@@@$$                ",
"                              ....@@@@$$$$$$$$                  ",
"                              ....@@@@$$$$$$$$                  ",
"                                $$$$$$                          ",
"                                $$$$$$                          ",
"                                                                ",
"                                                                ",
"                                                                ",
"                                                                "};
